<?xml version="1.0" encoding="UTF-8" standalone="no"?>
<svg
   xmlns:dc="http://purl.org/dc/elements/1.1/"
   xmlns:cc="http://creativecommons.org/ns#"
   xmlns:rdf="http://www.w3.org/1999/02/22-rdf-syntax-ns#"
   xmlns:svg="http://www.w3.org/2000/svg"
   xmlns="http://www.w3.org/2000/svg"
   xmlns:sodipodi="http://sodipodi.sourceforge.net/DTD/sodipodi-0.dtd"
   xmlns:inkscape="http://www.inkscape.org/namespaces/inkscape"
   height="341"
   width="935"
   version="1.1"
   id="svg8"
   inkscape:version="1.0 (4035a4fb49, 2020-05-01)"
   sodipodi:docname="card-logo.svg">
  <defs
     id="defs2">
    <clipPath
       id="clipEmfPath1"
       clipPathUnits="userSpaceOnUse">
      <path
         id="path849"
         d="M 0,0 H 106.16995 V 46.492724 H 0 Z" />
    </clipPath>
    <pattern
       y="0"
       x="0"
       height="6"
       width="6"
       patternUnits="userSpaceOnUse"
       id="EMFhbasepattern" />
  </defs>
  <sodipodi:namedview
     id="base"
     pagecolor="#ffffff"
     bordercolor="#666666"
     borderopacity="1.0"
     inkscape:pageopacity="0.0"
     inkscape:pageshadow="2"
     inkscape:zoom="0.8359833"
     inkscape:cx="463.85898"
     inkscape:cy="306.78932"
     inkscape:document-units="mm"
     inkscape:current-layer="layer1"
     inkscape:document-rotation="0"
     showgrid="false"
     inkscape:window-width="1375"
     inkscape:window-height="788"
     inkscape:window-x="100"
     inkscape:window-y="26"
     inkscape:window-maximized="0" />
  <metadata
     id="metadata5">
    <rdf:RDF>
      <cc:Work
         rdf:about="">
        <dc:format>image/svg+xml</dc:format>
        <dc:type
           rdf:resource="http://purl.org/dc/dcmitype/StillImage" />
        <dc:title></dc:title>
      </cc:Work>
    </rdf:RDF>
  </metadata>
  <g
     inkscape:label="Layer 1"
     inkscape:groupmode="layer"
     id="layer1">
    <g
       id="g916"
       transform="translate(90.380999,32.037073)">
      <path
         id="path847"
         d="m 481.711,306.37216 c -10.63578,-0.7257 -16.80209,-8.85129 -18.7888,-24.75873 -0.85715,-6.8632 -1.01259,-16.2285 -0.38501,-23.19866 1.30456,-14.48913 5.92509,-23.80469 13.80564,-27.83388 3.02009,-1.54412 5.93659,-2.22499 9.95449,-2.32392 4.59192,-0.11307 8.19624,0.58923 11.41568,2.22431 3.51437,1.78487 5.95043,4.29877 7.78798,8.03682 1.48515,3.02116 2.2758,6.23619 2.58709,10.51984 l 0.0569,0.78316 h -5.83153 -5.83154 l -0.18407,-1.50283 c -0.77132,-6.2971 -3.62683,-9.59743 -8.65631,-10.00474 -6.5198,-0.52801 -10.53678,4.23943 -12.27859,14.5725 -1.05873,6.28077 -1.31814,16.62431 -0.63233,25.21374 0.79787,9.99292 3.16692,15.59931 7.42253,17.56553 1.39178,0.64304 3.15523,0.90727 4.95549,0.74252 2.36608,-0.21654 4.02912,-0.91422 5.39595,-2.26372 2.09263,-2.06609 3.21412,-5.25259 3.72596,-10.58661 0.15318,-1.59629 0.29403,-5.61572 0.29585,-8.44222 l 10e-4,-2.01084 h -5.63033 -5.63033 v -5.08 -5.08 h 11.47233 11.47233 v 21.12507 21.12507 l -4.55083,-0.0219 -4.55083,-0.0219 -0.0986,-0.74985 c -0.19593,-1.4899 -0.37811,-3.51469 -0.4355,-4.8402 l -0.0586,-1.35262 -0.40643,0.67733 c -1.46773,2.44599 -3.21335,4.21679 -5.36659,5.44404 -2.14506,1.22257 -4.47267,1.84218 -7.68898,2.04684 -1.48927,0.0948 -1.90232,0.0942 -3.34433,-0.004 z m 63.08818,0.004 c -7.67034,-0.59936 -12.91572,-3.38403 -16.03973,-8.51519 -1.67057,-2.74387 -2.62232,-5.79014 -3.21123,-10.2781 l -0.18331,-1.397 -0.027,-28.3845 -0.027,-28.38449 h 5.8838 5.8838 l 0.0281,27.45316 c 0.0304,29.64688 0.005,27.91932 0.44283,30.23383 0.85351,4.51304 2.95055,7.4633 6.16549,8.67407 1.41322,0.53222 2.15109,0.64617 4.20533,0.64942 1.9641,0.003 2.57335,-0.0774 3.937,-0.52034 1.31846,-0.42826 2.26827,-0.98688 3.20378,-1.88429 1.81515,-1.7412 2.79604,-4.11049 3.3321,-8.04852 0.13271,-0.97492 0.14622,-3.24534 0.17145,-28.80784 l 0.0274,-27.74949 h 5.88407 5.88407 l -0.0252,28.13049 c -0.0276,30.72387 0.005,28.64717 -0.48988,31.54011 -0.86492,5.05924 -2.64911,8.86081 -5.49503,11.70824 -3.06606,3.06769 -7.12275,4.82287 -12.61971,5.46011 -1.35638,0.15723 -5.53123,0.22971 -6.93115,0.12033 z m -174.29785,-0.0876 c -5.59234,-0.50981 -9.86809,-2.27405 -13.11165,-5.41008 -1.54025,-1.48919 -2.65159,-3.05337 -3.70163,-5.20996 -1.47306,-3.02543 -2.27161,-6.28286 -2.5789,-10.51983 l -0.0568,-0.78317 h 5.87643 5.87645 l 0.14747,1.0795 c 0.53084,3.88581 1.76405,6.80734 3.69334,8.74968 0.84021,0.84592 1.49314,1.30589 2.59375,1.82725 2.7792,1.31653 7.08133,1.25017 9.88003,-0.15238 1.54113,-0.77232 2.90995,-2.20483 3.66184,-3.83219 0.37617,-0.81416 0.75328,-2.11323 0.93884,-3.23412 0.21537,-1.30095 0.21355,-4.29921 -0.003,-5.49607 -0.47043,-2.59595 -1.42884,-4.50857 -3.17196,-6.32995 -2.17001,-2.26744 -4.15407,-3.55887 -9.91688,-6.45491 -3.93398,-1.97697 -5.67442,-2.94165 -7.48977,-4.15132 -6.29447,-4.19442 -9.09282,-8.57446 -9.78889,-15.32182 -0.14265,-1.38286 -0.12282,-4.53145 0.0368,-5.85024 0.72976,-6.02739 3.49642,-10.69619 8.12033,-13.7032 1.67538,-1.08952 4.24175,-2.1368 6.41216,-2.61666 4.24038,-0.93752 9.3367,-0.82354 13.335,0.29822 6.13791,1.72204 10.2939,5.95328 12.14716,12.36707 0.50943,1.76297 0.88857,4.03092 0.97877,5.85451 0.0256,0.51753 0.0645,1.08384 0.0865,1.25847 l 0.0399,0.3175 h -5.80066 c -3.19037,0 -5.80067,-0.0302 -5.80067,-0.067 0,-0.29993 -0.30577,-2.28772 -0.47686,-3.10007 -0.77295,-3.66988 -2.3342,-6.06806 -4.73013,-7.26576 -2.29158,-1.14554 -5.91316,-1.14145 -8.28647,0.009 -2.31428,1.12219 -3.69836,3.15126 -4.25133,6.2325 -0.20642,1.15021 -0.20879,3.65047 -0.004,4.78035 0.69203,3.82795 2.88718,6.20103 8.52537,9.21639 0.44497,0.23797 1.87601,0.94151 3.18007,1.56342 9.58498,4.57105 14.2707,8.40111 16.88117,13.79849 1.24124,2.56639 1.87251,5.11447 2.11319,8.52968 0.34335,4.87239 -0.39027,9.16867 -2.19036,12.827 -1.05968,2.15363 -2.04168,3.51413 -3.70151,5.12827 -3.12974,3.04359 -7.19931,4.85244 -12.47728,5.54589 -1.24361,0.1634 -5.65781,0.23621 -6.985,0.11521 z M 85.988975,305.10934 c -4.550635,-0.12751 -9.022615,-0.3645 -12.907675,-0.68405 -2.31113,-0.19009 -3.35088,-0.29678 -3.40334,-0.34926 -0.0189,-0.0189 0.46932,-0.23854 1.08486,-0.48816 23.071035,-9.35606 39.20722,-20.22077 48.67738,-32.77513 7.67867,-10.17942 10.64458,-21.56966 8.35399,-32.08255 -0.29934,-1.37384 -0.73123,-2.82267 -1.08366,-3.63522 -1.40123,-3.23071 -4.67991,-6.81963 -9.61652,-10.52651 -2.48754,-1.86788 -6.40126,-4.35811 -9.07971,-5.77727 -0.61521,-0.32597 -1.11948,-0.61289 -1.12059,-0.63762 -0.006,-0.14126 1.0731,-1.28261 1.88611,-1.99423 6.72126,-5.88292 22.11166,-13.59505 42.90052,-21.49743 1.55998,-0.59299 2.85538,-1.09807 2.87866,-1.12238 0.0573,-0.0599 -4.78866,0.0467 -6.94266,0.15276 -14.96662,0.73666 -28.27253,3.5966 -40.34367,8.67138 -15.581015,6.55036 -28.82835,16.87229 -39.08325,30.45254 -4.13062,5.47005 -7.20367,10.52996 -11.25347,18.52931 -1.60015,3.16069 -2.01026,3.78504 -3.31122,5.04096 -2.00147,1.9322 -4.59597,3.11502 -7.8976,3.60051 -3.4908,0.51331 -7.87502,0.15793 -12.0005,-0.97274 -2.22939,-0.61101 -6.40717,-2.2955 -9.6813,-3.90353 -5.77734,-2.83744 -9.75867,-5.77289 -11.94114,-8.80426 -0.62614,-0.8697 -1.31766,-2.2151 -1.52525,-2.9675 l -0.14169,-0.51356 -0.6466198,-0.2399 c -2.12557,-0.78857 -5.41819,-2.35231 -7.41996,-3.52388 -3.42103,-2.00222 -5.90223,-3.8922 -8.42981,-6.42118 -2.5491,-2.5505 -4.4277602,-5.10924 -5.7547002,-7.83792 -0.41911,-0.86184 -0.92849,-2.07964 -0.92849,-2.21977 0,-0.0223 0.29016,0.23036 0.64481,0.56156 2.1862602,2.04173 5.6970402,3.3498 10.2780302,3.82946 1.34182999,0.14051 5.1279,0.14142 6.51849,0.002 5.8838598,-0.5917 11.0954398,-2.06447 16.2136698,-4.58191 4.19658,-2.06412 7.65393,-4.49747 10.71191,-7.53925 6.07963,-6.04743 9.49573,-13.5177 10.24073,-22.39433 0.1111,-1.32369 0.11098,-5.19921 0,-6.65057 -0.43949,-5.73687 -2.23906,-11.79354 -4.86929,-16.38821 -0.73726,-1.2879 -1.82794,-2.89625 -2.76745,-4.08095 -1.03171,-1.30095 -3.32224,-3.60346 -4.59502,-4.61904 -5.4949,-4.38453 -12.30635,-6.85332 -20.4893298,-7.42629 -1.79034,-0.12535 -5.95146,-0.0553 -7.66233,0.12904 -8.88407,0.95714 -16.5968402,3.86938 -21.2542002,8.02531 -0.44081,0.39334 -1.54442,1.45633 -2.45247,2.36219 -4.29237,4.28205 -6.26929,7.08817 -7.4108,10.51924 -1.70103,5.11283 -1.20706,10.81919 2.04943,23.67495 0.53671,2.11878 0.99544,3.93791 1.01941,4.04251 l 0.0436,0.19018 -0.49664,-0.21819 c -0.27316,-0.12 -1.14434,-0.53838 -1.93598,-0.92973 -8.79513,-4.34802 -16.365044,-11.02411 -22.074164,-19.46777 -2.28815,-3.38412 -4.32034,-7.13197 -5.496,-10.13598 l -0.4545,-1.16131 -0.3555,-0.003 c -1.23029,-0.01 -3.62141,-0.507 -4.35247,-0.9049 -1.01751,-0.5538 -1.97393,-1.95839 -3.96908,-5.82895 -1.51229,-2.93383 -1.72259,-3.20073 -2.9926,-3.7978 -1.49545,-0.70306 -4.79013,-1.48021 -7.25335,-1.71092 -0.34925,-0.0327 -0.78051,-0.13273 -0.95836,-0.22225 -0.74847,-0.37677 -2.51093,-2.31441 -4.41367,-4.85236 -1.33872,-1.78537 -2.84086,-3.94547 -2.84086,-4.0849 0,-0.12697 1.56562,-4.16866 2.59928,-6.71012 3.42856,-8.42977 6.37096,-13.1622 12.26552,-19.72733 1.56398,-1.7419 6.58932,-6.77139 9.01253,-9.01996 6.53892,-6.06768 13.99697,-12.53046 27.761174,-24.05646 l 3.42085,-2.86458 0.43883,-1.27 C -23.93482,71.71822 -14.22055,59.29298 -0.08701981,48.77881 14.66949,37.8012 34.25101,28.71027 57.44635,22.06834 66.44846,19.49061 76.0503,17.30126 84.15869,15.97759 86.380405,15.6149 86.963925,15.55101 88.815355,15.46773 100.19838,14.9557 115.3325,12.369 130.2593,8.3841695 c 24.64212,-6.5784 50.45399,-17.30562 74.35949,-30.9032395 1.01315,-0.57629 1.86648,-1.0478 1.89627,-1.0478 0.12718,0 -0.17297,5.09047 -0.48424,8.21267 -1.97482,19.8086895 -9.00303,34.89079 -20.99289,45.04943 -7.08062,5.99919 -15.95278,10.31563 -26.62657,12.95424 -0.93134,0.23022 -1.72717,0.42936 -1.76852,0.44252 -0.0946,0.0301 1.64408,1.17157 3.25332,2.13583 1.52764,0.91536 4.90375,2.58235 6.47386,3.19655 5.87172,2.29688 11.75931,3.18968 16.86561,2.55751 1.02235,-0.12657 2.44514,-0.39314 2.79263,-0.5232 0.15438,-0.0578 -0.64802,-0.55069 -4.85937,-2.98502 l -5.04428,-2.91581 0.75304,-0.18533 c 5.39785,-1.32853 14.13278,-6.80537 23.01735,-14.43196 l 1.60466,-1.37746 1.22558,0.0557 c 11.03619,0.50146 28.01495,7.34732 45.77145,18.45509 17.15542,10.73175 32.27892,23.70183 42.1508,36.14899 6.69223,8.43801 10.82691,16.63157 11.98886,23.75788 0.42329,2.59602 0.42329,4.60133 -2e-5,11.60771 -3.03837,50.29024 -17.74143,90.73449 -44.15336,121.45433 -20.33649,23.65345 -47.72955,41.3335 -80.97928,52.26569 -22.82795,7.50561 -47.28175,11.678 -74.54899,12.71979 -3.001255,0.11467 -13.909855,0.16697 -16.965705,0.0813 z M -25.50336,100.27989 c 0.33995,-0.16144 0.94042,-0.5542 1.33439,-0.87279 0.83334,-0.67392 2.76777,-1.95472 4.69564,-3.10902 7.56197,-4.5277 15.0285902,-7.48135 22.7217702,-8.98829 3.97663,-0.77894 6.9367098,-1.10704 13.4308898,-1.48865 6.96698,-0.4094 8.5135,-0.84008 10.62717,-2.95948 0.75236,-0.75439 1.19156,-1.39414 1.49719,-2.18084 0.32694,-0.84154 0.32769,-1.99581 0.002,-2.94844 -0.38311,-1.12029 -0.83708,-1.8224 -2.79906,-4.32898 -1.19816,-1.53075 -1.39744,-1.69261 -4.92037,-3.99639 -0.87715,-0.5736 -1.55653,-1.16796 -1.83261,-1.6033 -0.34428,-0.54289 -0.34604,-1.18118 -0.005,-1.71386 0.37807,-0.59003 0.52203,-0.67856 1.25534,-0.77197 2.65611,-0.33835 5.32389,0.83633 7.36793,3.24424 2.45916,2.89691 4.5819,8.07234 4.94349,12.05265 0.12325,1.35675 0.21907,1.70444 0.58007,2.10487 0.39232,0.43517 0.85891,0.64261 1.45073,0.64494 1.3185,0.005 2.36219,-0.96613 2.36337,-2.19947 8.5e-4,-0.55899 -0.27409,-2.93459 -0.50896,-4.40267 -0.65729,-4.10859 -1.72758,-7.67497 -3.10805,-10.35654 -1.28003,-2.48646 -3.3377,-4.76414 -5.06934,-5.61135 l -0.48117,-0.23541 0.32986,-0.28449 c 2.93694,-2.53287 10.08417,-6.7291 15.40054,-9.04184 11.64719,-5.06679 24.45377,-9.01033 38.481,-11.84948 12.700365,-2.57059 26.30401,-4.1898 38.02447,-4.52595 l 2.67614,-0.0768 4.39353,-2.72802 c 2.41645,-1.50042 4.43163,-2.76548 4.4782,-2.81125 0.0981,-0.0964 -5.44745,-0.0286 -8.84767,0.10818 -32.058565,1.28969 -59.63548,6.35009 -77.31373,14.18716 -3.13028,1.38771 -5.849,2.77934 -7.56461,3.87208 -4.78537,3.048 -7.28129,4.56733 -10.83733,6.59699 -11.51401,6.57177 -22.9432198,11.62093 -33.7819998,14.92409 -2.62661,0.80046 -3.6103102,1.06944 -7.6087302,2.08044 -1.99617,0.50474 -3.63952,0.92913 -3.6519,0.94309 -0.14112,0.15916 -6.33057,12.68144 -6.40421,12.95681 -0.1968,0.7358 0.3456,1.33448 1.20931,1.33477 1.2689,8.5e-4 4.724,-1.28839 9.14463,-3.41112 l 1.4742,-0.7079 0.40617,-0.72368 c 1.68842,-3.00831 4.8128602,-5.77871 8.8172002,-7.81807 1.45936,-0.74324 3.17914999,-1.42054 4.28991,-1.6895 4.39412,-1.06398 10.9536798,0.28829 15.2518898,3.14422 2.72207,1.80866 3.46498,3.78447 1.89956,5.05191 -0.32577,0.26375 -0.42664,0.29632 -1.07903,0.34835 -10.9913398,0.87664 -26.4723498,5.76208 -40.259,12.70478 -3.29535,1.65948 -3.8151,1.96878 -4.45437,2.65074 -1.52092,1.6225 -1.58431,3.89653 -0.12922,4.63575 0.59891,0.30427 1.2496,0.25783 2.10956,-0.15056 z M 411.77633,267.30477 V 229.41644 H 430.53 449.28366 v 5.16466 5.16467 h -12.95433 -12.95434 l 0.0215,10.26583 0.0215,10.26583 12.34017,0.0214 12.34016,0.0215 v 5.12176 5.12177 l -12.34016,0.0214 -12.34017,0.0215 -0.0215,12.17083 -0.0215,12.17083 h 13.80095 c 11.86522,0 13.80096,0.0169 13.80096,0.12022 0,0.0661 -0.32385,2.3339 -0.71967,5.0395 -0.39582,2.7056 -0.71967,4.95655 -0.71967,5.00211 0,0.0538 -6.62774,0.0828 -18.88066,0.0828 h -18.88067 z m 176.784,0 v -37.88833 h 12.04383 c 7.55661,0 12.4066,0.0327 13.0175,0.0873 6.70354,0.59917 11.64211,3.22498 14.64453,7.7864 1.57575,2.39396 2.5859,5.41518 3.01484,9.017 0.19249,1.61633 0.19471,5.08271 0.004,6.63905 -0.30649,2.50449 -0.96351,4.87063 -1.86575,6.71913 -1.58045,3.23802 -4.21733,5.86639 -7.2008,7.17752 l -0.62925,0.27654 0.86325,0.43294 c 2.37021,1.18874 4.17327,2.89244 5.3949,5.09764 1.06646,1.92507 1.85793,4.65644 2.19246,7.56618 0.23623,2.05466 0.27746,3.1775 0.34513,9.398 0.0707,6.50224 0.13046,8.17645 0.38656,10.83733 0.11472,1.19195 0.47681,3.93431 0.59529,4.5085 l 0.048,0.23283 h -5.75668 -5.75667 l -0.21655,-0.91016 c -0.69866,-2.93652 -0.88952,-5.76249 -0.98494,-14.58384 -0.0688,-6.35633 -0.11419,-7.43615 -0.38466,-9.144 -0.69606,-4.39505 -2.38722,-6.74439 -5.63457,-7.82744 -1.86406,-0.6217 -2.25401,-0.65765 -7.58955,-0.69976 l -4.7625,-0.0376 v 16.60139 16.6014 h -5.88434 -5.88433 v -37.88831 z m 20.87033,-5.03901 c 4.50944,-0.36984 7.31248,-1.94863 8.84066,-4.97947 0.95707,-1.89818 1.43705,-4.67152 1.33595,-7.71919 -0.0929,-2.79978 -0.6488,-4.85819 -1.75947,-6.51475 -1.32937,-1.98274 -3.11447,-3.12328 -5.87714,-3.75504 -0.71745,-0.16405 -1.08008,-0.17614 -6.20183,-0.20663 l -5.43984,-0.0324 v 11.64674 11.64674 l 4.04284,-0.001 c 2.22355,-8.4e-4 4.50003,-0.0388 5.05883,-0.0847 z m 38.90433,5.03901 v -37.88833 h 5.88434 5.88433 v 37.88833 37.88833 h -5.88433 -5.88434 z m 30.734,0.005 v -37.89295 l 10.4775,8.5e-4 c 6.47243,8.4e-4 10.86587,0.0342 11.4935,0.0881 6.06848,0.5213 10.79856,2.47368 14.40696,5.94668 4.25053,4.09098 6.91287,10.20126 8.10548,18.6023 0.46093,3.24642 0.6356,5.78197 0.69994,10.16 0.19719,13.4127 -1.64262,23.29785 -5.5659,29.90517 -3.47057,5.8449 -8.70331,9.36555 -15.69915,10.56265 -2.64422,0.45246 -2.56938,0.44979 -13.61016,0.48614 l -10.30817,0.0339 v -37.89295 z m 19.23153,28.06019 c 5.86401,-0.58088 9.47885,-3.67331 11.55386,-9.88392 1.53577,-4.59694 2.23334,-10.71071 2.23359,-19.57789 0,-9.4895 -0.88028,-15.20025 -3.00956,-19.51566 -1.70654,-3.45887 -4.07873,-5.49382 -7.58681,-6.50835 -1.71594,-0.49625 -3.46888,-0.6455 -7.58478,-0.64578 h -2.9845 v 28.10933 28.10933 h 3.2507 c 1.7879,0 3.64523,-0.0391 4.1275,-0.0869 z m 33.04031,9.67536 c 0.043,-0.14529 17.38139,-73.93485 17.63624,-75.05745 l 0.12979,-0.57194 7.67182,0.0216 7.67173,0.0216 8.99033,37.592 c 4.94462,20.6756 9.01471,37.71607 9.04452,37.86772 l 0.0543,0.27571 -6.20412,-0.0217 -6.20412,-0.0217 -2.17856,-10.287 c -1.1982,-5.65785 -2.18008,-10.31557 -2.18186,-10.3505 -0.002,-0.0349 -4.11395,-0.0635 -9.13816,-0.0635 -7.23171,0 -9.14264,0.0221 -9.1721,0.10583 -0.0204,0.0582 -1.00483,4.72546 -2.18762,10.37167 l -2.15062,10.26583 h -5.9127 c -5.59147,0 -5.91041,-0.008 -5.86884,-0.14816 z m 32.19713,-31.115 c -0.13115,-0.53477 -4.07662,-19.11325 -4.79628,-22.58483 -0.88773,-4.28232 -1.33316,-6.54603 -1.82364,-9.26908 -0.16755,-0.93028 -0.31978,-1.70651 -0.33816,-1.72496 -0.0185,-0.0185 -0.0848,-0.0139 -0.14723,0.0101 -0.0756,0.029 -0.17831,0.47921 -0.30658,1.34395 -0.29346,1.97862 -1.17975,6.75701 -2.11777,11.41802 -0.80238,3.98666 -4.29141,20.66819 -4.36964,20.89149 -0.0294,0.0841 1.39793,0.10584 6.95452,0.10584 h 6.99151 z m 31.86303,-6.62841 v -37.89193 l 11.1125,0.0292 c 10.88009,0.0286 11.13934,0.033 12.39494,0.21335 3.30497,0.47459 5.63796,1.16821 8.13088,2.41739 7.03902,3.52725 11.2605,10.71403 12.88898,21.94222 0.8785,6.05748 0.98027,14.75525 0.25755,22.01333 -0.76064,7.63912 -2.46033,13.61726 -5.16974,18.18346 -3.63661,6.12871 -9.31486,9.68561 -17.05145,10.68113 -2.04749,0.26346 -3.64905,0.30047 -13.05983,0.30176 l -9.50383,10e-4 v -37.89157 z m 19.31619,28.06621 c 4.55142,-0.46042 7.63583,-2.39001 9.89838,-6.19242 1.38074,-2.32037 2.52933,-6.14962 3.11903,-10.39822 0.92744,-6.68226 1.02159,-16.76034 0.21616,-23.15633 -1.10956,-8.81208 -4.10337,-13.7562 -9.40393,-15.52987 -1.97078,-0.65949 -3.82837,-0.85103 -8.26567,-0.85229 l -2.94216,-8.5e-4 v 28.10934 28.10933 h 3.25069 c 1.7879,0 3.64524,-0.0399 4.1275,-0.0887 z m -129.55219,-90.5966 c -16.75179,-0.78912 -28.59762,-6.48007 -36.10038,-17.34326 -6.39834,-9.26411 -9.73608,-22.0282 -10.38528,-39.71516 -0.13384,-3.64629 -0.066,-82.77005 0.0725,-84.58199 0.24598,-3.21761 0.36933,-4.63136 0.52817,-6.05367 1.5616,-13.98254 5.60711,-24.73377 12.34524,-32.80833 1.65473,-1.98292 4.43119,-4.59598 6.56567,-6.17926 6.16164,-4.57048 13.709,-7.42356 22.6137,-8.5485405 6.9883,-0.88286 15.31806,-0.72498 22.16463,0.4201 13.02529,2.1784505 22.63648,7.9932505 28.79903,17.4235105 4.58427,7.01515 7.26558,15.99877 8.12944,27.23719 0.24121,3.13806 0.29946,5.39275 0.29997,11.6205 v 6.20183 h -19.71772 -19.71785 l -0.0441,-7.97983 c -0.025,-4.53079 -0.0841,-8.49216 -0.13656,-9.16517 -0.3783,-4.84777 -1.15587,-7.83583 -2.60825,-10.02314 -1.18059,-1.77806 -2.78595,-2.90664 -4.89601,-3.44188 -3.04665,-0.77286 -6.41638,-0.32189 -8.53415,1.14211 -2.39691,1.65696 -3.93074,4.69653 -4.83074,9.57295 -0.33782,1.83028 -0.55885,3.74706 -0.82968,7.19496 -0.13495,1.7179 -0.20237,88.26377 -0.0714,91.65166 0.11071,2.86406 0.21127,4.33752 0.43336,6.35 0.97521,8.83719 3.40667,13.19834 8.03556,14.41299 0.98722,0.25906 3.20235,0.36039 4.31656,0.19747 2.23901,-0.32738 3.85987,-1.1329 5.2606,-2.61425 2.18465,-2.31049 3.29785,-5.73759 3.89653,-11.99621 0.0627,-0.65495 0.11015,-4.07737 0.1336,-9.63083 l 0.0364,-8.61483 h 19.86102 19.86111 l -0.0512,6.2865 c -0.0589,7.22521 -0.15672,9.56369 -0.57463,13.73716 -0.86572,8.64511 -2.72627,15.7154 -5.74819,21.844 -3.53957,7.17837 -8.35677,12.47049 -15.02918,16.51077 -1.24562,0.75424 -4.53246,2.36534 -6.05367,2.96729 -6.82184,2.69944 -15.04839,4.05238 -24.34166,4.00325 -1.2573,-0.007 -2.91465,-0.0417 -3.683,-0.0779 z M 354.62633,106.90377 V 11.99244 h 19.64267 19.64267 v 78.14733 78.14733 h 24.34166 c 22.05562,0 24.34167,0.0125 24.34167,0.13284 0,0.0731 -0.8001,7.58886 -1.778,16.70177 -0.9779,9.11292 -1.778,16.59694 -1.778,16.63117 0,0.0342 -18.99285,0.0622 -42.20633,0.0622 h -42.20634 z m 100.75333,0 V 11.99244 H 474.98 494.58033 v 94.91133 94.91133 H 474.98 455.37966 Z m 59.69,0 v -94.9115 l 21.52334,0.0213 21.52334,0.0213 0.2798,0.97367 c 3.32748,11.57899 8.96775,33.65274 14.34323,56.1336 5.06878,21.19822 11.15655,47.96429 13.21031,58.08173 l 0.19765,0.97366 h 0.46566 0.46567 l -0.0194,-0.42333 c -0.0107,-0.23283 -0.13344,-1.90923 -0.27282,-3.72533 -1.15891,-15.10096 -2.12833,-34.20201 -2.66847,-52.578 -0.3967,-13.49595 -0.46725,-19.63452 -0.46781,-40.7035 l -4.9e-4,-18.77499 h 18.034 18.034 v 94.91133 94.91133 h -21.79179 -21.79179 l -0.0549,-0.1905 c -0.17416,-0.60393 -2.77441,-11.00253 -3.39274,-13.56783 -4.91165,-20.37718 -10.99567,-47.52073 -18.33215,-81.788 -1.62647,-7.59693 -5.07455,-23.86206 -5.41601,-25.54817 l -0.0986,-0.48683 h -0.54433 c -0.50814,0 -0.54432,0.0127 -0.54404,0.1905 0,0.10477 0.0563,1.04775 0.12476,2.0955 0.83334,12.75552 1.79166,37.62264 2.24648,58.293 0.0492,2.2352 0.13055,5.91185 0.18081,8.17033 0.0503,2.25848 0.10956,15.06961 0.13177,28.46917 l 0.0404,24.36283 h -17.70297 -17.70291 v -94.9115 z m 240.284,0 V 11.99244 h 42.07933 42.07933 v 16.84867 16.84866 h -22.479 -22.479 v 19.939 19.939 h 21.37833 21.37834 v 16.764 16.764 h -21.37834 -21.37833 v 24.638 24.638 h 24.89869 24.89877 l -0.0479,0.23283 c -0.0264,0.12806 -1.05723,7.52899 -2.29083,16.4465 -1.23359,8.91752 -2.26449,16.3375 -2.29099,16.48884 l -0.0481,0.27516 h -42.16011 -42.16018 z"
         style="fill:#134431;fill-opacity:1;stroke-width:0.0846667" />
      <path
         transform="scale(0.26458333)"
         id="path870"
         d="m 293.69247,1150.9376 -24.03529,-1.1837 47.05518,-23.4484 c 52.08862,-25.9566 83.83528,-47.3585 112.37145,-75.7548 49.2672,-49.0257 68.00117,-104.95199 52.94092,-158.04404 -4.26997,-15.05295 -22.73286,-34.43829 -50.21597,-52.72495 -13.24906,-8.8156 -23.36475,-17.20054 -22.47932,-18.6332 7.08774,-11.4682 78.17109,-49.1956 136.96977,-72.69654 18.85715,-7.53691 35.57143,-14.92877 37.14286,-16.42631 3.85963,-3.67815 -55.7746,0.006 -87.14286,5.38351 -56.864,9.7484 -110.75234,30.91046 -155.98034,61.25377 -12.42509,8.33595 -35.44823,28.12492 -51.16251,43.97546 -29.81752,30.07606 -47.21989,53.78509 -67.44212,91.88334 -20.24717,38.14529 -31.81811,46.90683 -61.94754,46.90683 -22.02277,0 -42.21037,-6.18166 -73.137259,-22.3954 -23.759,-12.45591 -44.615943,-30.69768 -44.615943,-39.02168 0,-1.78515 -6.75,-6.06266 -15,-9.50563 -19.3257425,-8.06523 -44.766343,-27.23983 -57.654657,-43.45435 -5.580857,-7.0212 -10.159503,-13.67305 -10.174754,-14.78191 -0.01514,-1.10886 5.276774,-0.14457 11.760068,2.14286 15.526058,5.47791 52.9268,5.30417 74.942658,-0.34815 54.345687,-13.95262 96.721947,-52.74837 108.862857,-99.6646 5.63071,-21.75885 5.64531,-58.44374 0.0317,-79.99528 -9.765,-37.49032 -33.68717,-67.82463 -65.075996,-82.51909 -40.383286,-18.90514 -101.754114,-17.7604 -142.746763,2.66263 -19.15764,9.54457 -46.144691,35.70074 -55.739601,54.02346 -9.59381,18.3206 -9.83545,45.814 -0.73623,83.76428 3.51061,14.6418 5.88633,27.11806 5.27936,27.725 -1.80577,1.8058 -36.99474,-21.34588 -50.46164,-33.19991 -18.34366,-16.14686 -39.39015,-43.51029 -50.62519,-65.82009 -8.22938,-16.34137 -11.06176,-19.61214 -16.98346,-19.61214 -8.15194,0 -12.65548,-4.32217 -25.26428,-24.2468 -8.31579,-13.14074 -10.42772,-14.62786 -27.20345,-19.15523 -10.00326,-2.69963 -18.43589,-5.28857 -18.73918,-5.7532 -0.30329,-0.46463 -5.51721,-7.03945 -11.58648,-14.61077 -10.68744,-13.33237 -10.9217,-14.09737 -7.43673,-24.28571 1.97907,-5.78583 9.25629,-22.12589 16.17161,-36.3112 18.96707,-38.90695 50.66243,-72.25877 145.25149,-152.8426 41.5596,-35.40615 43.4129,-37.45063 50.94145,-56.19726 12.137205,-30.22246 29.103591,-53.97731 61.95868,-86.74917 C -1.5749588,184.72939 33.942841,160.47275 90.71367,133.22562 141.05224,109.06565 192.83047,90.916009 254.24233,75.904506 299.60881,64.815126 315.48444,62.182209 376.29921,55.66182 480.6507,44.473546 613.64416,0.55906857 735.96193,-63.098895 c 22.60023,-11.761851 41.71477,-20.7617 42.47683,-19.999664 2.41725,2.417278 -4.66863,53.753245 -10.68972,77.4449476 -11.19237,44.0396284 -38.85931,90.7594374 -68.38657,115.4810414 -21.96814,18.39277 -50.8136,33.90049 -80.86383,43.47352 -15.29031,4.87099 -27.08751,10.01012 -26.216,11.42027 3.61329,5.84638 43.40066,23.19827 62.27289,27.15816 19.48651,4.08877 50.31511,3.21537 50.31511,-1.42547 0,-1.09563 -7.76251,-6.25952 -17.25003,-11.47531 l -17.25003,-9.48325 19.39289,-9.34144 c 18.27314,-8.80207 63.61503,-40.25946 67.80814,-47.04408 7.83086,-12.67059 85.05726,11.97217 147.82177,47.16958 110.69722,62.07736 203.44522,150.87125 229.76162,219.96628 6.5651,17.23694 7.4845,23.71571 7.2148,50.84025 -0.371,37.30492 -6.7837,95.2778 -16.182,146.29017 -34.1854,185.55175 -125.8313,334.22992 -267.03144,433.20819 -101.73803,71.3162 -240.85075,119.1125 -393.30486,135.1317 -44.15174,4.6393 -130.68786,7.2639 -172.15903,5.2216 z M -83.700787,372.6858 c 42.760131,-28.99526 84.51314246,-42.35331 147.142857,-47.07554 14.142857,-1.06635 29.211885,-3.74249 33.486743,-5.94697 21.746827,-11.21458 16.739917,-34.86032 -11.830515,-55.87126 -6.410914,-4.71466 -11.656228,-9.78692 -11.656228,-11.27174 0,-5.32078 8.3516,-5.74986 18.468885,-0.94889 14.135605,6.7078 24.444685,25.26169 31.374175,56.46591 1.49268,6.72183 3.05448,7.89092 9.54231,7.14286 7.58626,-0.87471 7.74289,-1.28314 7.0956,-18.50434 -0.80071,-21.3044 -9.79048,-46.59523 -21.16897,-59.55463 l -8.38791,-9.55331 13.18565,-9.07198 c 56.93083,-39.16943 182.11095,-73.98081 298.56863,-83.02902 42.39634,-3.294 44.8416,-3.8277 60.60734,-13.22799 9.03572,-5.38752 16.42858,-10.54594 16.42858,-11.46316 0,-2.80871 -93.37855,1.66003 -134.28572,6.4264 -72.73274,8.47457 -149.63617,26.66184 -192.048,45.41835 -8.40603,3.71756 -30.6698,16.00091 -49.475,27.29634 -59.012685,35.44626 -109.447227,57.96834 -163.59529,73.05528 l -28.322112,7.8912 -11.851228,23.89606 c -6.518175,13.14283 -11.851226,25.80572 -11.851226,28.13977 0,12.01832 36.680286,-3.33668 56.533303,-23.66583 25.218354,-25.82317 55.299926,-33.19505 83.415326,-20.44202 24.702285,11.20485 29.795714,21.2714 12.194228,24.10042 -46.758114,7.51526 -89.8802,20.70078 -131.994714,40.36023 -30.667667,14.31597 -37.290997,19.31455 -37.290997,28.14326 0,12.90506 7.99438,13.30631 25.714283,1.2906 z"
         style="opacity:0.454248;fill:#134431;fill-opacity:1;stroke:#144734;stroke-width:8.26097;stroke-opacity:1" />
      <path
         transform="scale(0.26458333)"
         id="path872"
         d="M 1341.2508,404.28571 V 47.142857 h 72.8572 72.8571 V 342.85714 638.57143 h 91.4286 91.4286 l -0.062,7.85714 c -0.034,4.32143 -2.5777,30.35714 -5.6522,57.85714 -3.0745,27.5 -5.618,51.60715 -5.6521,53.57143 -0.049,2.81349 -33.7145,3.57143 -158.6337,3.57143 h -158.5715 z"
         style="opacity:0.454248;fill:#134431;fill-opacity:1;stroke:#144734;stroke-width:8.26097;stroke-opacity:1" />
      <path
         transform="scale(0.26458333)"
         id="path874"
         d="M 1721.2508,404.28571 V 47.142857 h 72.8572 72.8571 V 404.28571 761.42857 h -72.8571 -72.8572 z"
         style="opacity:0.454248;fill:#134431;fill-opacity:1;stroke:#144734;stroke-width:8.26097;stroke-opacity:1" />
      <path
         transform="scale(0.26458333)"
         id="path876"
         d="M 1946.9651,404.28571 V 47.142857 h 81.0955 81.0955 l 1.4279,6.428572 c 0.7854,3.535714 11.8186,46.928571 24.5184,96.428571 21.686,84.52579 52.9584,216.2974 70.5189,297.14286 7.0986,32.6806 10.7309,43.13531 13.8313,39.80951 0.6348,-0.68094 -0.5447,-25.66666 -2.6212,-55.5238 -5.4444,-78.28594 -9.8663,-215.40591 -9.8663,-305.95052 V 47.142857 h 67.1429 67.1428 V 404.28571 761.42857 h -81.1871 -81.1872 l -15.7837,-65 c -17.4054,-71.67866 -37.1853,-159.9364 -67.2921,-300.25666 -10.9038,-50.81971 -20.5667,-93.14114 -21.4732,-94.0476 -4.591,-4.59098 -4.9023,7.31212 -1.7905,68.45049 1.8635,36.61243 4.1231,139.53234 5.0213,228.71091 l 1.6332,162.14286 h -66.1132 -66.1132 z"
         style="opacity:0.454248;fill:#134431;fill-opacity:1;stroke:#144734;stroke-width:8.26097;stroke-opacity:1" />
      <path
         transform="scale(0.26458333)"
         id="path878"
         d="m 2556.9651,768.83469 c -68.438,-13.30886 -108.1973,-50.21709 -128.0971,-118.91152 -12.0407,-41.5648 -13.3159,-65.24143 -13.3066,-247.06603 0.011,-210.02969 1.7318,-226.36383 29.4978,-279.96662 20.5097,-39.59446 56.1918,-67.747018 101.9059,-80.402007 26.2717,-7.272773 99.3632,-7.285555 125.7143,-0.02197 56.3217,15.524808 92.3863,48.746862 109.7,101.053447 9.5341,28.80375 13.0307,54.3641 13.1005,95.76574 l 0.057,33.57141 h -72.5035 -72.5036 l -1.3114,-42.14285 c -1.9141,-61.51333 -8.6165,-73.57143 -40.8941,-73.57143 -21.9263,0 -30.3065,6.30139 -37.7737,28.40367 -4.375,12.94986 -4.9762,34.36376 -5.7782,205.84138 -0.9131,195.23715 0.1157,220.20695 9.9252,240.87883 8.8522,18.65455 33.2799,26.12377 52.6602,16.10183 15.7636,-8.15168 20.6449,-24.78988 21.9437,-74.79714 L 2650.4328,530 h 74.4205 74.4204 l -1.9096,39.28571 c -3.7072,76.26595 -18.8265,121.0974 -52.0424,154.31466 -19.341,19.3418 -45.9158,33.9332 -76.928,42.23886 -23.5738,6.31351 -85.7686,7.98546 -111.4286,2.99546 z"
         style="opacity:0.454248;fill:#134431;fill-opacity:1;stroke:#144734;stroke-width:8.26097;stroke-opacity:1" />
      <path
         transform="scale(0.26458333)"
         id="path880"
         d="M 2855.5365,404.28571 V 47.142857 h 158.5715 158.5714 V 108.57143 170 h -85.7143 -85.7143 v 77.14286 77.14285 h 81.4286 81.4286 V 387.14286 450 h -81.4286 -81.4286 v 94.28571 94.28572 h 94.2143 94.2143 l -1.3337,7.85714 c -2.1553,12.69686 -15.6663,109.68706 -15.6663,112.46223 0,1.44846 -68.0663,2.53777 -158.5714,2.53777 h -158.5715 z"
         style="opacity:0.454248;fill:#134431;fill-opacity:1;stroke:#144734;stroke-width:8.26097;stroke-opacity:1" />
      <path
         transform="scale(0.26458333)"
         id="path882"
         d="M 3006.9651,1009.9257 V 866.32339 l 47.7494,2.06133 c 26.3424,1.1372 52.646,3.74834 58.6715,5.82432 45.4728,15.66664 64.8851,62.35985 61.2052,147.21956 -3.0382,70.0634 -17.71,101.9691 -55.4294,120.5383 -18.5845,9.1491 -19.7116,9.3285 -65.5532,10.4352 l -46.6435,1.126 z m 95.2225,100.3783 c 19.8656,-12.2777 30.5193,-49.1685 30.4702,-105.5107 -0.042,-48.64058 -9.0963,-80.10805 -26.6522,-92.6305 -7.2254,-5.15383 -13.773,-6.65079 -32.6119,-7.45599 l -23.5714,-1.00747 v 107.81176 107.8118 l 21.0745,-1.3525 c 14.9853,-0.9617 24.0264,-3.1768 31.2908,-7.6664 z"
         style="opacity:0.454248;fill:#134431;fill-opacity:1;stroke:#144734;stroke-width:8.26097;stroke-opacity:1" />
      <path
         transform="scale(0.26458333)"
         id="path884"
         d="m 2766.9651,1150.3841 c 0,-1.8218 50.6838,-220.06565 64.3093,-276.91517 1.5142,-6.31777 2.4665,-6.50439 29.1586,-5.71428 l 27.5933,0.81678 33.5989,139.99997 c 18.4794,77 33.6692,140.9643 33.7551,142.1429 0.086,1.1786 -9.4371,2.1428 -21.1622,2.1428 h -21.3185 l -2.7324,-10.7142 c -1.5029,-5.8929 -3.5964,-15.2143 -4.6522,-20.7143 -1.0558,-5.5 -3.8359,-18.6786 -6.1781,-29.2857 l -4.2584,-19.2858 h -35.4308 c -34.4045,0 -35.4733,0.1863 -36.8952,6.4286 -0.8055,3.5357 -4.0526,18.6429 -7.216,33.5714 -3.1633,14.9286 -6.4105,30.0358 -7.2159,33.5715 -1.3469,5.9129 -3.0643,6.4285 -21.4099,6.4285 -10.9701,0 -19.9456,-1.1128 -19.9456,-2.473 z m 120,-114.129 c 0,-4.5796 -25.9553,-127.44854 -27.1818,-128.67505 -1.8775,-1.87749 -2.7215,1.71044 -15.5377,66.05787 -6.5017,32.64368 -11.0451,60.60798 -10.0965,62.14288 2.0669,3.3443 52.816,3.8 52.816,0.4743 z"
         style="opacity:0.454248;fill:#134431;fill-opacity:1;stroke:#144734;stroke-width:8.26097;stroke-opacity:1" />
      <path
         transform="scale(0.26458333)"
         id="path886"
         d="M 2566.9651,1010.3355 V 867.14286 l 23.5714,0.12454 c 43.8637,0.23175 80.2023,4.48357 92.6669,10.84256 23.1256,11.79778 38.8026,33.89821 46.9419,66.17575 5.4105,21.45568 5.3826,104.42829 -0.042,125.71429 -10.0145,39.2953 -23.6203,58.5168 -50.9414,71.9669 -18.5845,9.1491 -19.7115,9.3285 -65.5531,10.4352 l -46.6436,1.126 z m 95.2225,99.9685 c 22.1805,-13.7083 32.4834,-55.3845 29.7409,-120.304 -1.1239,-26.60487 -3.0499,-39.78459 -7.551,-51.67226 -10.0634,-26.57819 -22.0656,-34.04203 -54.7412,-34.04203 h -19.814 v 107.51859 107.5186 l 21.0745,-1.3525 c 14.9853,-0.9617 24.0264,-3.1768 31.2908,-7.6664 z"
         style="opacity:0.454248;fill:#134431;fill-opacity:1;stroke:#144734;stroke-width:8.26097;stroke-opacity:1" />
      <path
         transform="scale(0.26458333)"
         id="path888"
         d="M 2452.6794,1010 V 867.14286 h 20 20 V 1010 1152.8571 h -20 -20 z"
         style="opacity:0.454248;fill:#134431;fill-opacity:1;stroke:#144734;stroke-width:8.26097;stroke-opacity:1" />
      <path
         transform="scale(0.26458333)"
         id="path890"
         d="M 2226.9651,1009.5539 V 866.25065 l 50.7143,1.90576 c 27.8929,1.04818 55.6703,3.2751 61.7277,4.94872 15.5383,4.29315 34.7174,22.89862 40.2044,39.00199 5.1712,15.17682 5.8472,42.91376 1.4333,58.80939 -3.2842,11.82698 -19.828,32.08809 -28.4303,34.81839 -4.5882,1.4562 -3.3996,3.5721 8.4946,15.122 17.0106,16.5181 19.2702,26.0575 20.9459,88.4288 l 1.1707,43.5714 h -19.3319 c -23.1198,0 -21.4485,3.9406 -24.2358,-57.1428 -1.0916,-23.9237 -3.5255,-45.3955 -5.7603,-50.8171 -5.2073,-12.6335 -18.3055,-17.7543 -45.4123,-17.7543 h -21.5203 V 1090 v 62.8571 h -20 -20 z m 94.0826,-21.7012 c 16.2164,-8.26895 21.2876,-17.83268 21.4713,-40.49262 0.1271,-15.68775 -1.067,-21.46722 -5.757,-27.86249 -9.62,-13.11796 -22.6559,-18.05957 -47.654,-18.06458 l -22.1429,-0.004 v 45.71429 45.71428 l 22.1429,-0.005 c 15.4334,-0.003 25.1113,-1.51812 31.9397,-5 z"
         style="opacity:0.454248;fill:#134431;fill-opacity:1;stroke:#144734;stroke-width:8.26097;stroke-opacity:1" />
      <path
         transform="scale(0.26458333)"
         id="path892"
         d="m 2031.5184,1150.1315 c -17.9886,-7.2281 -28.2023,-17.1559 -36.4888,-35.4674 -6.5428,-14.4584 -6.648,-16.2973 -7.4982,-131.09267 l -0.8622,-116.42857 h 21.5765 21.5766 l 0.063,110.71428 c 0.058,102.58236 0.4614,111.59226 5.4898,122.66766 6.5401,14.4052 17.7342,20.9038 36.0076,20.9038 16.5255,0 28.2534,-6.6936 34.8223,-19.8745 4.5183,-9.0664 5.1338,-21.8552 5.8848,-122.26839 l 0.8387,-112.14285 h 21.7451 21.7451 l -2.0422,112.92026 c -2.2336,123.49868 -3.2652,131.66788 -19.034,150.73408 -14.652,17.7159 -28.1928,23.0393 -61.2342,24.0731 -23.2469,0.7273 -31.1839,-0.1557 -42.5896,-4.7388 z"
         style="opacity:0.454248;fill:#134431;fill-opacity:1;stroke:#144734;stroke-width:8.26097;stroke-opacity:1" />
      <path
         transform="scale(0.26458333)"
         id="path894"
         d="m 1795.9416,1149.5462 c -32.0215,-15.8502 -46.4597,-57.6841 -46.6826,-135.2605 -0.1922,-66.87306 12.0759,-108.8272 38.4156,-131.373 27.4819,-23.52346 75.0777,-24.84329 103.8726,-2.88038 11.2291,8.56491 23.2648,32.22985 25.7761,50.68197 l 1.8471,13.57142 h -20.1034 -20.1034 l -3.3456,-13.94614 c -2.0775,-8.66006 -6.5289,-16.99593 -11.744,-21.9923 -7.0938,-6.7963 -10.8679,-8.06954 -24.2965,-8.19671 -14.7383,-0.13957 -16.5986,0.61349 -25.5016,10.32297 -15.3596,16.75098 -19.1482,33.69727 -20.6536,92.38357 -1.8623,72.6001 5.0582,102.9923 26.023,114.2826 10.8239,5.829 32.7768,4.8676 40.8397,-1.7886 9.4851,-7.8301 15.4449,-27.4585 17.229,-56.7425 L 1879.2569,1030 h -21.8602 -21.8602 v -17.1429 -17.14281 h 41.4286 41.4286 v 78.57141 78.5714 h -15.7143 -15.7143 V 1140 c 0,-7.0714 -1.0439,-12.8571 -2.3198,-12.8571 -1.2759,0 -5.2601,3.9768 -8.8537,8.8374 -14.3897,19.4631 -54.2537,26.2357 -79.85,13.5659 z"
         style="opacity:0.454248;fill:#134431;fill-opacity:1;stroke:#144734;stroke-width:8.26097;stroke-opacity:1" />
      <path
         transform="scale(0.26458333)"
         id="path896"
         d="M 1558.3937,1010 V 867.14286 h 68.5714 68.5714 v 18.57143 18.57142 h -48.5714 -48.5714 v 40 40 h 47.1428 47.1429 v 18.57139 18.5715 h -47.1429 -47.1428 v 47.0798 47.0798 l 52.1428,0.7773 52.1429,0.7774 -2.3923,17.8571 -2.3923,17.8571 h -69.7506 -69.7505 z"
         style="opacity:0.454248;fill:#134431;fill-opacity:1;stroke:#144734;stroke-width:8.26097;stroke-opacity:1" />
      <path
         transform="scale(0.26458333)"
         id="path898"
         d="m 1377.2243,1151.2193 c -24.9214,-9.1311 -43.1795,-33.1314 -46.4939,-61.1167 l -1.7041,-14.3883 h 20.0588 20.0588 l 3.2676,12.9769 c 1.8222,7.2365 7.3437,17.387 12.482,22.9465 7.5099,8.1253 11.8572,10.2485 23.5002,11.4769 26.3267,2.7776 44.2712,-13.7504 44.2813,-40.7857 0.01,-25.5458 -11.8571,-40.2185 -48.5656,-60.0499 -36.3664,-19.6467 -49.3043,-30.0419 -58.5635,-47.05423 -6.9948,-12.85178 -8.1973,-18.24619 -8.1534,-36.57844 0.042,-17.64124 1.4308,-24.20242 7.7309,-36.53024 13.855,-27.11113 41.6252,-40.27773 77.822,-36.89762 37.0628,3.46098 59.1611,24.26465 65.019,61.2101 l 1.9254,12.14286 h -21.4624 c -19.6706,0 -21.4623,-0.48469 -21.4623,-5.80606 0,-10.00274 -7.7787,-24.97135 -15.6605,-30.13573 -8.636,-5.65855 -29.0745,-6.31247 -38.564,-1.23383 -8.1707,4.37282 -14.3469,19.54026 -14.3469,35.23276 0,20.24417 8.2127,29.12188 45.2523,48.91623 40.3734,21.5759 52.1555,31.4534 62.369,52.2867 6.8762,14.0261 8.0429,19.8272 7.9062,39.3114 -0.1854,26.4233 -4.4372,38.3186 -19.7577,55.2765 -14.3697,15.9056 -34.9334,23.3567 -63.7341,23.0936 -12.1197,-0.1109 -27.0619,-2.0429 -33.2051,-4.2937 z"
         style="opacity:0.454248;fill:#134431;fill-opacity:1;stroke:#144734;stroke-width:8.26097;stroke-opacity:1" />
    </g>
  </g>
</svg>
