<?xml version="1.0" encoding="UTF-8" standalone="no"?>
<svg
   xmlns:dc="http://purl.org/dc/elements/1.1/"
   xmlns:cc="http://creativecommons.org/ns#"
   xmlns:rdf="http://www.w3.org/1999/02/22-rdf-syntax-ns#"
   xmlns:svg="http://www.w3.org/2000/svg"
   xmlns="http://www.w3.org/2000/svg"
   xmlns:sodipodi="http://sodipodi.sourceforge.net/DTD/sodipodi-0.dtd"
   xmlns:inkscape="http://www.inkscape.org/namespaces/inkscape"
   inkscape:label="logo"
   sodipodi:docname="logo-lince-simple.svg"
   inkscape:version="1.0 (4035a4fb49, 2020-05-01)"
   id="svg8"
   version="1.1"
   width="407"
   height="341"
   style="">
  <defs
     id="defs2">
    <clipPath
       clipPathUnits="userSpaceOnUse"
       id="clipEmfPath1">
      <path
         d="M 0,0 H 106.16995 V 46.492724 H 0 Z"
         id="path849" />
    </clipPath>
    <pattern
       id="EMFhbasepattern"
       patternUnits="userSpaceOnUse"
       width="6"
       height="6"
       x="0"
       y="0" />
  </defs>
  <sodipodi:namedview
     inkscape:window-maximized="0"
     inkscape:window-y="0"
     inkscape:window-x="-5"
     inkscape:window-height="830"
     inkscape:window-width="831"
     showgrid="false"
     inkscape:document-rotation="0"
     inkscape:current-layer="svg8"
     inkscape:document-units="mm"
     inkscape:cy="187.99065"
     inkscape:cx="139.49788"
     inkscape:zoom="1.5540715"
     inkscape:pageshadow="2"
     inkscape:pageopacity="0.0"
     borderopacity="1.0"
     id="base" />
  <metadata
     id="metadata5">
    <rdf:RDF>
      <cc:Work
         rdf:about="">
        <dc:format>image/svg+xml</dc:format>
        <dc:type
           rdf:resource="http://purl.org/dc/dcmitype/StillImage" />
        <dc:title></dc:title>
      </cc:Work>
    </rdf:RDF>
  </metadata>
  <path
     inkscape:label="logo"
     inkscape:export-ydpi="36.310001"
     inkscape:export-xdpi="36.310001"
     inkscape:export-filename="C:\work\lige\front\src\assets\icons\logo-lince-512x512.png"
     style="display:inline;fill:#124734;fill-opacity:1;fill-rule:nonzero;stroke:#ffffff;stroke-width:1.5;stroke-miterlimit:4;stroke-dasharray:none;stroke-opacity:1"
     d="m 181.56421,333.66236 c -4.50845,-0.12638 -8.93896,-0.36112 -12.788,-0.6777 -2.28971,-0.18834 -3.31982,-0.29404 -3.37179,-0.34603 -0.0188,-0.0188 0.46496,-0.23633 1.0748,-0.48363 22.85713,-9.26933 38.84373,-20.0333 48.22609,-32.47127 7.60747,-10.08504 10.54589,-21.36969 8.27654,-31.7851 -0.29657,-1.36111 -0.72446,-2.79651 -1.07362,-3.60153 -1.38824,-3.20075 -4.63653,-6.7564 -9.52737,-10.42892 -2.46447,-1.85056 -6.34191,-4.3177 -8.99552,-5.72371 -0.60951,-0.32294 -1.10911,-0.6072 -1.11021,-0.6317 -0.006,-0.13995 1.06316,-1.27072 1.86863,-1.97574 6.65894,-5.82838 21.90666,-13.46901 42.50278,-21.29813 1.54552,-0.58749 2.82892,-1.08789 2.85198,-1.11197 0.0567,-0.0594 -4.74428,0.0463 -6.8783,0.15135 -14.82786,0.72982 -28.01041,3.56325 -39.96963,8.59098 -15.43658,6.48963 -28.56109,16.71586 -38.72091,30.17021 -4.09232,5.41933 -7.13688,10.43234 -11.14913,18.35753 -1.58532,3.13139 -1.99163,3.74994 -3.28053,4.99421 -1.98292,1.91429 -4.55336,3.08615 -7.82438,3.56714 -3.45844,0.50855 -7.80201,0.15647 -11.88924,-0.96372 -2.20872,-0.60535 -6.34777,-2.27422 -9.59154,-3.86734 -5.72378,-2.81114 -9.66821,-5.71937 -11.83045,-8.72264 -0.62033,-0.86164 -1.30544,-2.19457 -1.5111,-2.93999 l -0.14038,-0.5088 -0.64063,-0.23767 c -2.10586,-0.78126 -5.36795,-2.3305 -7.35116,-3.49121 -3.389313,-1.98366 -5.847506,-3.85612 -8.351653,-6.36165 -2.525468,-2.52685 -4.386711,-5.06188 -5.701348,-7.76526 -0.415224,-0.85384 -0.919883,-2.06036 -0.919883,-2.19918 0,-0.0221 0.287472,0.22822 0.638832,0.55635 2.165993,2.02281 5.644221,3.31875 10.182741,3.79395 1.329389,0.13922 5.08036,0.14012 6.458061,10e-4 5.8293,-0.58623 10.99256,-2.04534 16.06335,-4.53945 4.15767,-2.04498 7.58297,-4.45577 10.6126,-7.46934 6.02326,-5.99136 9.40769,-13.39237 10.14578,-22.18671 0.11007,-1.31142 0.10995,-5.151 0,-6.58891 -0.43541,-5.68368 -2.2183,-11.6842 -4.82414,-16.23628 -0.73043,-1.27596 -1.81099,-2.8694 -2.74179,-4.04311 -1.02215,-1.28889 -3.29144,-3.57005 -4.55242,-4.57622 -5.44396,-4.34388 -12.19226,-6.78977 -20.29938,-7.35744 -1.77374,-0.12415 -5.896279,-0.0548 -7.591288,0.12791 -8.801706,0.94826 -16.442967,3.8335 -21.057151,7.95089 -0.436722,0.38971 -1.530099,1.44284 -2.429732,2.3403 -4.252576,4.24235 -6.211165,7.02245 -7.342093,10.42171 -1.685261,5.06544 -1.195867,10.71889 2.03043,23.45545 0.531734,2.09914 0.986211,3.90142 1.00996,4.00504 l 0.0432,0.18841 -0.492035,-0.21616 c -0.27063,-0.11888 -1.133732,-0.53338 -1.918032,-0.92111 -8.713588,-4.30771 -16.213319,-10.9219 -21.869507,-19.28729 -2.266937,-3.35274 -4.280286,-7.06583 -5.445046,-10.04199 l -0.450286,-1.15056 -0.352205,-0.003 c -1.218885,-0.01 -3.587836,-0.5023 -4.312117,-0.89651 -1.008076,-0.54868 -1.955629,-1.94024 -3.932283,-5.77492 -1.498267,-2.90663 -1.706619,-3.17105 -2.964854,-3.76259 -1.481585,-0.69653 -4.74572,-1.46649 -7.186102,-1.69505 -0.346013,-0.0324 -0.773274,-0.13153 -0.949474,-0.22019 -0.74153,-0.37328 -2.487652,-2.29296 -4.372752,-4.80738 -1.326308,-1.76881 -2.814522,-3.90888 -2.814522,-4.04702 0,-0.12582 1.551105,-4.13001 2.575182,-6.64791 3.396773,-8.35162 6.311894,-13.04017 12.151803,-19.54443 1.549481,-1.72576 6.52823,-6.70861 8.928973,-8.93634 6.478298,-6.01142 13.867204,-12.41428 27.503794,-23.83343 l 3.389136,-2.83803 0.434758,-1.25822 C 72.659535,102.43468 82.283743,90.12465 96.286238,79.707953 110.90593,68.832118 130.30592,59.825476 153.2862,53.245126 c 8.91865,-2.553841 18.43148,-4.722879 26.4647,-6.034278 2.20111,-0.359329 2.77922,-0.422627 4.61349,-0.505144 11.27749,-0.507284 26.27129,-3.069991 41.05971,-7.017896 24.41366,-6.517399 49.98623,-17.145174 73.6701,-30.6167205 1.00375,-0.5709474 1.84917,-1.038087 1.87869,-1.038087 0.12596,0 -0.17137,5.0432845 -0.47976,8.1365365 -1.95652,19.625033 -8.91957,34.567311 -20.79826,44.631774 -7.01498,5.943558 -15.80489,10.21998 -26.37972,12.834132 -0.92269,0.228081 -1.71115,0.425379 -1.75211,0.438422 -0.0937,0.02989 1.62883,1.160703 3.22315,2.116027 1.51348,0.906874 4.85829,2.558414 6.41384,3.16691 5.81728,2.275581 11.65029,3.160111 16.70925,2.533806 1.01287,-0.125407 2.42246,-0.389499 2.76673,-0.518352 0.15295,-0.05728 -0.642,-0.545586 -4.8143,-2.95735 l -4.99753,-2.888777 0.74606,-0.183605 c 5.34781,-1.316223 14.00176,-6.742283 22.80396,-14.29816 l 1.58978,-1.364688 1.21421,0.05519 c 10.93388,0.496816 27.75522,7.279207 45.34711,18.283995 16.99636,10.632251 31.97966,23.482059 41.76001,35.813839 6.63018,8.35977 10.72653,16.47737 11.87771,23.53761 0.41936,2.57195 0.41936,4.55867 -4e-5,11.5001 -3.01021,49.82398 -17.57695,89.89327 -43.74401,120.3283 -20.14795,23.43415 -47.28704,40.95029 -80.2285,51.78114 -22.61632,7.43601 -46.8434,11.56972 -73.85784,12.60185 -2.97343,0.11359 -13.78091,0.16543 -16.80842,0.0805 z M 71.105537,130.73191 c 0.336795,-0.15994 0.931701,-0.54906 1.322017,-0.86469 0.825616,-0.66768 2.742111,-1.93661 4.652108,-3.08019 7.491858,-4.48574 14.889254,-7.412 22.511113,-8.90497 3.939755,-0.77171 6.872395,-1.09678 13.306375,-1.47485 6.90239,-0.40559 8.43457,-0.83228 10.52864,-2.93204 0.74539,-0.74739 1.18051,-1.38121 1.48331,-2.16062 0.32391,-0.83374 0.32465,-1.9773 0.002,-2.9211 -0.37956,-1.1099 -0.82932,-1.8055 -2.77311,-4.28885 -1.18705,-1.51656 -1.38449,-1.67692 -4.87475,-3.95934 -0.86902,-0.568272 -1.5421,-1.157126 -1.81562,-1.58843 -0.34109,-0.537856 -0.34284,-1.170224 -0.005,-1.697962 0.37457,-0.584557 0.51719,-0.672271 1.2437,-0.764812 2.63149,-0.335218 5.27453,0.828573 7.29962,3.214154 2.43636,2.87005 4.53942,7.9975 4.89766,11.9409 0.12211,1.34417 0.21704,1.68865 0.57469,2.08536 0.38869,0.43113 0.85095,0.63665 1.43728,0.63896 1.30628,0.006 2.34029,-0.95718 2.34146,-2.17908 8.4e-4,-0.5538 -0.27155,-2.90738 -0.50424,-4.36184 -0.6512,-4.07051 -1.71156,-7.603822 -3.07923,-10.26053 -1.26817,-2.463398 -3.30676,-4.719972 -5.02235,-5.559317 l -0.4767,-0.233225 0.3268,-0.281859 c 2.90971,-2.509391 9.99068,-6.666716 15.25776,-8.958008 11.53921,-5.019822 24.22705,-8.926798 38.12423,-11.739622 12.58262,-2.546762 26.06015,-4.150961 37.67195,-4.483996 l 2.65133,-0.07605 4.35279,-2.702725 c 2.39405,-1.486511 4.39055,-2.739848 4.43668,-2.785187 0.0972,-0.09552 -5.39694,-0.02836 -8.76564,0.107194 -31.76134,1.277737 -59.08259,6.291222 -76.59694,14.055631 -3.10126,1.37484 -5.79478,2.753572 -7.49448,3.836182 -4.741,3.019743 -7.21378,4.52498 -10.73686,6.535834 -11.40727,6.510833 -22.73051,11.513181 -33.468802,14.785714 -2.60226,0.793034 -3.576837,1.059524 -7.538187,2.061154 -1.977665,0.50005 -3.605776,0.92051 -3.618045,0.93434 -0.139809,0.15769 -6.271876,12.56387 -6.344834,12.83669 -0.194977,0.72897 0.342397,1.32211 1.1981,1.32239 1.257132,8.4e-4 4.6802,-1.27644 9.059847,-3.37949 l 1.460532,-0.70135 0.402404,-0.71697 c 1.672769,-2.98041 4.768238,-5.72513 8.735456,-7.74558 1.44583,-0.73634 3.149674,-1.40736 4.250139,-1.67383 4.35338,-1.05412 10.85212,0.28561 15.11049,3.11507 2.69683,1.79189 3.43285,3.74938 1.88195,5.00507 -0.32275,0.26131 -0.42269,0.29358 -1.06903,0.34511 -10.88944,0.86852 -26.226923,5.70867 -39.885755,12.58699 -3.264798,1.64411 -3.779728,1.95053 -4.413074,2.62618 -1.506819,1.60745 -1.569621,3.8604 -0.128017,4.59276 0.593358,0.30145 1.238014,0.25544 2.090002,-0.14915 z"
     id="path847"
     sodipodi:nodetypes="cssssssssccsscssssssssscssssssscssscsssscssssscscssccssssscssssscssssssssssssssssscsscsssssssscccsssssscssscssssccssscsssccsscssssssccscssssscssscc"
     class="logo-color" />
</svg>
