<?xml version="1.0" encoding="UTF-8" standalone="no"?>
<svg
   xmlns:dc="http://purl.org/dc/elements/1.1/"
   xmlns:cc="http://creativecommons.org/ns#"
   xmlns:rdf="http://www.w3.org/1999/02/22-rdf-syntax-ns#"
   xmlns:svg="http://www.w3.org/2000/svg"
   xmlns="http://www.w3.org/2000/svg"
   xmlns:sodipodi="http://sodipodi.sourceforge.net/DTD/sodipodi-0.dtd"
   xmlns:inkscape="http://www.inkscape.org/namespaces/inkscape"
   style=""
   height="341"
   width="407"
   version="1.1"
   id="svg8"
   inkscape:version="1.0 (4035a4fb49, 2020-05-01)"
   sodipodi:docname="logo-lince-simple.svg">
  <defs
     id="defs2">
    <clipPath
       id="clipEmfPath1"
       clipPathUnits="userSpaceOnUse">
      <path
         id="path849"
         d="M 0,0 H 106.16995 V 46.492724 H 0 Z" />
    </clipPath>
    <pattern
       y="0"
       x="0"
       height="6"
       width="6"
       patternUnits="userSpaceOnUse"
       id="EMFhbasepattern" />
  </defs>
  <sodipodi:namedview
     id="base"
     borderopacity="1.0"
     inkscape:pageopacity="0.0"
     inkscape:pageshadow="2"
     inkscape:zoom="0.8359833"
     inkscape:cx="200.27144"
     inkscape:cy="262.12073"
     inkscape:document-units="mm"
     inkscape:current-layer="svg8"
     inkscape:document-rotation="0"
     showgrid="false"
     inkscape:window-width="1375"
     inkscape:window-height="788"
     inkscape:window-x="100"
     inkscape:window-y="26"
     inkscape:window-maximized="0" />
  <metadata
     id="metadata5">
    <rdf:RDF>
      <cc:Work
         rdf:about="">
        <dc:format>image/svg+xml</dc:format>
        <dc:type
           rdf:resource="http://purl.org/dc/dcmitype/StillImage" />
        <dc:title></dc:title>
      </cc:Work>
    </rdf:RDF>
  </metadata>
  <g
     sodipodi:insensitive="true"
     inkscape:label="simple"
     id="layer1"
     class="logo-color">
    <path
       inkscape:label="logo"
       inkscape:export-ydpi="36.310001"
       inkscape:export-xdpi="36.310001"
       inkscape:export-filename="C:\work\lige\front\src\assets\icons\logo-lince-512x512.png"
       style="display:inline;fill:#124734;fill-opacity:1;stroke-width:0.0846667"
       d="m 179.95855,335.95021 c -4.55063,-0.12751 -9.02261,-0.3645 -12.90767,-0.68405 -2.31113,-0.19009 -3.35088,-0.29678 -3.40334,-0.34926 -0.0189,-0.0189 0.46932,-0.23854 1.08486,-0.48816 23.07103,-9.35606 39.20722,-20.22077 48.67738,-32.77513 7.67867,-10.17942 10.64458,-21.56966 8.35399,-32.08255 -0.29934,-1.37384 -0.73123,-2.82267 -1.08366,-3.63522 -1.40123,-3.23071 -4.67991,-6.81963 -9.61652,-10.52651 -2.48754,-1.86788 -6.40126,-4.35811 -9.07971,-5.77727 -0.61521,-0.32597 -1.11948,-0.61289 -1.12059,-0.63762 -0.006,-0.14126 1.0731,-1.28261 1.88611,-1.99423 6.72126,-5.88292 22.11166,-13.59505 42.90052,-21.49743 1.55998,-0.59299 2.85538,-1.09807 2.87866,-1.12238 0.0573,-0.0599 -4.78866,0.0467 -6.94266,0.15276 -14.96662,0.73666 -28.27253,3.5966 -40.34367,8.67138 -15.58102,6.55036 -28.82835,16.87229 -39.08325,30.45254 -4.13062,5.47005 -7.20367,10.52996 -11.25347,18.52931 -1.60015,3.16069 -2.01026,3.78504 -3.31122,5.04096 -2.00147,1.9322 -4.59597,3.11502 -7.8976,3.60051 -3.4908,0.51331 -7.87502,0.15793 -12.0005,-0.97274 -2.22939,-0.61101 -6.40717,-2.2955 -9.6813,-3.90353 -5.77734,-2.83744 -9.75867,-5.77289 -11.94114,-8.80426 -0.62614,-0.8697 -1.31766,-2.2151 -1.52525,-2.9675 l -0.14169,-0.51356 -0.64662,-0.2399 c -2.12557,-0.78857 -5.418185,-2.35231 -7.419955,-3.52388 -3.42103,-2.00222 -5.90223,-3.8922 -8.42981,-6.42118 -2.5491,-2.5505 -4.42776,-5.10924 -5.7547,-7.83792 -0.41911,-0.86184 -0.92849,-2.07964 -0.92849,-2.21977 0,-0.0223 0.29016,0.23036 0.64481,0.56156 2.18626,2.04173 5.69704,3.3498 10.27803,3.82946 1.34183,0.14051 5.1279,0.14142 6.51849,0.002 5.883855,-0.5917 11.095435,-2.06447 16.213665,-4.58191 4.19658,-2.06412 7.65393,-4.49747 10.71191,-7.53925 6.07963,-6.04743 9.49573,-13.5177 10.24073,-22.39433 0.1111,-1.32369 0.11098,-5.19921 0,-6.65057 -0.43949,-5.73687 -2.23906,-11.79354 -4.86929,-16.38821 -0.73726,-1.2879 -1.82794,-2.89625 -2.76745,-4.08095 -1.03171,-1.30095 -3.32224,-3.60346 -4.59502,-4.61904 -5.4949,-4.38453 -12.30635,-6.85332 -20.48933,-7.42629 -1.79034,-0.12535 -5.951455,-0.0553 -7.662325,0.12904 -8.88407,0.95714 -16.59684,3.86938 -21.2542,8.02531 -0.44081,0.39334 -1.54442,1.45633 -2.45247,2.36219 -4.29237,4.28205 -6.26929,7.08817 -7.4108,10.51924 -1.70103,5.11283 -1.20706,10.81919 2.04943,23.67495 0.53671,2.11878 0.99544,3.93791 1.01941,4.04251 l 0.0436,0.19018 -0.49664,-0.21819 c -0.27316,-0.12 -1.14434,-0.53838 -1.93598,-0.92973 -8.79513,-4.34802 -16.36504,-11.02411 -22.07416,-19.46777 -2.28815,-3.38412 -4.32034,-7.13197 -5.496,-10.13598 l -0.4545,-1.16131 -0.3555,-0.003 c -1.23029,-0.01 -3.62141,-0.507 -4.35247,-0.9049 -1.01751,-0.5538 -1.97393,-1.95839 -3.96908,-5.82895 -1.51229,-2.93383 -1.72259,-3.20073 -2.9926,-3.7978 -1.49545,-0.70306 -4.79013,-1.48021 -7.25335,-1.71092 -0.34925,-0.0327 -0.78051,-0.13273 -0.95836,-0.22225 -0.74847,-0.37677 -2.51093,-2.31441 -4.41367,-4.85236 -1.33872,-1.78537 -2.8408603,-3.94547 -2.8408603,-4.0849 0,-0.12697 1.5656203,-4.16866 2.5992803,-6.71012 3.42856,-8.42977 6.37096,-13.1622 12.26552,-19.72733 1.56398,-1.7419 6.58932,-6.77139 9.01253,-9.01996 6.53892,-6.06768 13.99697,-12.53046 27.76117,-24.05646 l 3.42085,-2.86458 0.43883,-1.27 c 4.68331,-13.55391 14.39758,-25.979143 28.53111,-36.493313 14.756505,-10.97761 34.338025,-20.06854 57.533365,-26.71047 9.00211,-2.57773 18.60395,-4.76708 26.71234,-6.09075 2.22171,-0.36269 2.80523,-0.42658 4.65666,-0.50986 11.38303,-0.51203 26.51715,-3.09873 41.44395,-7.083561 24.64212,-6.578399 50.45399,-17.30562 74.35949,-30.9032391 1.01315,-0.57629 1.86648,-1.0478001 1.89627,-1.0478001 0.12718,0 -0.17297,5.0904702 -0.48424,8.2126702 -1.97482,19.808689 -9.00303,34.89079 -20.99289,45.04943 -7.08062,5.99919 -15.95278,10.31563 -26.62657,12.95424 -0.93134,0.23022 -1.72717,0.42936 -1.76852,0.44252 -0.0946,0.0301 1.64408,1.17157 3.25332,2.13583 1.52764,0.91536 4.90375,2.58235 6.47386,3.19655 5.87172,2.29688 11.75931,3.18968 16.86561,2.55751 1.02235,-0.12657 2.44514,-0.39314 2.79263,-0.5232 0.15438,-0.0578 -0.64802,-0.55069 -4.85937,-2.98502 l -5.04428,-2.91581 0.75304,-0.18533 c 5.39785,-1.32853 14.13278,-6.80537 23.01735,-14.43196 l 1.60466,-1.37746 1.22558,0.0557 c 11.03619,0.50146 28.01495,7.34732 45.77145,18.45509 17.15542,10.73175 32.27892,23.701823 42.1508,36.148983 6.69223,8.43801 10.82691,16.63157 11.98886,23.75788 0.42329,2.59602 0.42329,4.60133 -2e-5,11.60771 -3.03837,50.29024 -17.74143,90.73449 -44.15336,121.45433 -20.33649,23.65345 -47.72955,41.3335 -80.97928,52.26569 -22.82795,7.50561 -47.28175,11.678 -74.54899,12.71979 -3.00126,0.11467 -13.90986,0.16697 -16.96571,0.0813 z M 68.466225,131.12076 c 0.33995,-0.16144 0.94042,-0.5542 1.33439,-0.87279 0.83334,-0.67392 2.76777,-1.95472 4.69564,-3.10902 7.56197,-4.5277 15.02859,-7.48135 22.72177,-8.98829 3.976625,-0.77894 6.936705,-1.10704 13.430885,-1.48865 6.96698,-0.4094 8.5135,-0.84008 10.62717,-2.95948 0.75236,-0.75439 1.19156,-1.39414 1.49719,-2.18084 0.32694,-0.84154 0.32769,-1.99581 0.002,-2.94844 -0.38311,-1.12029 -0.83708,-1.8224 -2.79906,-4.32898 -1.19816,-1.53075 -1.39744,-1.69261 -4.92037,-3.99639 -0.87715,-0.573596 -1.55653,-1.167956 -1.83261,-1.603293 -0.34428,-0.54289 -0.34604,-1.18118 -0.005,-1.71386 0.37807,-0.59003 0.52203,-0.67856 1.25534,-0.77197 2.65611,-0.33835 5.32389,0.83633 7.36793,3.244237 2.45916,2.896906 4.5819,8.072336 4.94349,12.052646 0.12325,1.35675 0.21907,1.70444 0.58007,2.10487 0.39232,0.43517 0.85891,0.64261 1.45073,0.64494 1.3185,0.005 2.36219,-0.96613 2.36337,-2.19947 8.5e-4,-0.55899 -0.27409,-2.93459 -0.50896,-4.40267 -0.65729,-4.10859 -1.72758,-7.674966 -3.10805,-10.356533 -1.28003,-2.48646 -3.3377,-4.76414 -5.06934,-5.61135 l -0.48117,-0.23541 0.32986,-0.28449 c 2.93694,-2.53287 10.08417,-6.7291 15.40054,-9.04184 11.64719,-5.06679 24.45377,-9.01033 38.481,-11.84948 12.70036,-2.57059 26.30401,-4.1898 38.02447,-4.52595 l 2.67614,-0.0768 4.39353,-2.72802 c 2.41645,-1.50042 4.43163,-2.76548 4.4782,-2.81125 0.0981,-0.0964 -5.44745,-0.0286 -8.84767,0.10818 -32.05857,1.28969 -59.63548,6.35009 -77.31373,14.18716 -3.13028,1.38771 -5.849,2.77934 -7.56461,3.87208 -4.78537,3.048 -7.28129,4.56733 -10.83733,6.59699 -11.51401,6.57177 -22.943215,11.62093 -33.781995,14.924087 -2.62661,0.800456 -3.61031,1.069436 -7.60873,2.080436 -1.99617,0.50474 -3.63952,0.92913 -3.6519,0.94309 -0.14112,0.15916 -6.33057,12.68144 -6.40421,12.95681 -0.1968,0.7358 0.3456,1.33448 1.20931,1.33477 1.2689,8.5e-4 4.724,-1.28839 9.14463,-3.41112 l 1.4742,-0.7079 0.40617,-0.72368 c 1.68842,-3.00831 4.81286,-5.77871 8.8172,-7.81807 1.45936,-0.74324 3.17915,-1.42054 4.28991,-1.6895 4.39412,-1.06398 10.953675,0.28829 15.251885,3.14422 2.72207,1.80866 3.46498,3.78447 1.89956,5.05191 -0.32577,0.26375 -0.42664,0.29632 -1.07903,0.34835 -10.99134,0.87664 -26.472345,5.76208 -40.258995,12.70478 -3.29535,1.65948 -3.8151,1.96878 -4.45437,2.65074 -1.52092,1.6225 -1.58431,3.89653 -0.12922,4.63575 0.59891,0.30427 1.2496,0.25783 2.10956,-0.15056 z"
       id="path847"
       sodipodi:nodetypes="cssssssssccsscssssssssscssssssscssscsssscssssscscssccssssscssssscssssssssssssssssscsscsssssssscccsssssscssscssssccssscsssccsscssssssccscssssscssscc"
       class="logo-color" />
  </g>
</svg>
