<?xml version="1.0" encoding="UTF-8" standalone="no"?>
<svg
   xmlns:dc="http://purl.org/dc/elements/1.1/"
   xmlns:cc="http://creativecommons.org/ns#"
   xmlns:rdf="http://www.w3.org/1999/02/22-rdf-syntax-ns#"
   xmlns:svg="http://www.w3.org/2000/svg"
   xmlns="http://www.w3.org/2000/svg"
   xmlns:sodipodi="http://sodipodi.sourceforge.net/DTD/sodipodi-0.dtd"
   xmlns:inkscape="http://www.inkscape.org/namespaces/inkscape"
   sodipodi:docname="logo-lince-full.svg"
   inkscape:version="1.0 (4035a4fb49, 2020-05-01)"
   id="svg8"
   version="1.1"
   width="935"
   height="341">
  <defs
     id="defs2">
    <clipPath
       clipPathUnits="userSpaceOnUse"
       id="clipEmfPath1">
      <path
         d="M 0,0 H 106.16995 V 46.492724 H 0 Z"
         id="path849" />
    </clipPath>
    <pattern
       id="EMFhbasepattern"
       patternUnits="userSpaceOnUse"
       width="6"
       height="6"
       x="0"
       y="0" />
  </defs>
  <sodipodi:namedview
     showguides="false"
     inkscape:window-maximized="0"
     inkscape:window-y="68"
     inkscape:window-x="137"
     inkscape:window-height="788"
     inkscape:window-width="1375"
     showgrid="false"
     inkscape:document-rotation="0"
     inkscape:current-layer="layer1"
     inkscape:document-units="mm"
     inkscape:cy="306.78932"
     inkscape:cx="463.85898"
     inkscape:zoom="0.8359833"
     inkscape:pageshadow="2"
     inkscape:pageopacity="0.0"
     borderopacity="1.0"
     id="base" />
  <metadata
     id="metadata5">
    <rdf:RDF>
      <cc:Work
         rdf:about="">
        <dc:format>image/svg+xml</dc:format>
        <dc:type
           rdf:resource="http://purl.org/dc/dcmitype/StillImage" />
        <dc:title></dc:title>
      </cc:Work>
    </rdf:RDF>
  </metadata>
  <g
     class="logo-color"
     id="layer1"
     inkscape:groupmode="layer"
     inkscape:label="fulllogo">
    <path
       id="path847"
       d="m 572.092,338.40923 c -10.63578,-0.7257 -16.80209,-8.85129 -18.7888,-24.75873 -0.85715,-6.8632 -1.01259,-16.2285 -0.38501,-23.19866 1.30456,-14.48913 5.92509,-23.80469 13.80564,-27.83388 3.02009,-1.54412 5.93659,-2.22499 9.95449,-2.32392 4.59192,-0.11307 8.19624,0.58923 11.41568,2.22431 3.51437,1.78487 5.95043,4.29877 7.78798,8.03682 1.48515,3.02116 2.2758,6.23619 2.58709,10.51984 l 0.0569,0.78316 h -5.83153 -5.83154 l -0.18407,-1.50283 c -0.77132,-6.2971 -3.62683,-9.59743 -8.65631,-10.00474 -6.5198,-0.52801 -10.53678,4.23943 -12.27859,14.5725 -1.05873,6.28077 -1.31814,16.62431 -0.63233,25.21374 0.79787,9.99292 3.16692,15.59931 7.42253,17.56553 1.39178,0.64304 3.15523,0.90727 4.95549,0.74252 2.36608,-0.21654 4.02912,-0.91422 5.39595,-2.26372 2.09263,-2.06609 3.21412,-5.25259 3.72596,-10.58661 0.15318,-1.59629 0.29403,-5.61572 0.29585,-8.44222 l 10e-4,-2.01084 h -5.63033 -5.63033 v -5.08 -5.08 h 11.47233 11.47233 v 21.12507 21.12507 l -4.55083,-0.0219 -4.55083,-0.0219 -0.0986,-0.74985 c -0.19593,-1.4899 -0.37811,-3.51469 -0.4355,-4.8402 l -0.0586,-1.35262 -0.40643,0.67733 c -1.46773,2.44599 -3.21335,4.21679 -5.36659,5.44404 -2.14506,1.22257 -4.47267,1.84218 -7.68898,2.04684 -1.48927,0.0948 -1.90232,0.0942 -3.34433,-0.004 z m 63.08818,0.004 c -7.67034,-0.59936 -12.91572,-3.38403 -16.03973,-8.51519 -1.67057,-2.74387 -2.62232,-5.79014 -3.21123,-10.2781 l -0.18331,-1.397 -0.027,-28.3845 -0.027,-28.38449 h 5.8838 5.8838 l 0.0281,27.45316 c 0.0304,29.64688 0.005,27.91932 0.44283,30.23383 0.85351,4.51304 2.95055,7.4633 6.16549,8.67407 1.41322,0.53222 2.15109,0.64617 4.20533,0.64942 1.9641,0.003 2.57335,-0.0774 3.937,-0.52034 1.31846,-0.42826 2.26827,-0.98688 3.20378,-1.88429 1.81515,-1.7412 2.79604,-4.11049 3.3321,-8.04852 0.13271,-0.97492 0.14622,-3.24534 0.17145,-28.80784 l 0.0274,-27.74949 h 5.88407 5.88407 l -0.0252,28.13049 c -0.0276,30.72387 0.005,28.64717 -0.48988,31.54011 -0.86492,5.05924 -2.64911,8.86081 -5.49503,11.70824 -3.06606,3.06769 -7.12275,4.82287 -12.61971,5.46011 -1.35638,0.15723 -5.53123,0.22971 -6.93115,0.12033 z m -174.29785,-0.0876 c -5.59234,-0.50981 -9.86809,-2.27405 -13.11165,-5.41008 -1.54025,-1.48919 -2.65159,-3.05337 -3.70163,-5.20996 -1.47306,-3.02543 -2.27161,-6.28286 -2.5789,-10.51983 l -0.0568,-0.78317 h 5.87643 5.87645 l 0.14747,1.0795 c 0.53084,3.88581 1.76405,6.80734 3.69334,8.74968 0.84021,0.84592 1.49314,1.30589 2.59375,1.82725 2.7792,1.31653 7.08133,1.25017 9.88003,-0.15238 1.54113,-0.77232 2.90995,-2.20483 3.66184,-3.83219 0.37617,-0.81416 0.75328,-2.11323 0.93884,-3.23412 0.21537,-1.30095 0.21355,-4.29921 -0.003,-5.49607 -0.47043,-2.59595 -1.42884,-4.50857 -3.17196,-6.32995 -2.17001,-2.26744 -4.15407,-3.55887 -9.91688,-6.45491 -3.93398,-1.97697 -5.67442,-2.94165 -7.48977,-4.15132 -6.29447,-4.19442 -9.09282,-8.57446 -9.78889,-15.32182 -0.14265,-1.38286 -0.12282,-4.53145 0.0368,-5.85024 0.72976,-6.02739 3.49642,-10.69619 8.12033,-13.7032 1.67538,-1.08952 4.24175,-2.1368 6.41216,-2.61666 4.24038,-0.93752 9.3367,-0.82354 13.335,0.29822 6.13791,1.72204 10.2939,5.95328 12.14716,12.36707 0.50943,1.76297 0.88857,4.03092 0.97877,5.85451 0.0256,0.51753 0.0645,1.08384 0.0865,1.25847 l 0.0399,0.3175 h -5.80066 c -3.19037,0 -5.80067,-0.0302 -5.80067,-0.067 0,-0.29993 -0.30577,-2.28772 -0.47686,-3.10007 -0.77295,-3.66988 -2.3342,-6.06806 -4.73013,-7.26576 -2.29158,-1.14554 -5.91316,-1.14145 -8.28647,0.009 -2.31428,1.12219 -3.69836,3.15126 -4.25133,6.2325 -0.20642,1.15021 -0.20879,3.65047 -0.004,4.78035 0.69203,3.82795 2.88718,6.20103 8.52537,9.21639 0.44497,0.23797 1.87601,0.94151 3.18007,1.56342 9.58498,4.57105 14.2707,8.40111 16.88117,13.79849 1.24124,2.56639 1.87251,5.11447 2.11319,8.52968 0.34335,4.87239 -0.39027,9.16867 -2.19036,12.827 -1.05968,2.15363 -2.04168,3.51413 -3.70151,5.12827 -3.12974,3.04359 -7.19931,4.85244 -12.47728,5.54589 -1.24361,0.1634 -5.65781,0.23621 -6.985,0.11521 z m -284.51236,-1.17922 c -4.55063,-0.12751 -9.02261,-0.3645 -12.90767,-0.68405 -2.31113,-0.19009 -3.35088,-0.29678 -3.40334,-0.34926 -0.0189,-0.0189 0.46932,-0.23854 1.08486,-0.48816 23.07103,-9.35606 39.20722,-20.22077 48.67738,-32.77513 7.67867,-10.17942 10.64458,-21.56966 8.35399,-32.08255 -0.29934,-1.37384 -0.73123,-2.82267 -1.08366,-3.63522 -1.40123,-3.23071 -4.67991,-6.81963 -9.61652,-10.52651 -2.48754,-1.86788 -6.40126,-4.35811 -9.07971,-5.77727 -0.61521,-0.32597 -1.11948,-0.61289 -1.12059,-0.63762 -0.006,-0.14126 1.0731,-1.28261 1.88611,-1.99423 6.72126,-5.88292 22.11166,-13.59505 42.90052,-21.49743 1.55998,-0.59299 2.85538,-1.09807 2.87866,-1.12238 0.0573,-0.0599 -4.78866,0.0467 -6.94266,0.15276 -14.96662,0.73666 -28.27253,3.5966 -40.34367,8.67138 -15.58102,6.55036 -28.82835,16.87229 -39.08325,30.45254 -4.13062,5.47005 -7.20367,10.52996 -11.25347,18.52931 -1.60015,3.16069 -2.01026,3.78504 -3.31122,5.04096 -2.00147,1.9322 -4.59597,3.11502 -7.8976,3.60051 -3.4908,0.51331 -7.87502,0.15793 -12.0005,-0.97274 -2.22939,-0.61101 -6.40717,-2.2955 -9.6813,-3.90353 -5.77734,-2.83744 -9.75867,-5.77289 -11.94114,-8.80426 -0.62614,-0.8697 -1.31766,-2.2151 -1.52525,-2.9675 l -0.14169,-0.51356 -0.64662,-0.2399 c -2.125571,-0.78857 -5.418191,-2.35231 -7.419961,-3.52388 -3.42103,-2.00222 -5.90223,-3.8922 -8.42981,-6.42118 -2.5491,-2.5505 -4.42776,-5.10924 -5.7547,-7.83792 -0.41911,-0.86184 -0.92849,-2.07964 -0.92849,-2.21977 0,-0.0223 0.29016,0.23036 0.64481,0.56156 2.18626,2.04173 5.69704,3.3498 10.27803,3.82946 1.34183,0.14051 5.1279,0.14142 6.51849,0.002 5.883861,-0.5917 11.095441,-2.06447 16.213671,-4.58191 4.19658,-2.06412 7.65393,-4.49747 10.71191,-7.53925 6.07963,-6.04743 9.49573,-13.5177 10.24073,-22.39433 0.1111,-1.32369 0.11098,-5.19921 0,-6.65057 -0.43949,-5.73687 -2.23906,-11.79354 -4.86929,-16.38821 -0.73726,-1.2879 -1.82794,-2.89625 -2.76745,-4.08095 -1.03171,-1.30095 -3.32224,-3.60346 -4.59502,-4.61904 -5.4949,-4.38453 -12.30635,-6.85332 -20.489331,-7.42629 -1.79034,-0.12535 -5.95146,-0.0553 -7.66233,0.12904 -8.88407,0.95714 -16.59684,3.86938 -21.2542,8.02531 -0.44081,0.39334 -1.54442,1.45633 -2.45247,2.36219 -4.29237,4.28205 -6.26929,7.08817 -7.4108,10.51924 -1.70103,5.11283 -1.20706,10.81919 2.04943,23.67495 0.53671,2.11878 0.99544,3.93791 1.01941,4.04251 l 0.0436,0.19018 -0.49664,-0.21819 c -0.27316,-0.12 -1.14434,-0.53838 -1.93598,-0.92973 -8.79513,-4.34802 -16.365044,-11.02411 -22.074164,-19.46777 -2.28815,-3.38412 -4.32034,-7.13197 -5.496,-10.13598 l -0.4545,-1.16131 -0.3555,-0.003 c -1.23029,-0.01 -3.62141,-0.507 -4.35247,-0.9049 -1.01751,-0.5538 -1.97393,-1.95839 -3.96908,-5.82895 -1.51229,-2.93383 -1.72259,-3.20073 -2.9926,-3.7978 -1.49545,-0.70306 -4.79013,-1.48021 -7.25335,-1.71092 -0.34925,-0.0327 -0.78051,-0.13273 -0.95836,-0.22225 -0.74847,-0.37677 -2.51093,-2.31441 -4.41367,-4.85236 -1.33872,-1.78537 -2.84086,-3.94547 -2.84086,-4.0849 0,-0.12697 1.56562,-4.16866 2.59928,-6.71012 3.42856,-8.42977 6.37096,-13.1622 12.26552,-19.72733 1.56398,-1.7419 6.58932,-6.77139 9.01253,-9.01996 6.53892,-6.06768 13.99697,-12.53046 27.761174,-24.05646 l 3.42085,-2.86458 0.43883,-1.27 c 4.68331,-13.55391 14.39758,-25.979147 28.53111,-36.493317 14.756511,-10.97761 34.338031,-20.06854 57.533371,-26.71047 9.00211,-2.57773 18.60395,-4.76708 26.71234,-6.09075 2.22171,-0.36269 2.80523,-0.42658 4.65666,-0.50986 11.38303,-0.51203 26.51715,-3.09873 41.44395,-7.083561 24.64212,-6.578399 50.45399,-17.30562 74.35949,-30.903239 1.01315,-0.57629 1.86648,-1.0478 1.89627,-1.0478 0.12718,0 -0.17297,5.09047 -0.48424,8.21267 -1.97482,19.808689 -9.00303,34.89079 -20.99289,45.04943 -7.08062,5.99919 -15.95278,10.31563 -26.62657,12.95424 -0.93134,0.23022 -1.72717,0.42936 -1.76852,0.44252 -0.0946,0.0301 1.64408,1.17157 3.25332,2.13583 1.52764,0.91536 4.90375,2.58235 6.47386,3.19655 5.87172,2.29688 11.75931,3.18968 16.86561,2.55751 1.02235,-0.12657 2.44514,-0.39314 2.79263,-0.5232 0.15438,-0.0578 -0.64802,-0.55069 -4.85937,-2.98502 l -5.04428,-2.91581 0.75304,-0.18533 c 5.39785,-1.32853 14.13278,-6.80537 23.01735,-14.43196 l 1.60466,-1.37746 1.22558,0.0557 c 11.03619,0.50146 28.01495,7.34732 45.77145,18.45509 17.15542,10.73175 32.27892,23.701827 42.1508,36.148987 6.69223,8.43801 10.82691,16.63157 11.98886,23.75788 0.42329,2.59602 0.42329,4.60133 -2e-5,11.60771 -3.03837,50.29024 -17.74143,90.73449 -44.15336,121.45433 -20.33649,23.65345 -47.72955,41.3335 -80.97928,52.26569 -22.82795,7.50561 -47.28175,11.678 -74.54899,12.71979 -3.00126,0.11467 -13.90986,0.16697 -16.96571,0.0813 z M 64.877639,132.31696 c 0.33995,-0.16144 0.94042,-0.5542 1.33439,-0.87279 0.83334,-0.67392 2.76777,-1.95472 4.69564,-3.10902 7.56197,-4.5277 15.02859,-7.48135 22.72177,-8.98829 3.97663,-0.77894 6.936711,-1.10704 13.430891,-1.48865 6.96698,-0.4094 8.5135,-0.84008 10.62717,-2.95948 0.75236,-0.75439 1.19156,-1.39414 1.49719,-2.18084 0.32694,-0.84154 0.32769,-1.99581 0.002,-2.94844 -0.38311,-1.12029 -0.83708,-1.8224 -2.79906,-4.32898 -1.19816,-1.53075 -1.39744,-1.69261 -4.92037,-3.99639 -0.87715,-0.5736 -1.55653,-1.16796 -1.83261,-1.603297 -0.34428,-0.54289 -0.34604,-1.18118 -0.005,-1.71386 0.37807,-0.59003 0.52203,-0.67856 1.25534,-0.77197 2.65611,-0.33835 5.32389,0.83633 7.36793,3.244237 2.45916,2.89691 4.5819,8.07234 4.94349,12.05265 0.12325,1.35675 0.21907,1.70444 0.58007,2.10487 0.39232,0.43517 0.85891,0.64261 1.45073,0.64494 1.3185,0.005 2.36219,-0.96613 2.36337,-2.19947 8.5e-4,-0.55899 -0.27409,-2.93459 -0.50896,-4.40267 -0.65729,-4.10859 -1.72758,-7.67497 -3.10805,-10.356537 -1.28003,-2.48646 -3.3377,-4.76414 -5.06934,-5.61135 l -0.48117,-0.23541 0.32986,-0.28449 c 2.93694,-2.53287 10.08417,-6.7291 15.40054,-9.04184 11.64719,-5.06679 24.45377,-9.01033 38.481,-11.84948 12.70036,-2.57059 26.30401,-4.1898 38.02447,-4.52595 l 2.67614,-0.0768 4.39353,-2.72802 c 2.41645,-1.50042 4.43163,-2.76548 4.4782,-2.81125 0.0981,-0.0964 -5.44745,-0.0286 -8.84767,0.10818 -32.05857,1.28969 -59.63548,6.35009 -77.31373,14.18716 -3.13028,1.38771 -5.849,2.77934 -7.56461,3.87208 -4.78537,3.048 -7.28129,4.56733 -10.83733,6.59699 -11.51401,6.57177 -22.943221,11.62093 -33.782001,14.924087 -2.62661,0.80046 -3.61031,1.06944 -7.60873,2.08044 -1.99617,0.50474 -3.63952,0.92913 -3.6519,0.94309 -0.14112,0.15916 -6.33057,12.68144 -6.40421,12.95681 -0.1968,0.7358 0.3456,1.33448 1.20931,1.33477 1.2689,8.5e-4 4.724,-1.28839 9.14463,-3.41112 l 1.4742,-0.7079 0.40617,-0.72368 c 1.68842,-3.00831 4.81286,-5.77871 8.8172,-7.81807 1.45936,-0.74324 3.17915,-1.42054 4.28991,-1.6895 4.39412,-1.06398 10.953681,0.28829 15.251891,3.14422 2.72207,1.80866 3.46498,3.78447 1.89956,5.05191 -0.32577,0.26375 -0.42664,0.29632 -1.07903,0.34835 -10.991341,0.87664 -26.472351,5.76208 -40.259001,12.70478 -3.29535,1.65948 -3.8151,1.96878 -4.45437,2.65074 -1.52092,1.6225 -1.58431,3.89653 -0.12922,4.63575 0.59891,0.30427 1.2496,0.25783 2.10956,-0.15056 z M 502.15733,299.34184 v -37.88833 h 18.75367 18.75366 v 5.16466 5.16467 h -12.95433 -12.95434 l 0.0215,10.26583 0.0215,10.26583 12.34017,0.0214 12.34016,0.0215 v 5.12176 5.12177 l -12.34016,0.0214 -12.34017,0.0215 -0.0215,12.17083 -0.0215,12.17083 h 13.80095 c 11.86522,0 13.80096,0.0169 13.80096,0.12022 0,0.0661 -0.32385,2.3339 -0.71967,5.0395 -0.39582,2.7056 -0.71967,4.95655 -0.71967,5.00211 0,0.0538 -6.62774,0.0828 -18.88066,0.0828 h -18.88067 z m 176.784,0 v -37.88833 h 12.04383 c 7.55661,0 12.4066,0.0327 13.0175,0.0873 6.70354,0.59917 11.64211,3.22498 14.64453,7.7864 1.57575,2.39396 2.5859,5.41518 3.01484,9.017 0.19249,1.61633 0.19471,5.08271 0.004,6.63905 -0.30649,2.50449 -0.96351,4.87063 -1.86575,6.71913 -1.58045,3.23802 -4.21733,5.86639 -7.2008,7.17752 l -0.62925,0.27654 0.86325,0.43294 c 2.37021,1.18874 4.17327,2.89244 5.3949,5.09764 1.06646,1.92507 1.85793,4.65644 2.19246,7.56618 0.23623,2.05466 0.27746,3.1775 0.34513,9.398 0.0707,6.50224 0.13046,8.17645 0.38656,10.83733 0.11472,1.19195 0.47681,3.93431 0.59529,4.5085 l 0.048,0.23283 h -5.75668 -5.75667 l -0.21655,-0.91016 c -0.69866,-2.93652 -0.88952,-5.76249 -0.98494,-14.58384 -0.0688,-6.35633 -0.11419,-7.43615 -0.38466,-9.144 -0.69606,-4.39505 -2.38722,-6.74439 -5.63457,-7.82744 -1.86406,-0.6217 -2.25401,-0.65765 -7.58955,-0.69976 l -4.7625,-0.0376 v 16.60139 16.6014 h -5.88434 -5.88433 v -37.88831 z m 20.87033,-5.03901 c 4.50944,-0.36984 7.31248,-1.94863 8.84066,-4.97947 0.95707,-1.89818 1.43705,-4.67152 1.33595,-7.71919 -0.0929,-2.79978 -0.6488,-4.85819 -1.75947,-6.51475 -1.32937,-1.98274 -3.11447,-3.12328 -5.87714,-3.75504 -0.71745,-0.16405 -1.08008,-0.17614 -6.20183,-0.20663 l -5.43984,-0.0324 v 11.64674 11.64674 l 4.04284,-10e-4 c 2.22355,-8.4e-4 4.50003,-0.0388 5.05883,-0.0847 z m 38.90433,5.03901 v -37.88833 h 5.88434 5.88433 v 37.88833 37.88833 h -5.88433 -5.88434 z m 30.734,0.005 v -37.89295 l 10.4775,8.5e-4 c 6.47243,8.4e-4 10.86587,0.0342 11.4935,0.0881 6.06848,0.5213 10.79856,2.47368 14.40696,5.94668 4.25053,4.09098 6.91287,10.20126 8.10548,18.6023 0.46093,3.24642 0.6356,5.78197 0.69994,10.16 0.19719,13.4127 -1.64262,23.29785 -5.5659,29.90517 -3.47057,5.8449 -8.70331,9.36555 -15.69915,10.56265 -2.64422,0.45246 -2.56938,0.44979 -13.61016,0.48614 l -10.30817,0.0339 v -37.89295 z m 19.23153,28.06019 c 5.86401,-0.58088 9.47885,-3.67331 11.55386,-9.88392 1.53577,-4.59694 2.23334,-10.71071 2.23359,-19.57789 0,-9.4895 -0.88028,-15.20025 -3.00956,-19.51566 -1.70654,-3.45887 -4.07873,-5.49382 -7.58681,-6.50835 -1.71594,-0.49625 -3.46888,-0.6455 -7.58478,-0.64578 h -2.9845 v 28.10933 28.10933 h 3.2507 c 1.7879,0 3.64523,-0.0391 4.1275,-0.0869 z m 33.04031,9.67536 c 0.043,-0.14529 17.38139,-73.93485 17.63624,-75.05745 l 0.12979,-0.57194 7.67182,0.0216 7.67173,0.0216 8.99033,37.592 c 4.94462,20.6756 9.01471,37.71607 9.04452,37.86772 l 0.0543,0.27571 -6.20412,-0.0217 -6.20412,-0.0217 -2.17856,-10.287 c -1.1982,-5.65785 -2.18008,-10.31557 -2.18186,-10.3505 -0.002,-0.0349 -4.11395,-0.0635 -9.13816,-0.0635 -7.23171,0 -9.14264,0.0221 -9.1721,0.10583 -0.0204,0.0582 -1.00483,4.72546 -2.18762,10.37167 l -2.15062,10.26583 h -5.9127 c -5.59147,0 -5.91041,-0.008 -5.86884,-0.14816 z m 32.19713,-31.115 c -0.13115,-0.53477 -4.07662,-19.11325 -4.79628,-22.58483 -0.88773,-4.28232 -1.33316,-6.54603 -1.82364,-9.26908 -0.16755,-0.93028 -0.31978,-1.70651 -0.33816,-1.72496 -0.0185,-0.0185 -0.0848,-0.0139 -0.14723,0.0101 -0.0756,0.029 -0.17831,0.47921 -0.30658,1.34395 -0.29346,1.97862 -1.17975,6.75701 -2.11777,11.41802 -0.80238,3.98666 -4.29141,20.66819 -4.36964,20.89149 -0.0294,0.0841 1.39793,0.10584 6.95452,0.10584 h 6.99151 z m 31.86303,-6.62841 v -37.89193 l 11.1125,0.0292 c 10.88009,0.0286 11.13934,0.033 12.39494,0.21335 3.30497,0.47459 5.63796,1.16821 8.13088,2.41739 7.03902,3.52725 11.2605,10.71403 12.88898,21.94222 0.8785,6.05748 0.98027,14.75525 0.25755,22.01333 -0.76064,7.63912 -2.46033,13.61726 -5.16974,18.18346 -3.63661,6.12871 -9.31486,9.68561 -17.05145,10.68113 -2.04749,0.26346 -3.64905,0.30047 -13.05983,0.30176 l -9.50383,0.001 v -37.89157 z m 19.31619,28.06621 c 4.55142,-0.46042 7.63583,-2.39001 9.89838,-6.19242 1.38074,-2.32037 2.52933,-6.14962 3.11903,-10.39822 0.92744,-6.68226 1.02159,-16.76034 0.21616,-23.15633 -1.10956,-8.81208 -4.10337,-13.7562 -9.40393,-15.52987 -1.97078,-0.65949 -3.82837,-0.85103 -8.26567,-0.85229 l -2.94216,-8.5e-4 v 28.10934 28.10933 h 3.25069 c 1.7879,0 3.64524,-0.0399 4.1275,-0.0887 z m -129.55219,-90.5966 c -16.75179,-0.78912 -28.59762,-6.48007 -36.10038,-17.34326 -6.39834,-9.26411 -9.73608,-22.0282 -10.38528,-39.71516 -0.13384,-3.64629 -0.066,-82.770047 0.0725,-84.581987 0.24598,-3.21761 0.36933,-4.63136 0.52817,-6.05367 1.5616,-13.98254 5.60711,-24.73377 12.34524,-32.80833 1.65473,-1.98292 4.43119,-4.59598 6.56567,-6.17926 6.16164,-4.57048 13.709,-7.42356 22.6137,-8.54854 6.9883,-0.88286 15.31806,-0.72498 22.16463,0.4201 13.02529,2.17845 22.63648,7.99325 28.79903,17.42351 4.58427,7.01515 7.26558,15.99877 8.12944,27.23719 0.24121,3.13806 0.29946,5.39275 0.29997,11.6205 v 6.201827 h -19.71772 -19.71785 l -0.0441,-7.979827 c -0.025,-4.53079 -0.0841,-8.49216 -0.13656,-9.16517 -0.3783,-4.84777 -1.15587,-7.83583 -2.60825,-10.02314 -1.18059,-1.77806 -2.78595,-2.90664 -4.89601,-3.44188 -3.04665,-0.77286 -6.41638,-0.32189 -8.53415,1.14211 -2.39691,1.65696 -3.93074,4.69653 -4.83074,9.57295 -0.33782,1.83028 -0.55885,3.74706 -0.82968,7.19496 -0.13495,1.7179 -0.20237,88.263767 -0.0714,91.651657 0.11071,2.86406 0.21127,4.33752 0.43336,6.35 0.97521,8.83719 3.40667,13.19834 8.03556,14.41299 0.98722,0.25906 3.20235,0.36039 4.31656,0.19747 2.23901,-0.32738 3.85987,-1.1329 5.2606,-2.61425 2.18465,-2.31049 3.29785,-5.73759 3.89653,-11.99621 0.0627,-0.65495 0.11015,-4.07737 0.1336,-9.63083 l 0.0364,-8.61483 h 19.86102 19.86111 l -0.0512,6.2865 c -0.0589,7.22521 -0.15672,9.56369 -0.57463,13.73716 -0.86572,8.64511 -2.72627,15.7154 -5.74819,21.844 -3.53957,7.17837 -8.35677,12.47049 -15.02918,16.51077 -1.24562,0.75424 -4.53246,2.36534 -6.05367,2.96729 -6.82184,2.69944 -15.04839,4.05238 -24.34166,4.00325 -1.2573,-0.007 -2.91465,-0.0417 -3.683,-0.0779 z M 445.00733,138.94084 V 44.029513 H 464.65 484.29267 v 78.147327 78.14733 h 24.34166 c 22.05562,0 24.34167,0.0125 24.34167,0.13284 0,0.0731 -0.8001,7.58886 -1.778,16.70177 -0.9779,9.11292 -1.778,16.59694 -1.778,16.63117 0,0.0342 -18.99285,0.0622 -42.20633,0.0622 h -42.20634 z m 100.75333,0 V 44.029513 h 19.60034 19.60033 v 94.911327 94.91133 H 565.361 545.76066 Z m 59.69,0 V 44.029343 l 21.52334,0.0213 21.52334,0.0213 0.2798,0.97367 c 3.32748,11.57899 8.96775,33.65274 14.34323,56.133597 5.06878,21.19822 11.15655,47.96429 13.21031,58.08173 l 0.19765,0.97366 h 0.46566 0.46567 l -0.0194,-0.42333 c -0.0107,-0.23283 -0.13344,-1.90923 -0.27282,-3.72533 -1.15891,-15.10096 -2.12833,-34.20201 -2.66847,-52.578 -0.3967,-13.495947 -0.46725,-19.634517 -0.46781,-40.703497 l -4.9e-4,-18.77499 h 18.034 18.034 v 94.911327 94.91133 h -21.79179 -21.79179 l -0.0549,-0.1905 c -0.17416,-0.60393 -2.77441,-11.00253 -3.39274,-13.56783 -4.91165,-20.37718 -10.99567,-47.52073 -18.33215,-81.788 -1.62647,-7.59693 -5.07455,-23.86206 -5.41601,-25.54817 l -0.0986,-0.48683 h -0.54433 c -0.50814,0 -0.54432,0.0127 -0.54404,0.1905 0,0.10477 0.0563,1.04775 0.12476,2.0955 0.83334,12.75552 1.79166,37.62264 2.24648,58.293 0.0492,2.2352 0.13055,5.91185 0.18081,8.17033 0.0503,2.25848 0.10956,15.06961 0.13177,28.46917 l 0.0404,24.36283 h -17.70297 -17.70291 v -94.9115 z m 240.284,0 V 44.029513 h 42.07933 42.07933 v 16.84867 16.84866 h -22.479 -22.479 v 19.939 19.938997 h 21.37833 21.37834 v 16.764 16.764 h -21.37834 -21.37833 v 24.638 24.638 h 24.89869 24.89877 l -0.0479,0.23283 c -0.0264,0.12806 -1.05723,7.52899 -2.29083,16.4465 -1.23359,8.91752 -2.26449,16.3375 -2.29099,16.48884 l -0.0481,0.27516 h -42.16011 -42.16018 z"
       style="display:inline;fill:#124734;fill-opacity:1;stroke-width:0.0846667"
       inkscape:label="LogoFull" />
  </g>
</svg>
