<?xml version="1.0" encoding="UTF-8" standalone="no"?>
<svg
   xmlns:dc="http://purl.org/dc/elements/1.1/"
   xmlns:cc="http://creativecommons.org/ns#"
   xmlns:rdf="http://www.w3.org/1999/02/22-rdf-syntax-ns#"
   xmlns:svg="http://www.w3.org/2000/svg"
   xmlns="http://www.w3.org/2000/svg"
   xmlns:sodipodi="http://sodipodi.sourceforge.net/DTD/sodipodi-0.dtd"
   xmlns:inkscape="http://www.inkscape.org/namespaces/inkscape"
   sodipodi:docname="logo-lince-simple.svg"
   inkscape:version="1.0 (4035a4fb49, 2020-05-01)"
   id="svg8"
   version="1.1"
   width="407"
   height="341"
   style=""
   >
  <defs
     id="defs2">
    <clipPath
       clipPathUnits="userSpaceOnUse"
       id="clipEmfPath1">
      <path
         d="M 0,0 H 106.16995 V 46.492724 H 0 Z"
         id="path849" />
    </clipPath>
    <pattern
       id="EMFhbasepattern"
       patternUnits="userSpaceOnUse"
       width="6"
       height="6"
       x="0"
       y="0" />
  </defs>
  <sodipodi:namedview
     inkscape:window-maximized="0"
     inkscape:window-y="26"
     inkscape:window-x="100"
     inkscape:window-height="788"
     inkscape:window-width="1375"
     showgrid="false"
     inkscape:document-rotation="0"
     inkscape:current-layer="layer1"
     inkscape:document-units="mm"
     inkscape:cy="306.78932"
     inkscape:cx="388.53746"
     inkscape:zoom="0.8359833"
     inkscape:pageshadow="2"
     inkscape:pageopacity="0.0"
     borderopacity="1.0"
     id="base" />
  <metadata
     id="metadata5">
    <rdf:RDF>
      <cc:Work
         rdf:about="">
        <dc:format>image/svg+xml</dc:format>
        <dc:type
           rdf:resource="http://purl.org/dc/dcmitype/StillImage" />
        <dc:title></dc:title>
      </cc:Work>
    </rdf:RDF>
  </metadata>
  <g class="logo-color"
     id="layer1"
     inkscape:groupmode="layer"
     inkscape:label="Layer 1">
    <path class="logo-color"
       sodipodi:nodetypes="cssssssssccsscssssssssscssssssscssscsssscssssscscssccssssscssssscssssssssssssssssscsscsssssssscccsssssscssscssssccssscsssccsscssssssccscssssscssscc"
       id="path847"
       d="m 176.36997,337.14641 c -4.55063,-0.12751 -9.02261,-0.3645 -12.90767,-0.68405 -2.31113,-0.19009 -3.35088,-0.29678 -3.40334,-0.34926 -0.0189,-0.0189 0.46932,-0.23854 1.08486,-0.48816 23.07103,-9.35606 39.20722,-20.22077 48.67738,-32.77513 7.67867,-10.17942 10.64458,-21.56966 8.35399,-32.08255 -0.29934,-1.37384 -0.73123,-2.82267 -1.08366,-3.63522 -1.40123,-3.23071 -4.67991,-6.81963 -9.61652,-10.52651 -2.48754,-1.86788 -6.40126,-4.35811 -9.07971,-5.77727 -0.61521,-0.32597 -1.11948,-0.61289 -1.12059,-0.63762 -0.006,-0.14126 1.0731,-1.28261 1.88611,-1.99423 6.72126,-5.88292 22.11166,-13.59505 42.90052,-21.49743 1.55998,-0.59299 2.85538,-1.09807 2.87866,-1.12238 0.0573,-0.0599 -4.78866,0.0467 -6.94266,0.15276 -14.96662,0.73666 -28.27253,3.5966 -40.34367,8.67138 -15.58102,6.55036 -28.82835,16.87229 -39.08325,30.45254 -4.13062,5.47005 -7.20367,10.52996 -11.25347,18.52931 -1.60015,3.16069 -2.01026,3.78504 -3.31122,5.04096 -2.00147,1.9322 -4.59597,3.11502 -7.8976,3.60051 -3.4908,0.51331 -7.87502,0.15793 -12.0005,-0.97274 -2.22939,-0.61101 -6.40717,-2.2955 -9.6813,-3.90353 -5.77734,-2.83744 -9.75867,-5.77289 -11.94114,-8.80426 -0.62614,-0.8697 -1.31766,-2.2151 -1.52525,-2.9675 l -0.14169,-0.51356 -0.64662,-0.2399 c -2.125571,-0.78857 -5.418191,-2.35231 -7.419961,-3.52388 -3.42103,-2.00222 -5.90223,-3.8922 -8.42981,-6.42118 -2.5491,-2.5505 -4.42776,-5.10924 -5.7547,-7.83792 -0.41911,-0.86184 -0.92849,-2.07964 -0.92849,-2.21977 0,-0.0223 0.29016,0.23036 0.64481,0.56156 2.18626,2.04173 5.69704,3.3498 10.27803,3.82946 1.34183,0.14051 5.1279,0.14142 6.51849,0.002 5.883861,-0.5917 11.095441,-2.06447 16.213671,-4.58191 4.19658,-2.06412 7.65393,-4.49747 10.71191,-7.53925 6.07963,-6.04743 9.49573,-13.5177 10.24073,-22.39433 0.1111,-1.32369 0.11098,-5.19921 0,-6.65057 -0.43949,-5.73687 -2.23906,-11.79354 -4.86929,-16.38821 -0.73726,-1.2879 -1.82794,-2.89625 -2.76745,-4.08095 -1.03171,-1.30095 -3.32224,-3.60346 -4.59502,-4.61904 -5.4949,-4.38453 -12.30635,-6.85332 -20.489331,-7.42629 -1.79034,-0.12535 -5.95146,-0.0553 -7.66233,0.12904 -8.88407,0.95714 -16.59684,3.86938 -21.2542,8.02531 -0.44081,0.39334 -1.54442,1.45633 -2.45247,2.36219 -4.29237,4.28205 -6.26929,7.08817 -7.4108,10.51924 -1.70103,5.11283 -1.20706,10.81919 2.04943,23.67495 0.53671,2.11878 0.99544,3.93791 1.01941,4.04251 l 0.0436,0.19018 -0.49664,-0.21819 c -0.27316,-0.12 -1.14434,-0.53838 -1.93598,-0.92973 -8.79513,-4.34802 -16.365044,-11.02411 -22.074164,-19.46777 -2.28815,-3.38412 -4.32034,-7.13197 -5.496,-10.13598 l -0.4545,-1.16131 -0.3555,-0.003 c -1.23029,-0.01 -3.62141,-0.507 -4.35247,-0.9049 -1.01751,-0.5538 -1.97393,-1.95839 -3.96908,-5.82895 -1.51229,-2.93383 -1.72259,-3.20073 -2.9926,-3.7978 -1.49545,-0.70306 -4.79013,-1.48021 -7.25335,-1.71092 -0.34925,-0.0327 -0.78051,-0.13273 -0.95836,-0.22225 -0.74847,-0.37677 -2.51093,-2.31441 -4.41367,-4.85236 -1.33872,-1.78537 -2.84086,-3.94547 -2.84086,-4.0849 0,-0.12697 1.56562,-4.16866 2.59928,-6.71012 3.42856,-8.42977 6.37096,-13.1622 12.26552,-19.72733 1.56398,-1.7419 6.58932,-6.77139 9.01253,-9.01996 6.53892,-6.06768 13.99697,-12.53046 27.761174,-24.05646 l 3.42085,-2.86458 0.43883,-1.27 c 4.68331,-13.55391 14.39758,-25.979147 28.53111,-36.493317 14.756511,-10.97761 34.338031,-20.06854 57.533371,-26.71047 9.00211,-2.57773 18.60395,-4.76708 26.71234,-6.09075 2.22171,-0.36269 2.80523,-0.42658 4.65666,-0.50986 11.38303,-0.51203 26.51715,-3.09873 41.44395,-7.083561 24.64212,-6.578399 50.45399,-17.30562 74.35949,-30.903239 1.01315,-0.57629 1.86648,-1.0478 1.89627,-1.0478 0.12718,0 -0.17297,5.09047 -0.48424,8.21267 -1.97482,19.808689 -9.00303,34.89079 -20.99289,45.04943 -7.08062,5.99919 -15.95278,10.31563 -26.62657,12.95424 -0.93134,0.23022 -1.72717,0.42936 -1.76852,0.44252 -0.0946,0.0301 1.64408,1.17157 3.25332,2.13583 1.52764,0.91536 4.90375,2.58235 6.47386,3.19655 5.87172,2.29688 11.75931,3.18968 16.86561,2.55751 1.02235,-0.12657 2.44514,-0.39314 2.79263,-0.5232 0.15438,-0.0578 -0.64802,-0.55069 -4.85937,-2.98502 l -5.04428,-2.91581 0.75304,-0.18533 c 5.39785,-1.32853 14.13278,-6.80537 23.01735,-14.43196 l 1.60466,-1.37746 1.22558,0.0557 c 11.03619,0.50146 28.01495,7.34732 45.77145,18.45509 17.15542,10.73175 32.27892,23.701827 42.1508,36.148987 6.69223,8.43801 10.82691,16.63157 11.98886,23.75788 0.42329,2.59602 0.42329,4.60133 -2e-5,11.60771 -3.03837,50.29024 -17.74143,90.73449 -44.15336,121.45433 -20.33649,23.65345 -47.72955,41.3335 -80.97928,52.26569 -22.82795,7.50561 -47.28175,11.678 -74.54899,12.71979 -3.00126,0.11467 -13.90986,0.16697 -16.96571,0.0813 z M 64.877639,132.31696 c 0.33995,-0.16144 0.94042,-0.5542 1.33439,-0.87279 0.83334,-0.67392 2.76777,-1.95472 4.69564,-3.10902 7.56197,-4.5277 15.02859,-7.48135 22.72177,-8.98829 3.97663,-0.77894 6.936711,-1.10704 13.430891,-1.48865 6.96698,-0.4094 8.5135,-0.84008 10.62717,-2.95948 0.75236,-0.75439 1.19156,-1.39414 1.49719,-2.18084 0.32694,-0.84154 0.32769,-1.99581 0.002,-2.94844 -0.38311,-1.12029 -0.83708,-1.8224 -2.79906,-4.32898 -1.19816,-1.53075 -1.39744,-1.69261 -4.92037,-3.99639 -0.87715,-0.5736 -1.55653,-1.16796 -1.83261,-1.603297 -0.34428,-0.54289 -0.34604,-1.18118 -0.005,-1.71386 0.37807,-0.59003 0.52203,-0.67856 1.25534,-0.77197 2.65611,-0.33835 5.32389,0.83633 7.36793,3.244237 2.45916,2.89691 4.5819,8.07234 4.94349,12.05265 0.12325,1.35675 0.21907,1.70444 0.58007,2.10487 0.39232,0.43517 0.85891,0.64261 1.45073,0.64494 1.3185,0.005 2.36219,-0.96613 2.36337,-2.19947 8.5e-4,-0.55899 -0.27409,-2.93459 -0.50896,-4.40267 -0.65729,-4.10859 -1.72758,-7.67497 -3.10805,-10.356537 -1.28003,-2.48646 -3.3377,-4.76414 -5.06934,-5.61135 l -0.48117,-0.23541 0.32986,-0.28449 c 2.93694,-2.53287 10.08417,-6.7291 15.40054,-9.04184 11.64719,-5.06679 24.45377,-9.01033 38.481,-11.84948 12.70036,-2.57059 26.30401,-4.1898 38.02447,-4.52595 l 2.67614,-0.0768 4.39353,-2.72802 c 2.41645,-1.50042 4.43163,-2.76548 4.4782,-2.81125 0.0981,-0.0964 -5.44745,-0.0286 -8.84767,0.10818 -32.05857,1.28969 -59.63548,6.35009 -77.31373,14.18716 -3.13028,1.38771 -5.849,2.77934 -7.56461,3.87208 -4.78537,3.048 -7.28129,4.56733 -10.83733,6.59699 -11.51401,6.57177 -22.943221,11.62093 -33.782001,14.924087 -2.62661,0.80046 -3.61031,1.06944 -7.60873,2.08044 -1.99617,0.50474 -3.63952,0.92913 -3.6519,0.94309 -0.14112,0.15916 -6.33057,12.68144 -6.40421,12.95681 -0.1968,0.7358 0.3456,1.33448 1.20931,1.33477 1.2689,8.5e-4 4.724,-1.28839 9.14463,-3.41112 l 1.4742,-0.7079 0.40617,-0.72368 c 1.68842,-3.00831 4.81286,-5.77871 8.8172,-7.81807 1.45936,-0.74324 3.17915,-1.42054 4.28991,-1.6895 4.39412,-1.06398 10.953681,0.28829 15.251891,3.14422 2.72207,1.80866 3.46498,3.78447 1.89956,5.05191 -0.32577,0.26375 -0.42664,0.29632 -1.07903,0.34835 -10.991341,0.87664 -26.472351,5.76208 -40.259001,12.70478 -3.29535,1.65948 -3.8151,1.96878 -4.45437,2.65074 -1.52092,1.6225 -1.58431,3.89653 -0.12922,4.63575 0.59891,0.30427 1.2496,0.25783 2.10956,-0.15056 z"
       style="fill-opacity:1;stroke-width:0.0846667" />
    <path
         class="logo-color"
       id="path870"
       d="m 168.08713,336.55598 -6.35934,-0.31319 12.45002,-6.20406 c 13.78178,-6.86768 22.18142,-12.53027 29.73161,-20.04345 13.03528,-12.97139 17.99198,-27.76855 14.00729,-41.81582 -1.12977,-3.98276 -6.01474,-9.1118 -13.28631,-13.95015 -3.50548,-2.33246 -6.18192,-4.55097 -5.94765,-4.93003 1.87529,-3.03429 20.68276,-13.01634 36.23991,-19.23429 4.98929,-1.99414 9.41161,-3.94991 9.82738,-4.34613 1.0212,-0.97318 -14.75702,0.002 -23.05654,1.42439 -15.04527,2.57926 -29.30323,8.17839 -41.2698,16.20672 -3.28747,2.20556 -9.37901,7.44139 -13.53675,11.63518 -7.88922,7.95762 -12.49359,14.23064 -17.84406,24.3108 -5.35706,10.0926 -8.41854,12.41076 -16.39029,12.41076 -5.82685,0 -11.16816,-1.63556 -19.3509,-5.92545 -6.28623,-3.29562 -11.80463,-8.12209 -11.80463,-10.32448 0,-0.47232 -1.785937,-1.60408 -3.96875,-2.51503 -5.113269,-2.13393 -11.844428,-7.20721 -15.254461,-11.4973 -1.476602,-1.85769 -2.688035,-3.61766 -2.69207,-3.91105 -0.004,-0.29338 1.396146,-0.0382 3.111518,0.56697 4.107936,1.44936 14.003549,1.40339 19.828573,-0.0921 14.37897,-3.69163 25.59102,-13.95634 28.8033,-26.36959 1.48979,-5.75703 1.49366,-15.46324 0.008,-21.16542 -2.58366,-9.91931 -8.91306,-17.94526 -17.21802,-21.83317 -10.68475,-5.00199 -26.922447,-4.69911 -37.768418,0.70448 -5.068793,2.52534 -12.209116,9.44583 -14.74777,14.29371 -2.538362,4.84733 -2.602296,12.12162 -0.194794,22.16263 0.928849,3.87398 1.557425,7.17499 1.396831,7.33558 -0.477777,0.47778 -9.788192,-5.64777 -13.351309,-8.78415 -4.853427,-4.27219 -10.421977,-11.51209 -13.394581,-17.41489 -2.177357,-4.32366 -2.926758,-5.18905 -4.493541,-5.18905 -2.156867,0 -3.348429,-1.14357 -6.684507,-6.4153 -2.200219,-3.47682 -2.759001,-3.87029 -7.197579,-5.06815 -2.646696,-0.71428 -4.87783,-1.39927 -4.958075,-1.5222 -0.08024,-0.12294 -1.459762,-1.86253 -3.0655894,-3.86577 -2.8277185,-3.52752 -2.8896998,-3.72993 -1.9676348,-6.42559 0.5236289,-1.53084 2.4490602,-5.85415 4.2787382,-9.60734 5.018371,-10.29413 13.404435,-19.11847 38.431123,-40.43961 10.995977,-9.36787 11.48633,-9.90881 13.478259,-14.86886 3.211302,-7.99635 7.700325,-14.281492 16.393233,-22.952379 9.694355,-9.669791 19.091773,-16.087693 34.112384,-23.29683 13.31875,-6.392325 27.01841,-11.194418 43.26696,-15.166211 12.00322,-2.934065 16.20364,-3.630691 32.29422,-5.355877 27.60966,-2.960231 62.79751,-14.57927 95.16076,-31.422106 5.97964,-3.111989 11.03703,-5.4931995 11.23866,-5.291577 0.63956,0.639571 -1.23524,14.222212 -2.82832,20.490642 -2.96132,11.652151 -10.28153,24.013434 -18.09395,30.554358 -5.8124,4.86642 -13.44443,8.969505 -21.39522,11.502369 -4.04556,1.288783 -7.1669,2.648511 -6.93632,3.021613 0.95602,1.546855 11.48309,6.137875 16.47637,7.185596 5.15581,1.081821 13.31254,0.850734 13.31254,-0.377155 0,-0.289886 -2.05383,-1.656165 -4.56407,-3.036176 l -4.56407,-2.50911 5.13103,-2.471589 c 4.83477,-2.328881 16.83148,-10.651982 17.94091,-12.44708 2.07191,-3.352426 22.50473,3.167637 39.11117,12.480285 29.28864,16.424635 53.82822,39.918017 60.7911,58.199407 1.73701,4.56061 1.98027,6.27479 1.90891,13.45149 -0.0982,9.87026 -1.79485,25.20891 -4.28148,38.70594 -9.04489,49.0939 -33.29287,88.43166 -70.65207,114.61966 -26.91819,18.86908 -63.72509,31.51518 -104.06191,35.7536 -11.68181,1.22748 -34.57783,1.9219 -45.55041,1.38155 z M 68.235166,130.64352 c 11.313618,-7.67166 22.360769,-11.20598 38.931544,-12.4554 3.74197,-0.28214 7.72898,-0.9902 8.86004,-1.57347 5.75385,-2.96719 4.4291,-9.22346 -3.13016,-14.7826 -1.69622,-1.24742 -3.08404,-2.589459 -3.08404,-2.982318 0,-1.407789 2.20969,-1.521317 4.88656,-0.25106 3.74004,1.774768 6.46765,6.683818 8.30108,14.939938 0.39494,1.77848 0.80816,2.08781 2.52474,1.88988 2.00719,-0.23143 2.04864,-0.3395 1.87737,-4.89594 -0.21185,-5.63679 -2.59039,-12.328319 -5.60095,-15.75716 l -2.2193,-2.527647 3.4887,-2.400295 c 15.06295,-10.363578 48.18352,-19.574089 78.99628,-21.968094 11.21737,-0.871538 11.86434,-1.012746 16.03569,-3.499906 2.3907,-1.425448 4.34673,-2.79028 4.34673,-3.032961 0,-0.743138 -24.70641,0.439216 -35.52976,1.700318 -19.24387,2.24223 -39.59124,7.054279 -50.8127,12.016939 -2.2241,0.983604 -8.11472,4.233574 -13.09026,7.222156 -15.61377,9.37849 -28.957913,15.337457 -43.284588,19.32921 l -7.493559,2.08788 -3.135637,6.3225 c -1.724601,3.47737 -3.135637,6.82776 -3.135637,7.44531 0,3.17985 9.704992,-0.88283 14.957769,-6.26158 6.672356,-6.83238 14.631439,-8.78286 22.070302,-5.40862 6.53582,2.96462 7.88345,5.62806 3.22639,6.37657 -12.371415,1.98841 -23.7808,5.47708 -34.923598,10.67864 -8.114154,3.78777 -9.866577,5.11031 -9.866577,7.44624 0,3.41447 2.11518,3.52063 6.803571,0.34147 z"
       style="opacity:0.454248;fill-opacity:1;stroke-width:2.18571;stroke-opacity:1" />
  </g>
</svg>
