<?xml version="1.0" encoding="UTF-8" standalone="no"?>
<svg
   height="341"
   width="935"
   version="1.1"
   id="svg8"
   inkscape:version="1.4 (86a8ad7, 2024-10-11)"
   sodipodi:docname="card-logo.svg"
   xmlns:inkscape="http://www.inkscape.org/namespaces/inkscape"
   xmlns:sodipodi="http://sodipodi.sourceforge.net/DTD/sodipodi-0.dtd"
   xmlns:xlink="http://www.w3.org/1999/xlink"
   xmlns="http://www.w3.org/2000/svg"
   xmlns:svg="http://www.w3.org/2000/svg"
   xmlns:rdf="http://www.w3.org/1999/02/22-rdf-syntax-ns#"
   xmlns:cc="http://creativecommons.org/ns#"
   xmlns:dc="http://purl.org/dc/elements/1.1/">
  <defs
     id="defs2">
    <linearGradient
       id="swatch111"
       inkscape:swatch="solid">
      <stop
         style="stop-color:#14442e;stop-opacity:0.51791531;"
         offset="0"
         id="stop111" />
    </linearGradient>
    <linearGradient
       id="swatch110"
       inkscape:swatch="solid">
      <stop
         style="stop-color:#14442e;stop-opacity:0.45490196;"
         offset="0"
         id="stop110" />
    </linearGradient>
    <linearGradient
       id="swatch83"
       inkscape:swatch="solid">
      <stop
         style="stop-color:#144430;stop-opacity:0;"
         offset="0"
         id="stop83" />
    </linearGradient>
    <linearGradient
       id="swatch70"
       inkscape:swatch="solid">
      <stop
         style="stop-color:#14442e;stop-opacity:0.45490196;"
         offset="0"
         id="stop70" />
    </linearGradient>
    <linearGradient
       id="swatch69"
       inkscape:swatch="solid">
      <stop
         style="stop-color:#00e200;stop-opacity:0;"
         offset="0"
         id="stop69" />
    </linearGradient>
    <inkscape:path-effect
       effect="fillet_chamfer"
       id="path-effect66"
       is_visible="true"
       lpeversion="1"
       nodesatellites_param="F,0,0,1,0,0,0,1 @ F,0,0,1,0,0,0,1 @ F,0,0,1,0,0,0,1 @ F,0,0,1,0,0,0,1"
       radius="0"
       unit="px"
       method="auto"
       mode="F"
       chamfer_steps="1"
       flexible="false"
       use_knot_distance="true"
       apply_no_radius="true"
       apply_with_radius="true"
       only_selected="false"
       hide_knots="false" />
    <clipPath
       id="clipEmfPath1"
       clipPathUnits="userSpaceOnUse">
      <path
         id="path849"
         d="M 0,0 H 106.16995 V 46.492724 H 0 Z" />
    </clipPath>
    <pattern
       y="0"
       x="0"
       height="6"
       width="6"
       patternUnits="userSpaceOnUse"
       id="EMFhbasepattern" />
    <linearGradient
       inkscape:collect="always"
       xlink:href="#swatch70"
       id="linearGradient91"
       gradientUnits="userSpaceOnUse"
       gradientTransform="matrix(2.3293484,0,0,2.3293485,-222.12102,-308.30102)"
       x1="294.14922"
       y1="214.97439"
       x2="565.85193"
       y2="214.97439" />
    <linearGradient
       inkscape:collect="always"
       xlink:href="#swatch111"
       id="linearGradient111"
       x1="463.05499"
       y1="192.44927"
       x2="1095.9446"
       y2="192.44927"
       gradientUnits="userSpaceOnUse" />
  </defs>
  <sodipodi:namedview
     id="base"
     pagecolor="#ffffff"
     bordercolor="#666666"
     borderopacity="1.0"
     inkscape:pageopacity="0.0"
     inkscape:pageshadow="2"
     inkscape:zoom="0.8359833"
     inkscape:cx="458.74122"
     inkscape:cy="122.6101"
     inkscape:document-units="mm"
     inkscape:current-layer="g916"
     inkscape:document-rotation="0"
     showgrid="false"
     inkscape:window-width="1920"
     inkscape:window-height="1017"
     inkscape:window-x="-8"
     inkscape:window-y="-8"
     inkscape:window-maximized="1"
     inkscape:showpageshadow="2"
     inkscape:pagecheckerboard="0"
     inkscape:deskcolor="#d1d1d1"
     showguides="false" />
  <metadata
     id="metadata5">
    <rdf:RDF>
      <cc:Work
         rdf:about="">
        <dc:format>image/svg+xml</dc:format>
        <dc:type
           rdf:resource="http://purl.org/dc/dcmitype/StillImage" />
      </cc:Work>
    </rdf:RDF>
  </metadata>
  <g
     inkscape:label="Layer 1"
     inkscape:groupmode="layer"
     id="layer1">
    <g
       id="g916"
       transform="translate(90.380999,32.037073)"
       style="display:inline">
      <text
         xml:space="preserve"
         style="font-style:normal;font-variant:normal;font-weight:normal;font-stretch:normal;font-size:61.6502px;font-family:Bahnschrift;-inkscape-font-specification:'Bahnschrift, Normal';font-variant-ligatures:normal;font-variant-caps:normal;font-variant-numeric:normal;font-variant-east-asian:normal;text-align:start;writing-mode:lr-tb;direction:ltr;text-anchor:start;display:inline;opacity:1;fill:#134431;fill-opacity:1;fill-rule:nonzero;stroke:#14442e;stroke-width:1.16759;stroke-dasharray:none;stroke-opacity:0.454902"
         x="402.29593"
         y="242.5031"
         id="text69"
         transform="scale(0.87517804,1.1426246)"><tspan
           sodipodi:role="line"
           id="tspan69"
           x="402.29593"
           y="242.5031"
           style="font-style:normal;font-variant:normal;font-weight:normal;font-stretch:normal;font-size:61.6502px;font-family:Bahnschrift;-inkscape-font-specification:'Bahnschrift, Normal';font-variant-ligatures:normal;font-variant-caps:normal;font-variant-numeric:normal;font-variant-east-asian:normal;fill:#134431;fill-opacity:1;fill-rule:nonzero;stroke:#14442e;stroke-width:1.16759;stroke-dasharray:none;stroke-opacity:0.454902">COOPERATIVA LTDA.</tspan></text>
      <path
         d="m 691.93931,8.9902708 c -3.8118,-0.072248 -7.64061,0.1093512 -11.13476,0.5507812 -8.9047,1.12498 -16.45164,3.978348 -22.61328,8.548828 -2.13448,1.58328 -4.91168,4.196768 -6.56641,6.179688 -6.73813,8.07456 -10.7841,18.826053 -12.3457,32.808593 -0.15884,1.42231 -0.28137,2.835125 -0.52735,6.052735 -0.1385,1.81194 -0.2061,80.935744 -0.0723,84.582034 0.6492,17.68696 3.98642,30.45073 10.38476,39.71484 7.50276,10.86319 19.34978,16.55463 36.10157,17.34375 0.76888,0.0362 2.425,0.0711 3.68164,0.0781 9.29327,0.0491 17.51995,-1.30447 24.34179,-4.00391 1.52121,-0.60195 4.80712,-2.21256 6.05274,-2.9668 6.67241,-4.04028 11.48972,-9.33335 15.02929,-16.51172 3.02192,-6.1286 4.88233,-13.19864 5.74805,-21.84375 0.41791,-4.17347 0.51727,-6.51111 0.57617,-13.73632 l 0.0508,-6.28711 H 720.785 700.92367 l -0.0371,8.61523 c -0.0235,5.55346 -0.0701,8.97591 -0.13281,9.63086 -0.59868,6.25862 -1.71184,9.6856 -3.89649,11.99609 -1.40073,1.48135 -3.02075,2.28786 -5.25976,2.61524 -1.11421,0.16292 -3.32919,0.0598 -4.31641,-0.19922 -4.62889,-1.21465 -7.0619,-5.57492 -8.03711,-14.41211 -0.22209,-2.01248 -0.32288,-3.48555 -0.43359,-6.34961 -0.13097,-3.38789 -0.0627,-89.934443 0.0723,-91.652343 0.27083,-3.4479 0.49226,-5.365032 0.83008,-7.195313 0.9,-4.876419 2.43317,-7.915305 4.83008,-9.572265 2.11777,-1.464 5.48851,-1.915438 8.53516,-1.142578 2.11006,0.53524 3.71394,1.663346 4.89453,3.441406 1.45238,2.18731 2.23107,5.175668 2.60937,10.023437 0.0525,0.673011 0.11172,4.635226 0.13672,9.166016 l 0.043,7.980469 h 19.71875 19.7168 v -6.203125 c -5.1e-4,-6.22775 -0.0576,-8.481081 -0.29883,-11.619141 -0.86386,-11.23842 -3.54659,-20.223131 -8.13086,-27.238281 -6.16255,-9.43026 -15.77354,-15.245378 -28.79883,-17.4238281 -3.42328,-0.57254 -7.2175,-0.8984556 -11.0293,-0.9707031 z m -337.3125,3.0019532 v 94.912106 94.91016 h 42.20508 c 23.21348,0 42.20703,-0.0283 42.20703,-0.0625 0,-0.0342 0.79945,-7.51794 1.77735,-16.63086 0.9779,-9.11291 1.77929,-16.62807 1.77929,-16.70117 0,-0.12034 -2.28617,-0.13281 -24.34179,-0.13281 h -24.3418 V 90.140661 11.992224 h -19.64258 z m 100.75196,0 v 94.912106 94.91016 h 19.60156 19.59961 V 106.90433 11.992224 h -19.59961 z m 59.6914,0 v 94.912106 94.91016 h 17.70313 17.70312 l -0.041,-24.36133 c -0.0222,-13.39956 -0.0825,-26.21222 -0.13282,-28.4707 -0.0503,-2.25848 -0.13048,-5.93472 -0.17968,-8.16992 -0.45482,-20.67036 -1.41276,-45.537452 -2.2461,-58.292972 -0.0685,-1.04775 -0.125,-1.990933 -0.125,-2.095703 -2.8e-4,-0.177801 0.0348,-0.189454 0.54297,-0.189454 h 0.54492 l 0.0977,0.486329 c 0.34146,1.686109 3.78955,17.951898 5.41602,25.54883 7.33648,34.26727 13.42233,61.40993 18.33398,81.78711 0.61833,2.5653 3.21842,12.96443 3.39258,13.56836 l 0.0547,0.18945 h 21.79101 21.79297 V 106.90433 11.992224 h -18.03516 -18.0332 v 18.77539 c 5.6e-4,21.068981 0.0701,27.207175 0.4668,40.703126 0.54014,18.375989 1.51101,37.47716 2.66992,52.57812 0.13938,1.8161 0.26078,3.49178 0.27148,3.72461 l 0.0195,0.42383 h -0.46485 -0.46484 l -0.19922,-0.97265 C 583.89532,117.10721 577.80887,90.340834 572.74009,69.142615 567.36461,46.661754 561.72382,24.586839 558.39634,13.007849 l -0.27929,-0.972656 -21.52344,-0.02149 z m 240.28321,0 v 94.912106 94.91016 h 42.16015 42.16016 l 0.0488,-0.27539 c 0.0265,-0.15134 1.05742,-7.57076 2.29101,-16.48828 1.2336,-8.91751 2.26462,-16.31725 2.29102,-16.44531 l 0.0469,-0.23438 h -24.89843 -24.89844 v -24.63672 -24.63867 h 21.3789 21.37696 V 102.33207 85.568396 h -21.37696 -21.3789 V 65.628943 45.689489 h 22.47851 22.47852 V 28.841833 11.992224 h -42.07813 z"
         style="display:inline;fill:#134431;stroke-width:0.0846667"
         id="path50"
         sodipodi:insensitive="true" />
      <path
         d="m 206.51549,-23.56637 c -0.0298,0 -0.88334,0.470585 -1.89649,1.046875 -23.9055,13.5976196 -49.71725,24.325897 -74.35937,30.904297 -14.9268,3.984831 -30.06034,6.570001 -41.443363,7.082031 -1.85143,0.08328 -2.436489,0.149029 -4.658204,0.511719 -8.10839,1.32367 -17.708827,3.512114 -26.710937,6.089844 C 34.251786,28.710326 14.670433,37.801723 -0.08607713,48.779333 -14.219607,59.293503 -23.934017,71.717611 -28.617327,85.271521 l -0.439453,1.271484 -3.421875,2.863281 c -13.764204,11.526004 -21.220846,17.988964 -27.759766,24.056644 -2.42321,2.24857 -7.449692,7.27763 -9.013672,9.01953 -5.89456,6.56513 -8.837065,11.29874 -12.265625,19.72851 -1.03366,2.54146 -2.597656,6.58202 -2.597656,6.70899 0,0.13943 1.501124,2.30057 2.839844,4.08594 1.90274,2.53795 3.665592,4.47479 4.414062,4.85156 0.17785,0.0895 0.609735,0.18995 0.958985,0.22265 2.46322,0.23071 5.756503,1.00788 7.251953,1.71094 1.27001,0.59707 1.479897,0.86305 2.992187,3.79688 1.99515,3.87056 2.953193,5.27628 3.970703,5.83008 0.73106,0.3979 3.121273,0.89429 4.351563,0.90429 l 0.355469,0.004 0.455078,1.16015 c 1.17566,3.00401 3.207943,6.7526 5.496093,10.13672 5.709121,8.44366 13.279089,15.11878 22.074219,19.4668 0.79164,0.39135 1.662387,0.80969 1.935547,0.92969 l 0.496094,0.21875 -0.04297,-0.18946 c -0.02397,-0.1046 -0.482821,-1.92418 -1.019531,-4.04296 -3.25649,-12.85576 -3.749858,-18.56296 -2.048828,-23.67579 1.14151,-3.43107 3.117786,-6.23552 7.410156,-10.51757 0.90805,-0.90586 2.012315,-1.96994 2.453125,-2.36328 4.65736,-4.15593 12.3698362,-7.06826 21.2539062,-8.0254 1.7108701,-0.18434 5.8717694,-0.25425 7.6621094,-0.1289 8.1829794,0.57297 14.9933814,3.04125 20.4882814,7.42578 1.27278,1.01558 3.563993,3.31819 4.595703,4.61914 0.93951,1.1847 2.030318,2.79413 2.767578,4.08203 2.63023,4.59467 4.429651,10.6518 4.869141,16.38867 0.11098,1.45136 0.1111,5.3267 0,6.65039 -0.745,8.87663 -4.160605,16.34711 -10.240235,22.39454 -3.05798,3.04178 -6.51631,5.47494 -10.71289,7.53906 -5.11823,2.51744 -10.329031,3.99033 -16.2128909,4.58203 -1.39059,0.13942 -5.17770124,0.13856 -6.5195312,-0.002 -4.58099,-0.47966 -8.0910836,-1.78835 -10.2773439,-3.83008 -0.35465,-0.3312 -0.644531,-0.5848 -0.644531,-0.5625 0,0.14013 0.508624,1.35886 0.927734,2.2207 1.32694,2.72868 3.2067596,5.28739 5.7558596,7.83789 2.52758,2.52898 5.0086575,4.41966 8.4296875,6.42188 2.00177,1.17157 5.2943519,2.73486 7.4199219,3.52343 l 0.646484,0.24024 0.140625,0.51367 c 0.20759,0.7524 0.899251,2.0971 1.525391,2.9668 2.18247,3.03137 6.164066,5.96724 11.941406,8.80468 3.27413,1.60803 7.452251,3.29134 9.681641,3.90235 4.12548,1.13067 8.5092,1.48596 12,0.97265 3.30163,-0.48549 5.896967,-1.6674 7.898437,-3.5996 1.30096,-1.25592 1.710397,-1.88033 3.310547,-5.04102 4.0498,-7.99935 7.123287,-13.05925 11.253906,-18.5293 10.2549,-13.58025 23.50297,-23.90276 39.083988,-30.45312 12.07114,-5.07478 25.37713,-7.93522 40.34375,-8.67188 2.154,-0.10606 6.9987,-0.21224 6.9414,-0.15234 -0.0233,0.0243 -1.31892,0.53006 -2.8789,1.12305 -20.78886,7.90238 -36.17913,15.61512 -42.90039,21.49804 -0.81301,0.71162 -1.89077,1.85288 -1.88477,1.99414 0.001,0.0247 0.50393,0.31075 1.11914,0.63672 2.67845,1.41916 6.59254,3.90947 9.08008,5.77735 4.93661,3.70688 8.21596,7.29663 9.61719,10.52734 0.35243,0.81255 0.78464,2.26093 1.08398,3.63477 2.29059,10.51289 -0.6768,21.90261 -8.35547,32.08203 -9.47016,12.55436 -25.604744,23.41933 -48.675779,32.77539 -0.61554,0.24962 -1.104837,0.46938 -1.085937,0.48828 0.05246,0.0525 1.093167,0.15952 3.404297,0.34961 3.88506,0.31955 8.355615,0.55608 12.90625,0.68359 3.05585,0.0857 13.965542,0.0326 16.966799,-0.082 27.26724,-1.04179 51.72088,-5.21314 74.54883,-12.71875 33.24973,-10.93219 60.64202,-28.61217 80.97851,-52.26562 26.41193,-30.71984 41.11593,-71.16484 44.1543,-121.45508 0.42331,-7.00638 0.42329,-9.0114 0,-11.60742 C 301.47463,99.854195 297.34053,91.660703 290.6483,83.222693 280.77642,70.775533 265.65137,57.806005 248.49595,47.074255 230.73945,35.966485 213.76066,29.120637 202.72447,28.619177 l -1.22461,-0.05664 -1.60547,1.378907 c -8.88457,7.62659 -17.61973,13.10311 -23.01758,14.43164 l -0.75195,0.185547 5.04492,2.914063 c 4.21135,2.43433 5.01376,2.928528 4.85938,2.986328 -0.34749,0.13006 -1.77062,0.396867 -2.79297,0.523437 -5.1063,0.63217 -10.99352,-0.261713 -16.86524,-2.558594 -1.57011,-0.6142 -4.94697,-2.279952 -6.47461,-3.195312 -1.60924,-0.96426 -3.3485,-2.106619 -3.2539,-2.136719 0.0413,-0.01316 0.83819,-0.211186 1.76953,-0.441406 10.67379,-2.63861 19.54438,-6.955888 26.625,-12.955078 11.98986,-10.15864 19.01932,-25.2401387 20.99414,-45.048828 0.31127,-3.1222 0.61156,-8.212891 0.48438,-8.212892 z m -74.68946,52.808594 c -0.0466,0.04577 -2.06206,1.310127 -4.47851,2.810547 l -4.39258,2.728515 -2.67774,0.07617 c -11.72046,0.33615 -25.323068,1.954801 -38.023433,4.525391 -14.02723,2.83915 -26.833279,6.782819 -38.480469,11.849609 -5.31637,2.31274 -12.465404,6.510099 -15.402344,9.042969 l -0.328125,0.283203 0.480469,0.236328 c 1.73164,0.84721 3.788329,3.124868 5.068359,5.611328 1.38047,2.68157 2.452085,6.246879 3.109375,10.355469 0.23487,1.46808 0.508663,3.845307 0.507813,4.404297 -0.0012,1.23334 -1.044782,2.204219 -2.363282,2.199219 -0.591819,-0.0023 -1.056898,-0.211315 -1.449218,-0.646485 -0.361,-0.40043 -0.456828,-0.746765 -0.580078,-2.103515 -0.36159,-3.98031 -2.486153,-9.155825 -4.945313,-12.052735 -2.04404,-2.40791 -4.711077,-3.58249 -7.367187,-3.24414 -0.73331,0.09341 -0.87779,0.181454 -1.25586,0.771484 -0.34104,0.53268 -0.33842,1.170001 0.0059,1.712891 0.27608,0.43534 0.954881,1.029915 1.832031,1.603515 3.52293,2.30378 3.721762,2.467297 4.919922,3.998047 1.96198,2.50658 2.417671,3.207835 2.800781,4.328125 0.32569,0.95263 0.324987,2.107679 -0.002,2.949219 -0.30563,0.7867 -0.745687,1.425298 -1.498047,2.179688 -2.11367,2.119399 -3.659973,2.549584 -10.626953,2.958984 -6.49418,0.38161 -9.4550108,0.711294 -13.4316408,1.490234 -7.69318,1.50694 -15.1587332,4.460582 -22.7207032,8.988282 -1.92787,1.1543 -3.861972,2.433501 -4.695312,3.107421 -0.39397,0.31859 -0.995988,0.711606 -1.335938,0.873046 -0.85996,0.40839 -1.510465,0.45466 -2.109375,0.15039 -1.45509,-0.739218 -1.392014,-3.012264 0.128906,-4.634764 0.63927,-0.68196 1.159729,-0.99091 4.455078,-2.65039 13.7866507,-6.9427 29.2684263,-11.828439 40.259766,-12.705078 0.65239,-0.05203 0.752355,-0.08586 1.078125,-0.34961 1.56542,-1.26744 0.821679,-3.242121 -1.900391,-5.050781 -4.298209,-2.85593 -10.8578326,-4.208511 -15.2519526,-3.144531 -1.11076004,0.26896 -2.8297025,0.946213 -4.2890625,1.689453 -4.00434,2.03936 -7.1279859,4.810049 -8.8164059,7.818359 l -0.40625,0.722656 -1.47461,0.708985 c -4.42063,2.12273 -7.875631,3.411006 -9.144531,3.410156 -0.86371,-2.9e-4 -1.405784,-0.598184 -1.208984,-1.333984 0.07364,-0.27537 6.263176,-12.797872 6.404296,-12.957032 0.01238,-0.01396 1.654221,-0.438619 3.650391,-0.943359 3.99842,-1.011 4.9827651,-1.279618 7.6093751,-2.080078 10.83878,-3.30316 22.2672399,-8.352058 33.7812499,-14.923828 3.55604,-2.02966 6.052521,-3.549656 10.837891,-6.597657 1.71561,-1.092739 4.434173,-2.483383 7.564453,-3.871093 17.67825,-7.83707 45.255888,-12.89781 77.314454,-14.1875 3.40022,-0.13678 8.94575,-0.203822 8.84765,-0.107422 z"
         style="display:inline;fill:#134431;stroke-width:0.0846667"
         id="path49"
         sodipodi:insensitive="true" />
      <path
         transform="scale(0.26458333)"
         id="path870"
         d="m 293.69247,1150.9376 -24.03529,-1.1837 47.05518,-23.4484 c 52.08862,-25.9566 83.83528,-47.3585 112.37145,-75.7548 49.2672,-49.0257 68.00117,-104.95199 52.94092,-158.04404 -4.26997,-15.05295 -22.73286,-34.43829 -50.21597,-52.72495 -13.24906,-8.8156 -23.36475,-17.20054 -22.47932,-18.6332 7.08774,-11.4682 78.17109,-49.1956 136.96977,-72.69654 18.85715,-7.53691 35.57143,-14.92877 37.14286,-16.42631 3.85963,-3.67815 -55.7746,0.006 -87.14286,5.38351 -56.864,9.7484 -110.75234,30.91046 -155.98034,61.25377 -12.42509,8.33595 -35.44823,28.12492 -51.16251,43.97546 -29.81752,30.07606 -47.21989,53.78509 -67.44212,91.88334 -20.24717,38.14529 -31.81811,46.90683 -61.94754,46.90683 -22.02277,0 -42.21037,-6.18166 -73.137259,-22.3954 -23.759,-12.45591 -44.615943,-30.69768 -44.615943,-39.02168 0,-1.78515 -6.75,-6.06266 -15,-9.50563 -19.3257425,-8.06523 -44.766343,-27.23983 -57.654657,-43.45435 -5.580857,-7.0212 -10.159503,-13.67305 -10.174754,-14.78191 -0.01514,-1.10886 5.276774,-0.14457 11.760068,2.14286 15.526058,5.47791 52.9268,5.30417 74.942658,-0.34815 54.345687,-13.95262 96.721947,-52.74837 108.862857,-99.6646 5.63071,-21.75885 5.64531,-58.44374 0.0317,-79.99528 -9.765,-37.49032 -33.68717,-67.82463 -65.075996,-82.51909 -40.383286,-18.90514 -101.754114,-17.7604 -142.746763,2.66263 -19.15764,9.54457 -46.144691,35.70074 -55.739601,54.02346 -9.59381,18.3206 -9.83545,45.814 -0.73623,83.76428 3.51061,14.6418 5.88633,27.11806 5.27936,27.725 -1.80577,1.8058 -36.99474,-21.34588 -50.46164,-33.19991 -18.34366,-16.14686 -39.39015,-43.51029 -50.62519,-65.82009 -8.22938,-16.34137 -11.06176,-19.61214 -16.98346,-19.61214 -8.15194,0 -12.65548,-4.32217 -25.26428,-24.2468 -8.31579,-13.14074 -10.42772,-14.62786 -27.20345,-19.15523 -10.00326,-2.69963 -18.43589,-5.28857 -18.73918,-5.7532 -0.30329,-0.46463 -5.51721,-7.03945 -11.58648,-14.61077 -10.68744,-13.33237 -10.9217,-14.09737 -7.43673,-24.28571 1.97907,-5.78583 9.25629,-22.12589 16.17161,-36.3112 18.96707,-38.90695 50.66243,-72.25877 145.25149,-152.8426 41.5596,-35.40615 43.4129,-37.45063 50.94145,-56.19726 12.137205,-30.22246 29.103591,-53.97731 61.95868,-86.74917 C -1.5749588,184.72939 33.942841,160.47275 90.71367,133.22562 141.05224,109.06565 192.83047,90.916009 254.24233,75.904506 299.60881,64.815126 315.48444,62.182209 376.29921,55.66182 480.6507,44.473546 613.64416,0.55906857 735.96193,-63.098895 c 22.60023,-11.761851 41.71477,-20.7617 42.47683,-19.999664 2.41725,2.417278 -4.66863,53.753245 -10.68972,77.4449476 -11.19237,44.0396284 -38.85931,90.7594374 -68.38657,115.4810414 -21.96814,18.39277 -50.8136,33.90049 -80.86383,43.47352 -15.29031,4.87099 -27.08751,10.01012 -26.216,11.42027 3.61329,5.84638 43.40066,23.19827 62.27289,27.15816 19.48651,4.08877 50.31511,3.21537 50.31511,-1.42547 0,-1.09563 -7.76251,-6.25952 -17.25003,-11.47531 l -17.25003,-9.48325 19.39289,-9.34144 c 18.27314,-8.80207 63.61503,-40.25946 67.80814,-47.04408 7.83086,-12.67059 85.05726,11.97217 147.82177,47.16958 110.69722,62.07736 203.44522,150.87125 229.76162,219.96628 6.5651,17.23694 7.4845,23.71571 7.2148,50.84025 -0.371,37.30492 -6.7837,95.2778 -16.182,146.29017 -34.1854,185.55175 -125.8313,334.22992 -267.03144,433.20819 -101.73803,71.3162 -240.85075,119.1125 -393.30486,135.1317 -44.15174,4.6393 -130.68786,7.2639 -172.15903,5.2216 z M -83.700787,372.6858 c 42.760131,-28.99526 84.51314246,-42.35331 147.142857,-47.07554 14.142857,-1.06635 29.211885,-3.74249 33.486743,-5.94697 21.746827,-11.21458 16.739917,-34.86032 -11.830515,-55.87126 -6.410914,-4.71466 -11.656228,-9.78692 -11.656228,-11.27174 0,-5.32078 8.3516,-5.74986 18.468885,-0.94889 14.135605,6.7078 24.444685,25.26169 31.374175,56.46591 1.49268,6.72183 3.05448,7.89092 9.54231,7.14286 7.58626,-0.87471 7.74289,-1.28314 7.0956,-18.50434 -0.80071,-21.3044 -9.79048,-46.59523 -21.16897,-59.55463 l -8.38791,-9.55331 13.18565,-9.07198 c 56.93083,-39.16943 182.11095,-73.98081 298.56863,-83.02902 42.39634,-3.294 44.8416,-3.8277 60.60734,-13.22799 9.03572,-5.38752 16.42858,-10.54594 16.42858,-11.46316 0,-2.80871 -93.37855,1.66003 -134.28572,6.4264 -72.73274,8.47457 -149.63617,26.66184 -192.048,45.41835 -8.40603,3.71756 -30.6698,16.00091 -49.475,27.29634 -59.012685,35.44626 -109.447227,57.96834 -163.59529,73.05528 l -28.322112,7.8912 -11.851228,23.89606 c -6.518175,13.14283 -11.851226,25.80572 -11.851226,28.13977 0,12.01832 36.680286,-3.33668 56.533303,-23.66583 25.218354,-25.82317 55.299926,-33.19505 83.415326,-20.44202 24.702285,11.20485 29.795714,21.2714 12.194228,24.10042 -46.758114,7.51526 -89.8802,20.70078 -131.994714,40.36023 -30.667667,14.31597 -37.290997,19.31455 -37.290997,28.14326 0,12.90506 7.99438,13.30631 25.714283,1.2906 z"
         style="display:inline;opacity:0.454248;fill:#134431;fill-opacity:1;stroke:#144734;stroke-width:8.26097;stroke-opacity:1"
         sodipodi:insensitive="true" />
      <path
         transform="scale(0.26458333)"
         id="path872"
         d="M 1341.2508,404.28571 V 47.142857 h 72.8572 72.8571 V 342.85714 638.57143 h 91.4286 91.4286 l -0.062,7.85714 c -0.034,4.32143 -2.5777,30.35714 -5.6522,57.85714 -3.0745,27.5 -5.618,51.60715 -5.6521,53.57143 -0.049,2.81349 -33.7145,3.57143 -158.6337,3.57143 h -158.5715 z"
         style="display:inline;opacity:0.454248;fill:#134431;fill-opacity:1;stroke:#144734;stroke-width:8.26097;stroke-opacity:1"
         sodipodi:insensitive="true" />
      <path
         id="path874"
         d="M 1721.2508,404.28571 V 47.142857 h 72.8572 72.8571 V 404.28571 761.42857 h -72.8571 -72.8572 z"
         style="display:inline;opacity:0.454248;fill:#134431;fill-opacity:1;stroke:#144734;stroke-width:8.26097;stroke-opacity:1"
         transform="scale(0.26458333)"
         sodipodi:insensitive="true" />
      <path
         transform="scale(0.26458333)"
         id="path876"
         d="M 1946.9651,404.28571 V 47.142857 h 81.0955 81.0955 l 1.4279,6.428572 c 0.7854,3.535714 11.8186,46.928571 24.5184,96.428571 21.686,84.52579 52.9584,216.2974 70.5189,297.14286 7.0986,32.6806 10.7309,43.13531 13.8313,39.80951 0.6348,-0.68094 -0.5447,-25.66666 -2.6212,-55.5238 -5.4444,-78.28594 -9.8663,-215.40591 -9.8663,-305.95052 V 47.142857 h 67.1429 67.1428 V 404.28571 761.42857 h -81.1871 -81.1872 l -15.7837,-65 c -17.4054,-71.67866 -37.1853,-159.9364 -67.2921,-300.25666 -10.9038,-50.81971 -20.5667,-93.14114 -21.4732,-94.0476 -4.591,-4.59098 -4.9023,7.31212 -1.7905,68.45049 1.8635,36.61243 4.1231,139.53234 5.0213,228.71091 l 1.6332,162.14286 h -66.1132 -66.1132 z"
         style="display:inline;opacity:0.454248;fill:#134431;fill-opacity:1;stroke:#144734;stroke-width:8.26097;stroke-opacity:1"
         sodipodi:insensitive="true" />
      <path
         transform="scale(0.26458333)"
         id="path878"
         d="m 2556.9651,768.83469 c -68.438,-13.30886 -108.1973,-50.21709 -128.0971,-118.91152 -12.0407,-41.5648 -13.3159,-65.24143 -13.3066,-247.06603 0.011,-210.02969 1.7318,-226.36383 29.4978,-279.96662 20.5097,-39.59446 56.1918,-67.747018 101.9059,-80.402007 26.2717,-7.272773 99.3632,-7.285555 125.7143,-0.02197 56.3217,15.524808 92.3863,48.746862 109.7,101.053447 9.5341,28.80375 13.0307,54.3641 13.1005,95.76574 l 0.057,33.57141 h -72.5035 -72.5036 l -1.3114,-42.14285 c -1.9141,-61.51333 -8.6165,-73.57143 -40.8941,-73.57143 -21.9263,0 -30.3065,6.30139 -37.7737,28.40367 -4.375,12.94986 -4.9762,34.36376 -5.7782,205.84138 -0.9131,195.23715 0.1157,220.20695 9.9252,240.87883 8.8522,18.65455 33.2799,26.12377 52.6602,16.10183 15.7636,-8.15168 20.6449,-24.78988 21.9437,-74.79714 L 2650.4328,530 h 74.4205 74.4204 l -1.9096,39.28571 c -3.7072,76.26595 -18.8265,121.0974 -52.0424,154.31466 -19.341,19.3418 -45.9158,33.9332 -76.928,42.23886 -23.5738,6.31351 -85.7686,7.98546 -111.4286,2.99546 z"
         style="display:inline;opacity:0.454248;fill:#134431;fill-opacity:1;stroke:#144734;stroke-width:8.26097;stroke-opacity:1"
         sodipodi:insensitive="true" />
      <path
         transform="scale(0.26458333)"
         id="path880"
         d="M 2855.5365,404.28571 V 47.142857 h 158.5715 158.5714 V 108.57143 170 h -85.7143 -85.7143 v 77.14286 77.14285 h 81.4286 81.4286 V 387.14286 450 h -81.4286 -81.4286 v 94.28571 94.28572 h 94.2143 94.2143 l -1.3337,7.85714 c -2.1553,12.69686 -15.6663,109.68706 -15.6663,112.46223 0,1.44846 -68.0663,2.53777 -158.5714,2.53777 h -158.5715 z"
         style="display:inline;opacity:0.454248;fill:#134431;fill-opacity:1;stroke:#144734;stroke-width:8.26097;stroke-opacity:1"
         sodipodi:insensitive="true" />
      <path
         style="fill:#000000;fill-opacity:0"
         d="m 604.30991,244.88234 c 0.0997,0.49841 -0.19936,1.59493 0.29905,1.49524 0.49842,-0.0997 -0.69595,-1.81277 -0.29905,-1.49524 0.2561,0.20487 3.79133,5.85257 3.88764,5.98098 1.27157,1.69543 2.89453,3.10498 4.18669,4.78478 0.43827,0.56976 0.68791,1.28601 1.19619,1.7943 4.75924,4.75923 2.14222,0.77924 4.18669,4.18668"
         id="path64" />
    </g>
  </g>
</svg>
