<?xml version="1.0" encoding="UTF-8" standalone="no"?>
<svg
   xmlns:dc="http://purl.org/dc/elements/1.1/"
   xmlns:cc="http://creativecommons.org/ns#"
   xmlns:rdf="http://www.w3.org/1999/02/22-rdf-syntax-ns#"
   xmlns:svg="http://www.w3.org/2000/svg"
   xmlns="http://www.w3.org/2000/svg"
   xmlns:sodipodi="http://sodipodi.sourceforge.net/DTD/sodipodi-0.dtd"
   xmlns:inkscape="http://www.inkscape.org/namespaces/inkscape"
   sodipodi:docname="firma_tesorero.svg"
   inkscape:version="1.0 (4035a4fb49, 2020-05-01)"
   id="svg8"
   version="1.1"
   viewBox="0 0 210 297"
   height="297mm"
   width="210mm">
  <defs
     id="defs2" />
  <sodipodi:namedview
     inkscape:window-maximized="0"
     inkscape:window-y="0"
     inkscape:window-x="73"
     inkscape:window-height="860"
     inkscape:window-width="1375"
     showgrid="false"
     inkscape:document-rotation="0"
     inkscape:current-layer="layer1"
     inkscape:document-units="mm"
     inkscape:cy="421.47787"
     inkscape:cx="334.40207"
     inkscape:zoom="0.7"
     inkscape:pageshadow="2"
     inkscape:pageopacity="0.0"
     borderopacity="1.0"
     bordercolor="#666666"
     pagecolor="#ffffff"
     id="base" />
  <metadata
     id="metadata5">
    <rdf:RDF>
      <cc:Work
         rdf:about="">
        <dc:format>image/svg+xml</dc:format>
        <dc:type
           rdf:resource="http://purl.org/dc/dcmitype/StillImage" />
        <dc:title></dc:title>
      </cc:Work>
    </rdf:RDF>
  </metadata>
  <g
     id="layer1"
     inkscape:groupmode="layer"
     inkscape:label="Layer 1">
    <path
       d="M 482.42773,51.542969 C 470.90603,51.517268 466.99247,51.879263 463,53.333984 450.96107,57.720583 444.5,60.741628 444.5,61.986328 444.5,62.543476 443.1658,63 441.53516,63 c -1.90194,0 -3.33386,0.690085 -3.99414,1.923828 -0.5661,1.05778 -3.59256,3.389665 -6.72461,5.181641 C 424.95496,73.45904 413.5,84.375097 413.5,86.607422 c 0,0.690845 -1.34997,2.217674 -3,3.392578 -1.64999,1.174904 -3,2.695065 -3,3.378906 0,0.683838 -0.92548,2.235217 -2.05469,3.447266 -1.12917,1.212049 -3.88141,5.685338 -6.11719,9.939448 -2.23576,4.25417 -4.68514,8.44228 -5.44335,9.3086 -0.75825,0.86632 -1.48075,2.80868 -1.60547,4.31445 -0.12465,1.50577 -0.80171,3.21413 -1.50391,3.79688 -1.5597,1.29449 -1.70827,3.19908 -0.17578,2.25195 0.76048,-0.46991 0.82274,-0.10188 0.20312,1.19141 -0.49277,1.02887 -0.82603,5.47109 -0.74023,9.87109 0.13739,7.03314 0.57934,8.80813 3.65039,14.67969 4.03257,7.70988 3.65726,10.28886 -1.01367,6.96289 C 391.04496,157.96463 389.47878,157 389.21875,157 c -0.82689,0 0.38594,9.33911 1.7793,13.69531 1.33511,4.17408 1.04447,8.30469 -0.58594,8.30469 -0.47014,0 -1.24288,1.4625 -1.7168,3.25 -0.90569,3.41592 0.8632,7.74339 3.16992,7.75586 0.62423,0.003 2.41853,0.67545 3.98829,1.49414 1.56971,0.8187 3.18385,1.28487 3.58789,1.03516 0.40407,-0.24972 1.73705,1.32823 2.96093,3.50586 1.22393,2.17763 2.59661,3.95898 3.05078,3.95898 0.45423,0 1.778,2.025 2.94141,4.5 1.16338,2.475 2.44968,4.54854 2.85938,4.60742 0.40966,0.0589 3.35732,0.23543 6.54882,0.39258 4.93157,0.24288 5.75638,0.0388 5.49219,-1.35742 -0.19616,-1.03653 -1.5074,-1.75737 -3.55273,-1.95508 -2.4319,-0.23507 -3.24219,-0.79718 -3.24219,-2.25 0,-1.09217 0.68406,-1.9375 1.56836,-1.9375 1.34604,0 1.30047,-0.38958 -0.32227,-2.75 -1.03978,-1.5125 -2.92535,-5.225 -4.18945,-8.25 -2.96564,-7.09685 -6.55457,-13.23462 -9.06641,-15.50781 -1.09508,-0.99104 -1.99023,-2.42253 -1.99023,-3.18164 0,-0.75911 -0.71735,-2.47496 -1.59375,-3.8125 -1.47402,-2.24966 -1.44051,-2.94015 0.45508,-9.21485 1.12702,-3.73062 2.18198,-8.1332 2.34375,-9.7832 0.2341,-2.38635 0.75516,-2.98312 2.54492,-2.91992 1.23753,0.0437 2.25,-0.4927 2.25,-1.19141 0,-1.80046 -1.72981,-2.64795 -2.33594,-1.14453 -0.31026,0.7691 -0.53756,0.58866 -0.58594,-0.46484 -0.0434,-0.94642 1.21981,-3.64642 2.80665,-6 C 418.50989,122.76147 427.5,108.72356 427.5,107.92969 427.5,107.41881 428.07755,107 428.78516,107 c 0.7076,0 2.96645,-2.25 5.01953,-5 2.05304,-2.750003 4.2293,-5 4.83593,-5 0.74113,0 0.69568,-0.492299 -0.14062,-1.5 -2.02352,-2.438203 -3.81846,-1.747849 -6.5,2.5 -1.38883,2.2 -2.97059,4 -3.51367,4 -0.54312,0 -0.98633,0.88007 -0.98633,1.95508 0,1.075 -1.01251,3.06051 -2.25,4.41211 -4.48558,4.89915 -13.75,18.7182 -13.75,20.50976 0,0.61815 -0.35498,1.12305 -0.78906,1.12305 -0.43408,0 -1.89659,2.51932 -3.25,5.59766 -1.35345,3.07833 -3.30294,6.04795 -4.33203,6.59961 -1.72479,0.9246 -1.81516,0.70132 -1.15821,-2.84766 0.3919,-2.11749 0.72915,-5.74961 0.74805,-8.07227 0.0277,-3.2818 0.46786,-4.35967 1.97461,-4.83789 1.40285,-0.44523 1.85908,-1.36855 1.65234,-3.33984 -0.1731,-1.65048 0.58895,-3.83747 1.9336,-5.54688 1.22082,-1.55204 2.22167,-3.32417 2.22265,-3.9375 0.003,-1.53279 6.82715,-11.35088 10.85352,-15.61523 11.11049,-11.767234 14.16156,-14.51283 18.74609,-16.873047 2.80615,-1.444683 7.08118,-3.964525 9.5,-5.599609 4.48067,-3.028868 9.00665,-5.050137 14.42188,-6.439453 1.66291,-0.426637 3.91293,-1.24234 5,-1.8125 2.16215,-1.134044 8.27695,-0.580074 10.16211,0.919921 0.75167,0.598118 1.91722,0.552738 3.18359,-0.125 4.61465,-2.469685 17.50439,-0.51411 24.24805,3.679688 1.98992,1.2375 4.59141,2.25 5.78125,2.25 1.18983,0 2.43044,0.694544 2.75586,1.542969 0.32557,0.848428 2.29821,2.413086 4.38281,3.476562 7.34404,3.746635 26.9829,25.672369 33.12305,36.980469 1.64254,3.025 4.75241,8.50462 6.91211,12.17578 2.15973,3.67116 3.92773,7.10098 3.92773,7.62305 0,0.52207 1.10671,2.92817 2.45898,5.34765 1.35228,2.41947 3.08624,7.08991 3.85352,10.37891 0.76728,3.289 2.34113,7.83581 3.49805,10.10352 1.15687,2.26769 1.84898,4.37761 1.53906,4.6875 -0.30985,0.30987 0.46164,3.62731 1.71289,7.37304 2.11695,6.3373 3.25432,12.19108 4.52734,23.31055 0.28339,2.475 0.92883,5.4 1.43555,6.5 0.50676,1.1 1.34179,4.925 1.85547,8.5 0.51364,3.575 1.15926,7.625 1.43555,9 0.27624,1.375 0.84467,9.025 1.26367,17 0.96034,18.27884 0.97281,18.44585 1.85937,24.71484 0.47142,3.33353 0.30511,6.52846 -0.46289,8.85547 -0.95754,2.90187 -0.93677,4.13659 0.10547,6.08399 1.07286,2.00441 1.08299,7.14798 0.0586,28.64453 -1.56418,32.82185 -1.91195,37.76329 -3.17968,45.20117 -0.56255,3.30002 -0.97668,7.80001 -0.92188,10 0.055,2.20003 -0.14805,5.80001 -0.45117,8 -0.30319,2.19999 -0.61021,5.91251 -0.68164,8.25 -0.0716,2.33752 -0.55513,4.25 -1.07617,4.25 -0.52082,0 -0.66986,0.45 -0.33008,1 0.33986,0.55 0.20387,1 -0.30273,1 -0.50657,0 -1.22494,3.34893 -1.59571,7.44141 -0.37084,4.09247 -1.35368,9.72678 -2.18359,12.52148 -0.8301,2.7947 -1.25404,5.49353 -0.94336,5.99609 0.3106,0.50261 0.0723,2.85386 -0.5293,5.22657 -0.60162,2.37275 -1.06539,5.43942 -1.03515,6.81445 0.077,3.29991 -5.07616,23.05822 -8.73633,33.5 -2.773,7.91078 -8.63497,26.71778 -10.22071,32.78906 -0.97533,3.73436 -2.24756,7.36142 -2.82617,8.0586 -0.5786,0.69717 -1.70127,3.71548 -2.49414,6.70898 -0.79283,2.99346 -1.98911,6.79333 -2.6582,8.44336 -0.66905,1.64999 -1.35651,3.90001 -1.52734,5 -0.17091,1.09999 -1.68244,5.82499 -3.35938,10.5 -1.67694,4.67497 -3.05702,10.16552 -3.06836,12.20117 -0.0109,2.03569 -0.71433,6.31065 -1.5625,9.5 -0.99885,3.75583 -1.52633,10.0242 -1.49609,17.79102 0.0399,10.62474 0.32383,12.56227 2.48633,17 1.34237,2.75471 2.72417,6.46413 3.07226,8.24414 0.52471,2.6832 4.34341,6.86521 6.48047,7.09765 0.275,0.0299 3.10109,1.2058 6.2793,2.61133 3.17816,1.40557 6.55319,2.56281 7.5,2.57031 0.94628,0.008 2.37289,0.42869 3.17187,0.9336 h 0.002 c 0.79854,0.50467 1.84094,0.67863 2.31641,0.38476 0.47577,-0.29404 4.5464,-0.67972 9.04688,-0.85546 8.92471,-0.34848 17.99292,-2.16892 17.19921,-3.45313 -0.53535,-0.8663 3.18185,-1.65901 13.3379,-2.8457 4.04715,-0.4729 6.78695,-1.33701 7.54882,-2.37891 0.65783,-0.89964 2.86129,-1.94632 4.89649,-2.32812 2.1575,-0.40475 3.70117,-1.2743 3.70117,-2.08399 0,-0.7638 0.3375,-1.2966 0.75,-1.18359 0.4125,0.11308 2.17527,-0.55338 3.91797,-1.48242 1.7427,-0.92905 5.6992,-2.63737 8.79297,-3.79493 3.09377,-1.15751 6.79721,-3.18912 8.22851,-4.51562 1.43135,-1.3265 3.23176,-2.41211 4.00196,-2.41211 0.77019,0 3.39908,-1.91251 5.84179,-4.25 2.44271,-2.33749 5.00268,-4.25 5.68946,-4.25 1.65282,0 2.22667,-3.25371 0.86328,-4.89648 -1.47678,-1.77952 -7.10492,-1.80752 -9.80078,-0.0488 -1.21818,0.79461 -2.79316,1.45546 -3.5,1.46679 -0.70685,0.0122 -2.41017,0.90298 -3.78516,1.97852 -1.37499,1.07554 -3.21522,1.96718 -4.08984,1.97852 -0.87462,0.0122 -4.02465,1.35822 -7,2.99218 -2.97536,1.63404 -7.88518,3.47543 -10.91016,4.0918 -3.02502,0.61637 -6.40001,1.68505 -7.5,2.375 -1.09999,0.68995 -5.51795,1.51581 -9.81641,1.83594 -4.29845,0.31997 -8.82406,1.24313 -10.05664,2.05078 -1.23261,0.80761 -4.68964,1.68711 -7.68359,1.95508 -2.99399,0.26781 -8.4685,0.79058 -12.16602,1.16211 -5.62586,0.56541 -7.49762,0.33498 -11.46484,-1.41993 -7.81912,-3.45875 -7.97824,-3.76068 -8.94531,-16.82031 -0.93596,-12.63938 -0.9233,-13.21937 0.49414,-20.70117 0.52101,-2.75002 1.2519,-6.80001 1.62305,-9 0.37109,-2.20003 1.06666,-4.90001 1.54492,-6 0.8702,-2.00145 3.29007,-11.05273 5.21093,-19.48633 0.56191,-2.46697 1.65553,-5.45125 2.42969,-6.63281 0.77416,-1.18152 1.31985,-2.53715 1.21289,-3.01367 -0.107,-0.47649 0.74462,-2.8922 1.89258,-5.36719 1.14796,-2.47499 2.36694,-6.96395 2.70899,-9.97461 0.34195,-3.01066 0.93515,-5.71049 1.31835,-6 0.74174,-0.56009 1.03272,-1.48789 2.20313,-7.02539 0.40687,-1.92499 1.87284,-6.65002 3.25781,-10.5 1.38493,-3.85002 2.81087,-9.00347 3.16992,-11.45117 0.35891,-2.44774 1.02951,-4.92272 1.49024,-5.5 0.90508,-1.13412 2.11991,-7.5084 2.20117,-11.54883 0.0276,-1.37499 0.37956,-2.95 0.78125,-3.5 0.40169,-0.55 0.81435,-2.31937 0.91602,-3.93164 0.10182,-1.61223 0.7883,-3.86225 1.52539,-5 0.73708,-1.13779 1.64208,-5.37413 2.01172,-9.41406 0.36947,-4.03994 1.14916,-8.23635 1.73242,-9.32618 0.58337,-1.08977 0.9139,-5.32404 0.73437,-9.4082 -0.17949,-4.08416 0.0835,-7.56064 0.58594,-7.72656 0.50241,-0.16604 1.04766,-1.85299 1.21094,-3.74805 0.16335,-1.89501 0.49519,-5.69533 0.73633,-8.44531 0.24119,-2.74998 1.15899,-7.47703 2.03906,-10.50391 0.8801,-3.02687 1.54831,-8.20183 1.48633,-11.5 -0.0621,-3.29813 0.66102,-14.77108 1.60742,-25.49609 2.13815,-24.23258 1.9552,-64.51521 -0.37696,-83 -0.52044,-4.125 -0.9893,-11.55 -1.04296,-16.5 -0.14786,-13.63337 -1.39011,-22.5 -3.15235,-22.5 -0.50627,0 -0.94216,-3.4875 -0.96484,-7.75 -0.044,-7.72268 -1.43957,-14.83649 -3.70313,-18.87695 -0.6554,-1.16989 -1.18529,-3.41989 -1.17773,-5 0.0211,-4.52504 -0.28871,-6.79306 -1.07617,-7.87305 -1.01227,-1.38834 -5.67344,-17.14913 -6.49024,-21.94531 -0.74309,-4.36354 -4.30405,-11.9049 -8.53515,-18.07813 -1.51635,-2.21239 -3.46051,-5.70583 -4.32032,-7.76367 -0.85984,-2.05783 -2.25759,-4.00789 -3.10742,-4.33398 -0.84986,-0.32612 -1.54492,-1.4112 -1.54492,-2.41016 0,-0.99896 -1.06354,-3.08788 -2.36328,-4.64258 -1.29974,-1.5547 -2.70958,-3.95117 -3.13281,-5.32617 -0.42324,-1.375 -2.28472,-4.187866 -4.13672,-6.251953 C 555.01484,93.683814 553.5,91.508688 553.5,90.914062 553.5,89.522139 536.42396,71 535.14062,71 534.77145,71 531.43856,68.795806 527.73438,66.101562 520.79909,61.057285 504.75592,54 500.22461,54 c -1.4075,0 -2.74066,-0.546299 -2.96289,-1.212891 -0.29087,-0.872609 -4.44508,-1.221085 -14.83399,-1.24414 z M 448.46875,101 c -2.48111,0 -3.79015,2.86708 -1.86523,4.08594 2.46576,1.5613 3.89648,0.97895 3.89648,-1.58594 0,-1.84621 -0.53112,-2.5 -2.03125,-2.5 z m -178.44141,55.11328 c -2.8868,-0.017 -6.19681,0.92785 -8.18945,2.8457 -3.9815,3.83206 -3.06869,6.99377 3.26172,11.29102 3.03832,2.0625 5.8986,3.75 6.35547,3.75 0.45687,0 1.10862,0.72146 1.44726,1.60352 h -0.002 c 0.36862,0.96061 1.24703,1.36162 2.18945,1 0.86533,-0.33208 2.03578,-0.60352 2.59961,-0.60352 0.56376,0 0.76595,-0.675 0.44922,-1.5 -0.36994,-0.96401 0.0194,-1.5 1.0918,-1.5 1.29781,0 1.40207,-0.26589 0.46875,-1.19922 C 278.04559,170.14682 278.1989,169 280.07227,169 281.58778,169 284.5,166.74556 284.5,165.57227 284.5,165.25799 283.91074,165 283.18945,165 c -0.72128,0 -2.39824,-1.0125 -3.72656,-2.25 -1.32828,-1.2375 -2.65145,-2.12021 -2.93945,-1.96094 -0.28793,0.15929 -0.66605,-0.62717 -0.8418,-1.74804 -0.30265,-1.9314 -2.76749,-2.9107 -5.6543,-2.92774 z m 16.54688,13.07422 c -0.0619,-0.01 -0.11435,-0.008 -0.15625,0.006 -2.23461,0.74486 -2.09356,2.52632 0.24805,3.13867 1.23598,0.32322 1.96585,0.86829 1.62304,1.21094 -0.34261,0.34265 -0.81651,0.47436 -1.05273,0.29101 -0.2363,-0.18333 -1.14864,0.26292 -2.02735,0.99219 -1.25563,1.04208 -1.37151,1.8202 -0.54296,3.63867 0.86343,1.89508 0.67366,2.69549 -1.05079,4.41993 -2.10542,2.10545 -2.10648,2.10478 2.63868,8.19335 6.72283,8.6262 8.31567,11.23897 7.75781,12.72461 -0.26967,0.71818 -0.0284,1.01672 0.53906,0.66602 1.56261,-0.96575 9.66021,10.17015 13.44922,18.49609 0.86725,1.90573 1.90064,3.70573 2.29492,4 1.19925,0.89503 6.20508,7.85342 6.20508,8.625 0,0.39729 1.06034,2.11449 2.35547,3.81641 1.29566,1.70191 3.38151,5.11875 4.63476,7.59375 1.25326,2.475 2.55589,4.725 2.89454,5 0.3386,0.275 1.51524,2.27885 2.61523,4.45312 1.09999,2.17431 2.95096,5.09937 4.11328,6.5 1.16236,1.40068 3.06707,4.42834 4.23438,6.72852 1.1673,2.30018 2.58997,4.47185 3.16015,4.82422 0.57018,0.35238 2.39241,3.32412 4.04883,6.60547 1.65645,3.28136 3.93264,6.73665 5.05859,7.67773 1.12593,0.94108 2.89984,3.36151 3.94336,5.37891 1.04349,2.01739 3.19458,5.61739 4.7793,8 1.58468,2.3826 3.16514,5.51654 3.51172,6.96484 0.34651,1.4483 1.98305,4.08311 3.63867,5.85547 1.65566,1.77237 3.01172,3.8977 3.01172,4.72266 0,0.82492 1.16418,2.88415 2.58789,4.57617 1.96675,2.33722 2.46415,3.8137 2.06836,6.14453 -0.286,1.68733 -0.28554,2.49747 0.002,1.79883 0.63871,-1.55297 3.18949,1.58097 5.68555,6.98437 0.94371,2.04284 2.62187,4.34791 3.72852,5.12305 1.10668,0.77514 1.88423,1.80315 1.72851,2.28516 -0.36797,1.14039 3.8176,10.82151 5.44336,12.58984 1.70835,1.85821 3.41715,4.8132 8.54688,14.78711 2.40438,4.67497 4.97181,9.175 5.70507,10 1.44307,1.62357 12.2592,21.67864 15.64063,29 1.14312,2.47499 3.15367,6.52498 4.4668,9 1.31315,2.47499 4.07748,7.86925 6.14257,11.98633 2.06506,4.11708 4.29636,8.06556 4.95899,8.77539 0.66262,0.70983 3.25559,5.53394 5.76172,10.7207 2.50613,5.1868 5.14009,9.78826 5.85351,10.22461 0.71339,0.43635 3.212,4.61796 5.55274,9.29297 2.3407,4.67497 4.86071,9.62501 5.59961,11 2.1843,4.06481 6.3142,13.32867 6.98828,15.67383 0.34375,1.19592 1.79538,3.8959 3.22461,6 1.42923,2.10406 3.65844,6.75119 4.95312,10.32617 1.29468,3.57502 2.92269,6.94997 3.61914,7.5 1.66103,1.31172 3.74219,6.07577 3.74219,8.56641 0,1.08453 1.35001,4.50171 3,7.59375 1.64999,3.09203 3,6.51894 3,7.61523 0,2.56985 2.09012,9.94227 3.16797,11.17383 0.45728,0.52252 0.85232,1.87253 0.875,3 0.0233,1.12751 1.162,5.2008 2.53125,9.05078 3.42009,9.61678 5.79526,23.25174 5.92187,34 0.10919,9.26343 1.05783,12.37432 4.51368,14.79492 2.0355,1.42587 6.73901,1.55823 10.69531,0.30078 1.26886,-0.40327 2.72525,-2.14221 3.43164,-4.0957 0.67495,-1.86663 1.6636,-3.12292 2.19726,-2.79297 1.22771,0.75874 -0.0714,-21.34865 -1.40039,-23.83203 -0.51473,-0.96178 -1.10046,-3.01543 -1.30078,-4.5625 -0.3815,-2.94501 -1.77004,-6.82594 -4.19336,-11.7168 -0.79128,-1.59696 -1.43945,-4.5824 -1.43945,-6.63476 0,-2.05232 -0.65373,-5.92006 -1.45312,-8.59571 -5.67958,-19.00841 -7.88435,-25.56015 -8.9668,-26.64257 -0.68206,-0.68198 -1.07935,-1.72312 -0.88281,-2.3125 0.19646,-0.58942 -1.38329,-4.63456 -3.50977,-8.99024 -2.12644,-4.35571 -5.95407,-12.19491 -8.50586,-17.41992 -2.55179,-5.22497 -5.09845,-10.175 -5.6582,-11 -0.55979,-0.825 -2.62691,-4.87502 -4.59571,-9 -1.96879,-4.12501 -4.34663,-8.85001 -5.2832,-10.5 C 467.31262,462.10649 462.5,452.28082 462.5,450.78711 c 0,-0.94394 -0.93743,-2.21843 -2.08398,-2.83203 -1.14656,-0.61365 -2.72482,-2.64635 -3.50586,-4.51563 -0.78104,-1.86931 -3.44169,-6.82005 -5.91407,-11.00195 -2.47241,-4.18186 -4.49609,-7.90865 -4.49609,-8.2832 0,-0.37437 -1.57497,-3.02045 -3.5,-5.87891 -1.92499,-2.85849 -3.5,-5.59011 -3.5,-6.07227 0,-0.4821 -1.72268,-3.31399 -3.82812,-6.29101 -2.10547,-2.97702 -4.60575,-7.39716 -5.55665,-9.82422 -2.03285,-5.18857 -7.56083,-15.76503 -10.33398,-19.77148 -1.07184,-1.54855 -3.38776,-5.74139 -5.14648,-9.31641 -1.75873,-3.57498 -4.30275,-8.30001 -5.65235,-10.5 -1.34959,-2.20003 -3.38106,-5.80001 -4.51367,-8 -1.13257,-2.19999 -3.29688,-6.24998 -4.81055,-9 -1.51362,-2.74998 -4.53086,-8.37499 -6.70508,-12.5 -2.17419,-4.12501 -5.19063,-9.25537 -6.70312,-11.40039 -1.51249,-2.14502 -2.75,-4.4746 -2.75,-5.17773 0,-0.70319 -0.57231,-1.87283 -1.27148,-2.59961 -0.69914,-0.7268 -4.63667,-6.94357 -8.75,-13.81446 -4.11334,-6.87087 -8.26599,-13.28336 -9.22852,-14.25 -0.96249,-0.96662 -1.75,-2.16343 -1.75,-2.6582 0,-0.49477 -1.80001,-3.29473 -4,-6.22266 -2.19999,-2.92792 -4,-5.6212 -4,-5.98437 0,-0.36315 -0.93341,-0.90286 -2.07422,-1.20117 -1.14085,-0.29833 -2.30234,-1.41815 -2.58203,-2.48829 -0.27984,-1.07007 -2.28466,-5.26603 -4.45313,-9.32421 -2.16841,-4.0582 -4.94265,-9.40391 -6.16601,-11.87891 -1.22336,-2.475 -2.46005,-4.725 -2.74805,-5 -0.28807,-0.275 -3.61804,-5.225 -7.39844,-11 -9.34211,-14.2712 -12.84953,-19.40794 -13.6582,-20 -1.14383,-0.83741 -9.91992,-13.9627 -9.91992,-14.83594 0,-0.44903 -1.54784,-2.1064 -3.43945,-3.68359 -1.89158,-1.5772 -3.26471,-3.15028 -3.05078,-3.49609 0.66531,-1.07652 -10.51696,-12.49096 -12.43555,-12.79688 z m -5.75195,6.01758 c -0.20614,-0.0261 -0.32227,0.11443 -0.32227,0.42773 0,0.56834 0.2994,1.33452 0.66602,1.70117 0.36665,0.36669 0.89937,0.43262 1.18359,0.14844 0.28418,-0.28416 -0.0152,-1.04837 -0.66602,-1.69922 -0.35877,-0.35878 -0.65518,-0.55199 -0.86132,-0.57812 z m 100.93164,2.0039 c -0.37464,-0.0202 -0.23321,0.68006 0.35351,2.20899 0.33385,0.86999 1.00885,1.58203 1.5,1.58203 1.38323,0 1.05497,-1.62035 -0.60742,-3 -0.61057,-0.50673 -1.02131,-0.77889 -1.24609,-0.79102 z M 386.94141,179 c -0.85747,0 -1.28119,0.45 -0.94141,1 0.33993,0.55 1.04106,1 1.55859,1 0.51757,0 0.94141,-0.45 0.94141,-1 0,-0.55 -0.70113,-1 -1.55859,-1 z m -247.35547,24.4668 c -1.64781,-0.0609 -4.95606,1.7531 -5.63672,3.41797 -0.36306,0.888 -0.83006,3.82727 -1.03906,6.53125 -0.31185,4.03443 -0.0235,5.16566 1.60546,6.30664 1.0918,0.76471 1.98438,2.04017 1.98438,2.83398 0,0.79382 0.39912,1.44336 0.88672,1.44336 0.48756,0 1.12865,1.2375 1.42383,2.75 1.11106,5.68975 4.51144,13.45479 7.05468,16.10938 1.44949,1.51286 2.63477,3.11649 2.63477,3.56445 0,0.44796 1.57501,3.40728 3.5,6.57617 1.92503,3.16889 3.5,6.72884 3.5,7.91211 0,1.29647 0.89413,2.51164 2.25,3.05664 1.23749,0.49741 1.90623,0.93398 1.48633,0.96875 -0.41987,0.0349 -0.1051,1.6375 0.69922,3.5625 0.80436,1.925 1.25593,3.5 1.00195,3.5 -0.25387,0 0.57314,1.6875 1.83984,3.75 1.26675,2.0625 3.15851,5.775 4.20313,8.25 1.04462,2.475 2.25694,4.98668 2.69336,5.58203 0.43642,0.59535 2.45152,4.42035 4.47851,8.5 2.027,4.07965 4.03069,7.65147 4.45313,7.9375 0.42247,0.28603 1.67866,2.53603 2.79101,5 1.11236,2.46396 3.31425,6.73046 4.89258,9.48047 1.57833,2.74998 3.15096,6.41465 3.49414,8.14258 0.3433,1.72796 1.99432,5.30304 3.66992,7.94531 1.67566,2.64223 3.03465,5.27757 3.01954,5.85742 -0.0155,0.57982 1.29062,3.75471 2.90429,7.05469 1.61367,3.30002 3.89826,8.02501 5.07617,10.5 1.17797,2.47499 3.1962,6.3522 4.48438,8.61523 1.28818,2.26303 2.66007,5.18805 3.04883,6.5 0.3888,1.31199 2.23745,5.66534 4.10937,9.67383 1.87193,4.00849 3.4043,7.9179 3.4043,8.68946 0,0.77155 0.45,1.6817 1,2.02148 0.55,0.33993 1,1.49107 1,2.55859 0,1.06757 0.39111,1.94141 0.86914,1.94141 0.47804,0 1.12821,1.59797 1.44531,3.55078 0.31692,1.95281 1.96539,5.8096 3.66407,8.57031 1.69867,2.76068 4.66548,8.82697 6.59179,13.48047 1.92631,4.65347 4.21371,9.29217 5.08399,10.3086 0.87027,1.01642 2.84318,4.69342 4.38281,8.17187 1.53963,3.47845 3.39816,6.79549 4.13086,7.37109 1.41377,1.11077 3.79317,5.77418 5.89062,11.54688 0.69941,1.92503 1.81558,4.175 2.48047,5 0.66486,0.825 1.77929,3.30001 2.47656,5.5 0.69733,2.19999 1.87784,4.359 2.625,4.79883 1.70582,1.00414 1.80896,3.05189 0.10938,2.17383 -0.6875,-0.3552 -0.28637,0.18117 0.89258,1.1914 1.17891,1.01023 2.47327,2.96095 2.875,4.33594 0.94291,3.22745 10.38439,21.82054 11.39844,22.44727 0.42542,0.2629 2.22382,3.42728 3.99804,7.03125 1.77423,3.604 3.64492,6.29448 4.15625,5.97851 0.51133,-0.31601 0.92969,0.3808 0.92969,1.54883 0,2.93371 3.90197,11.91876 6.61719,15.23828 1.23469,1.50954 2.54883,3.75952 2.92187,5 1.35285,4.49885 16.73175,35.02667 18.57227,36.86719 1.03914,1.03914 1.88867,3.05677 1.88867,4.48437 0,1.42761 0.94656,3.92401 2.10352,5.54883 1.27974,1.79736 1.88753,3.78424 1.55078,5.07227 -0.35509,1.35775 0.63311,4.14428 2.75781,7.76953 1.82215,3.10904 3.85876,7.30628 4.52539,9.32617 0.66663,2.01989 1.81341,4.01296 2.54883,4.42969 2.49101,1.41161 6.60765,22.54092 8.13476,41.75781 0.72084,9.07102 1.18823,10.41275 4.28321,12.29492 1.56793,0.95354 4.86751,1.78404 7.33203,1.84375 4.17725,0.10141 4.65758,-0.16326 7.08203,-3.90234 3.36945,-5.19647 4.32524,-11.74477 2.73633,-18.73633 -0.68746,-3.02502 -1.85227,-10.40262 -2.58985,-16.39453 -1.40874,-11.44415 -1.91299,-13.23713 -6.57617,-23.40039 -1.58853,-3.4622 -2.88867,-6.55601 -2.88867,-6.875 C 346.5,600.70523 326.66075,559 325.41211,559 c -0.35146,0 -1.89516,-2.81252 -3.42969,-6.25 -2.60742,-5.84096 -6.00963,-12.82744 -16.4375,-33.75 -2.33004,-4.67501 -5.88444,-10.97498 -7.89844,-14 -2.01399,-3.02498 -5.67206,-9.55003 -8.1289,-14.5 -2.45685,-4.95001 -4.81567,-9.15068 -5.24219,-9.33398 -0.42663,-0.18335 -0.77539,-1.23861 -0.77539,-2.34571 0,-2.17704 -8.23543,-19.21065 -13.20898,-27.32031 -6.43628,-10.49473 -11.10346,-19.4882 -15.82813,-30.5 -1.29793,-3.02498 -3.17134,-6.42901 -4.16211,-7.56445 -0.99076,-1.13545 -1.80078,-2.76473 -1.80078,-3.6211 0,-1.86686 -7.81504,-18.86956 -16.07422,-34.97265 -3.28883,-6.41227 -6.68831,-14.06229 -7.55469,-17 -0.86638,-2.93775 -1.91184,-5.7918 -2.32421,-6.3418 -0.41243,-0.55 -1.59351,-3.47498 -2.625,-6.5 -1.03159,-3.02498 -2.73964,-7.07501 -3.79493,-9 -1.05532,-1.92499 -3.44523,-6.40952 -5.31054,-9.96484 -1.86528,-3.55529 -3.75877,-6.7052 -4.20899,-7 C 205.57897,318.36198 196.5,302.36742 196.5,301.22852 c 0,-0.46224 -1.12501,-2.36481 -2.5,-4.22852 -2.46656,-3.34321 -3.21253,-6.43404 -1.75,-7.25195 0.4125,-0.23071 0.17121,-0.27716 -0.53711,-0.10157 -0.70832,0.17559 -1.57624,-0.46083 -1.92773,-1.41406 -0.3515,-0.95323 -1.60548,-3.30742 -2.78711,-5.23242 -1.18163,-1.925 -3.21057,-6.0875 -4.50782,-9.25 -1.29728,-3.1625 -2.73153,-5.75 -3.1875,-5.75 -0.45592,0 -1.83605,-2.1375 -3.0664,-4.75 -1.23035,-2.6125 -2.63034,-5.03767 -3.11328,-5.38867 -0.48303,-0.351 -0.59539,-1.0979 -0.24805,-1.66016 0.34749,-0.56226 -0.49406,-3.2662 -1.87109,-6.00781 -1.377,-2.74161 -2.50391,-5.65864 -2.50391,-6.48242 0,-0.82378 -0.66114,-1.75063 -1.46875,-2.06055 -0.80765,-0.30991 -2.17533,-2.25512 -3.03906,-4.32227 -0.8637,-2.0671 -1.94173,-3.99869 -2.39649,-4.29296 -0.45479,-0.29429 -1.75791,-2.33516 -2.89453,-4.53516 -2.25067,-4.35629 -6.71318,-9.5 -8.24219,-9.5 -0.52773,0 -0.95898,-1.29429 -0.95898,-2.87695 0,-3.5646 -1.60969,-4.9115 -5.5,-4.59961 -1.64999,0.13229 -3.58051,-0.38109 -4.28906,-1.14063 -1.08261,-1.16047 -0.74475,-1.31098 2.11133,-0.94531 2.97947,0.38147 3.38581,0.16668 3.28906,-1.73828 -0.0675,-1.32803 -0.88899,-2.3191 -2.11133,-2.55078 -1.09999,-0.20849 -2.26518,-0.79993 -2.58984,-1.31446 -0.15074,-0.23874 -0.44396,-0.35314 -0.82422,-0.36718 z M 415.44141,212 c -0.58235,0 -0.78119,0.45 -0.44141,1 0.33993,0.55 0.81595,1 1.05859,1 0.24254,0 0.44141,-0.45 0.44141,-1 0,-0.55 -0.47617,-1 -1.05859,-1 z m 5.52734,7.66406 c -1.15487,-0.0412 -1.46875,0.88407 -1.46875,3.00196 0,1.80718 0.55085,2.33398 2.44141,2.33398 1.34252,0 2.73715,0.47982 3.09961,1.06641 0.81562,1.31972 1.75441,0.46874 2.11914,-1.92188 0.18398,-1.20575 -0.84061,-2.33762 -3.08985,-3.41015 -1.41246,-0.67356 -2.40864,-1.0456 -3.10156,-1.07032 z m 251.73047,322.40625 c -1.80663,-0.002 -3.67921,0.81178 -5.16797,2.39649 -2.23393,2.37789 -2.27227,2.68775 -1.0293,8.54492 1.02327,4.82188 1.8245,6.35731 3.875,7.43164 3.28381,1.72059 7.96597,1.35999 11.37696,-0.875 1.46184,-0.95777 3.08554,-1.47669 3.60742,-1.1543 1.57137,0.97115 0.1034,-7.68784 -1.75,-10.32422 -0.93211,-1.32589 -2.50219,-2.53064 -3.49024,-2.67578 -0.98804,-0.14502 -2.57956,-0.97132 -3.53711,-1.83789 -1.11462,-1.00873 -2.47961,-1.50445 -3.88476,-1.50586 z m -3.83984,9.31446 c 0.0861,-0.0346 0.18299,0.0624 0.2832,0.30859 0.2671,0.65658 1.18561,0.92692 2.03906,0.59961 1.30613,-0.5012 1.36965,-0.25643 0.40039,1.55469 -0.63333,1.1834 -1.28714,2.15234 -1.45117,2.15234 -0.8996,0 -1.62185,-1.58869 -1.55274,-3.41602 0.0272,-0.7161 0.13779,-1.14153 0.28126,-1.19921 z m -393.32422,45.84375 c -3.21835,0.0405 -7.60215,2.52624 -8.85743,5.28125 -1.79591,3.94163 -1.36553,12.47044 0.83204,16.49023 1.05237,1.92503 2.64981,5.07501 3.55078,7 0.901,1.92499 2.23748,4.17497 2.96875,5 1.69935,1.91792 7.35121,1.90838 10.0625,-0.0156 2.90434,-2.06117 4.03739,-4.63451 4.72265,-10.72461 1.15488,-10.26331 -4.46954,-21.00645 -11.98437,-22.89258 -0.3997,-0.10032 -0.83516,-0.14446 -1.29492,-0.13867 z m 114.17578,21.9414 c -1.32201,-0.0205 -1.9935,0.76236 -3.66992,2.57031 -1.9513,2.10437 -2.53648,3.7858 -2.51758,7.25 0.0204,4.04652 0.35454,4.68791 3.25,6.2461 3.08451,1.65993 12.81307,2.00919 14.30859,0.51367 0.3219,-0.32186 0.82421,-2.35955 1.11524,-4.5293 0.71765,-5.3506 -1.59186,-8.65657 -7.44336,-10.65039 -2.59238,-0.8833 -4.01474,-1.38447 -5.04297,-1.40039 z"
       transform="scale(0.26458333)"
       style="fill:#000000;stroke-width:0.999999"
       id="path921" />
  </g>
</svg>
