<?xml version="1.0" encoding="UTF-8" standalone="no"?>
<svg
   xmlns:dc="http://purl.org/dc/elements/1.1/"
   xmlns:cc="http://creativecommons.org/ns#"
   xmlns:rdf="http://www.w3.org/1999/02/22-rdf-syntax-ns#"
   xmlns:svg="http://www.w3.org/2000/svg"
   xmlns="http://www.w3.org/2000/svg"
   xmlns:sodipodi="http://sodipodi.sourceforge.net/DTD/sodipodi-0.dtd"
   xmlns:inkscape="http://www.inkscape.org/namespaces/inkscape"
   width="147mm"
   height="165mm"
   viewBox="0 0 147 165"
   version="1.1"
   id="svg8"
   inkscape:version="1.0 (4035a4fb49, 2020-05-01)"
   sodipodi:docname="firma_tesorero2.svg">
  <defs
     id="defs2" />
  <sodipodi:namedview
     inkscape:pagecheckerboard="false"
     id="base"
     pagecolor="#ffffff"
     bordercolor="#666666"
     borderopacity="1.0"
     inkscape:pageopacity="0.0"
     inkscape:pageshadow="2"
     inkscape:zoom="0.7"
     inkscape:cx="334.40207"
     inkscape:cy="351.50316"
     inkscape:document-units="mm"
     inkscape:current-layer="layer1"
     inkscape:document-rotation="0"
     showgrid="false"
     inkscape:window-width="1375"
     inkscape:window-height="860"
     inkscape:window-x="73"
     inkscape:window-y="0"
     inkscape:window-maximized="0" />
  <metadata
     id="metadata5">
    <rdf:RDF>
      <cc:Work
         rdf:about="">
        <dc:format>image/svg+xml</dc:format>
        <dc:type
           rdf:resource="http://purl.org/dc/dcmitype/StillImage" />
        <dc:title></dc:title>
      </cc:Work>
    </rdf:RDF>
  </metadata>
  <g
     inkscape:label="Layer 1"
     inkscape:groupmode="layer"
     id="layer1">
    <path
       id="path921"
       style="fill:#000000;stroke-width:0.264583"
       d="m 92.868526,0.03026752 c -3.04845,-0.0068001 -4.083913,0.08897779 -5.140254,0.47387271 -3.1853,1.16062097 -4.894791,1.95993907 -4.894791,2.28926597 0,0.1474121 -0.353007,0.2682007 -0.784448,0.2682007 -0.503221,0 -0.882083,0.182585 -1.056782,0.5090129 -0.149781,0.2798709 -0.950532,0.8968488 -1.77922,1.3709758 -1.550842,0.887299 -4.581634,3.7755057 -4.581634,4.3661417 0,0.182786 -0.357179,0.5867595 -0.79375,0.8976197 -0.436559,0.31086 -0.79375,0.713069 -0.79375,0.894002 0,0.180932 -0.244866,0.591401 -0.543636,0.912089 -0.29876,0.320688 -1.026957,1.504246 -1.618507,2.629812 -0.591545,1.125583 -1.23961,2.233687 -1.440219,2.462901 -0.200621,0.229214 -0.391782,0.74313 -0.424781,1.141531 -0.03298,0.398402 -0.212119,0.850406 -0.39791,1.004591 -0.41267,0.342501 -0.451979,0.846424 -0.04651,0.595829 0.20121,-0.12433 0.217683,-0.02696 0.05374,0.315227 -0.130379,0.272222 -0.218554,1.447559 -0.195852,2.611726 0.03635,1.860852 0.153283,2.330484 0.965832,3.884001 1.066951,2.039906 0.96765,2.722261 -0.2682,1.842265 -0.43769,-0.311666 -0.852075,-0.566891 -0.920875,-0.566891 -0.218781,0 0.102114,2.470973 0.470774,3.623551 0.353247,1.104392 0.276349,2.197282 -0.15503,2.197282 -0.124392,0 -0.328846,0.386953 -0.454237,0.859896 -0.239631,0.903796 0.228388,2.048772 0.838708,2.052071 0.165161,7.94e-4 0.639903,0.178713 1.055235,0.395325 0.415319,0.216614 0.842394,0.339955 0.949296,0.273886 0.10691,-0.06607 0.459594,0.351427 0.783413,0.927592 0.323831,0.576165 0.687019,1.04748 0.807185,1.04748 0.120182,0 0.470429,0.535781 0.778248,1.190625 0.307811,0.654844 0.648145,1.203468 0.756544,1.219047 0.10839,0.01558 0.888291,0.06229 1.732709,0.10387 1.304811,0.06426 1.523042,0.01027 1.453142,-0.359151 -0.0519,-0.274248 -0.398833,-0.464971 -0.939993,-0.517282 -0.64344,-0.0622 -0.85783,-0.21092 -0.85783,-0.595312 0,-0.28897 0.180991,-0.51263 0.414962,-0.51263 0.35614,0 0.344083,-0.103077 -0.08527,-0.727604 -0.275108,-0.400183 -0.773999,-1.382448 -1.108459,-2.182813 -0.784658,-1.877708 -1.73423,-3.50166 -2.398821,-4.103108 -0.289739,-0.262213 -0.526581,-0.640961 -0.526581,-0.841809 0,-0.200848 -0.189799,-0.654833 -0.42168,-1.008724 -0.390001,-0.595222 -0.381135,-0.777914 0.120407,-2.438095 0.29819,-0.98706 0.577315,-2.15191 0.620117,-2.588472 0.06194,-0.631388 0.199803,-0.789284 0.673343,-0.772562 0.32743,0.01156 0.595313,-0.13036 0.595313,-0.315227 0,-0.476372 -0.457679,-0.700604 -0.618051,-0.302824 -0.08209,0.203491 -0.142229,0.15575 -0.15503,-0.122989 -0.01148,-0.250407 0.322741,-0.964782 0.742593,-1.5875 2.678938,-3.973467 5.057571,-7.687664 5.057571,-7.897709 0,-0.13517 0.15281,-0.245981 0.340032,-0.245981 0.187219,0 0.784873,-0.595312 1.328084,-1.322916 0.5432,-0.727605 1.119002,-1.322917 1.279506,-1.322917 0.196091,0 0.184066,-0.130254 -0.03721,-0.396875 -0.53539,-0.645108 -1.010301,-0.462452 -1.719792,0.661458 -0.367461,0.582084 -0.785969,1.058334 -0.929658,1.058334 -0.143701,0 -0.260967,0.232852 -0.260967,0.517281 0,0.284427 -0.267893,0.80976 -0.595312,1.167371 -1.18681,1.296234 -3.638021,4.952524 -3.638021,5.426541 0,0.163552 -0.09392,0.29714 -0.208772,0.29714 -0.114851,0 -0.501806,0.66657 -0.859896,1.481048 -0.3581,0.814474 -0.873903,1.600186 -1.146183,1.746146 -0.456351,0.244634 -0.480261,0.185558 -0.306443,-0.753443 0.10369,-0.560253 0.192921,-1.521251 0.197921,-2.135788 0.0073,-0.86831 0.123788,-1.153496 0.522449,-1.280025 0.371171,-0.117801 0.491882,-0.362096 0.437182,-0.883666 -0.0458,-0.43669 0.155826,-1.015331 0.511598,-1.467612 0.323009,-0.410644 0.587817,-0.87952 0.588076,-1.041797 7.94e-4,-0.405551 1.80635,-3.003254 2.871661,-4.13153 2.93965,-3.1134135 3.746913,-3.8398524 4.959903,-4.4643265 0.74246,-0.382239 1.873562,-1.0489472 2.513541,-1.4815632 1.185511,-0.801388 2.38301,-1.336182 3.815789,-1.7037719 0.439979,-0.112881 1.035296,-0.3287024 1.322917,-0.4795573 0.572069,-0.3000491 2.189943,-0.1534779 2.688725,0.2433958 0.198879,0.158252 0.507264,0.1462452 0.842325,-0.033073 1.220959,-0.6534375 4.63137,-0.136025 6.41563,0.9735841 0.526499,0.3274218 1.214808,0.5953125 1.529628,0.5953125 0.31481,0 0.64305,0.1837647 0.72915,0.4082438 0.0861,0.2244799 0.60807,0.6384624 1.15962,0.9198404 1.94311,0.9912972 7.13922,6.7924813 8.76381,9.7844153 0.43458,0.800365 1.2574,2.250181 1.82883,3.221509 0.57142,0.971328 1.03921,1.878801 1.03921,2.016932 0,0.138131 0.29281,0.774745 0.6506,1.414899 0.35779,0.640151 0.81657,1.875872 1.01958,2.746086 0.20301,0.870215 0.61942,2.073225 0.92552,2.673223 0.30609,0.599993 0.48921,1.158243 0.40721,1.240235 -0.082,0.08199 0.12215,0.959725 0.45321,1.950783 0.56011,1.676744 0.86104,3.225557 1.19786,6.167583 0.075,0.654844 0.24575,1.42875 0.37982,1.719792 0.13408,0.291041 0.35501,1.303073 0.49092,2.248958 0.1359,0.945886 0.30673,2.017448 0.37983,2.38125 0.0731,0.363802 0.22348,2.387865 0.33434,4.497917 0.25409,4.836276 0.25739,4.880464 0.49196,6.539134 0.12473,0.881997 0.0807,1.727322 -0.12247,2.34301 -0.25335,0.767787 -0.24786,1.094473 0.0279,1.609722 0.28386,0.530334 0.28655,1.891237 0.0155,7.578866 -0.41386,8.684114 -0.50587,9.991537 -0.84129,11.959476 -0.14884,0.87313 -0.25842,2.063752 -0.24392,2.645833 0.0146,0.582091 -0.0392,1.534586 -0.11937,2.116667 -0.0802,0.58208 -0.16145,1.564351 -0.18035,2.182812 -0.0189,0.618469 -0.14688,1.124479 -0.28474,1.124479 -0.1378,0 -0.17723,0.119063 -0.0873,0.264584 0.0899,0.14552 0.0539,0.264583 -0.0801,0.264583 -0.13403,0 -0.32409,0.886071 -0.42219,1.968873 -0.0981,1.082799 -0.35817,2.573544 -0.57775,3.312975 -0.21963,0.739431 -0.33179,1.453496 -0.24959,1.586465 0.0822,0.132982 0.0191,0.755084 -0.14005,1.382864 -0.15918,0.62779 -0.28188,1.439179 -0.27388,1.802989 0.0204,0.873102 -1.34307,6.100818 -2.31149,8.863538 -0.73369,2.09306 -2.28467,7.06908 -2.70423,8.67544 -0.25805,0.98805 -0.59466,1.94771 -0.74775,2.13217 -0.15309,0.18446 -0.45013,0.98306 -0.65991,1.77509 -0.20977,0.79202 -0.52629,1.7974 -0.70332,2.23397 -0.17702,0.43656 -0.35891,1.03188 -0.40411,1.32292 -0.0452,0.29104 -0.44514,1.54119 -0.88883,2.77812 -0.44369,1.23692 -0.80884,2.68963 -0.81184,3.22823 -0.003,0.53861 -0.189,1.66969 -0.41341,2.51354 -0.26428,0.99373 -0.40384,2.65224 -0.39584,4.70721 0.0106,2.81113 0.0857,3.32376 0.65784,4.49791 0.35517,0.72885 0.72077,1.7103 0.81287,2.18127 0.13883,0.70993 1.14919,1.81642 1.71462,1.87792 0.0728,0.008 0.8205,0.31903 1.6614,0.69091 0.84089,0.37189 1.73387,0.67808 1.98438,0.68006 0.25037,0.002 0.62782,0.11343 0.83922,0.24702 h 5.3e-4 c 0.21128,0.13352 0.48708,0.17955 0.61288,0.1018 0.12588,-0.0778 1.2029,-0.17985 2.39366,-0.22634 2.36133,-0.0922 4.76062,-0.57386 4.55062,-0.91364 -0.14164,-0.22921 0.84186,-0.43895 3.52899,-0.75293 1.0708,-0.12512 1.79571,-0.35375 1.99729,-0.62942 0.17405,-0.23803 0.75705,-0.51496 1.29553,-0.61598 0.57084,-0.10709 0.97927,-0.33716 0.97927,-0.55139 0,-0.20209 0.0893,-0.34306 0.19843,-0.31316 0.10914,0.0299 0.57554,-0.14641 1.03663,-0.39222 0.46109,-0.24581 1.50792,-0.69781 2.32648,-1.00408 0.81856,-0.30625 1.79842,-0.84378 2.17712,-1.19475 0.37871,-0.35097 0.85507,-0.63821 1.05885,-0.63821 0.20378,0 0.89934,-0.50602 1.54564,-1.12448 0.64631,-0.61846 1.32363,-1.12448 1.50534,-1.12448 0.43731,0 0.58914,-0.86087 0.22841,-1.29552 -0.39073,-0.47083 -1.87984,-0.47824 -2.59312,-0.0129 -0.32231,0.21025 -0.73903,0.3851 -0.92604,0.38809 -0.18702,0.003 -0.63769,0.23892 -1.00149,0.52349 -0.3638,0.28457 -0.8507,0.52048 -1.08211,0.52348 -0.23141,0.003 -1.06485,0.35936 -1.85208,0.79168 -0.78723,0.43234 -2.08629,0.91954 -2.88665,1.08262 -0.80037,0.16308 -1.69333,0.44584 -1.98437,0.62839 -0.29104,0.18255 -1.45996,0.40106 -2.59726,0.48576 -1.1373,0.0847 -2.3347,0.32891 -2.66082,0.5426 -0.32613,0.21368 -1.2408,0.44638 -2.03295,0.51728 -0.79216,0.0709 -2.24062,0.20918 -3.21893,0.30748 -1.4885,0.14959 -1.98374,0.0886 -3.0334,-0.37569 -2.06881,-0.91513 -2.11091,-0.99502 -2.36678,-4.45038 -0.24764,-3.34417 -0.24429,-3.49762 0.13074,-5.47718 0.13785,-0.72761 0.33123,-1.79917 0.42943,-2.38125 0.0982,-0.58209 0.28222,-1.29646 0.40876,-1.5875 0.23024,-0.52955 0.8705,-2.92437 1.37873,-5.15576 0.14867,-0.65272 0.43802,-1.44231 0.64285,-1.75493 0.20483,-0.31261 0.34921,-0.67129 0.32091,-0.79737 -0.0283,-0.12607 0.19702,-0.76523 0.50075,-1.42007 0.30373,-0.65484 0.62625,-1.84254 0.71675,-2.63911 0.0905,-0.79657 0.24743,-1.5109 0.34882,-1.5875 0.19625,-0.14819 0.27324,-0.39367 0.58291,-1.8588 0.10765,-0.50932 0.49552,-1.75949 0.86196,-2.77813 0.36643,-1.01865 0.74371,-2.38217 0.83871,-3.02979 0.095,-0.64763 0.27239,-1.30247 0.39429,-1.45521 0.23947,-0.30006 0.56089,-1.98659 0.58239,-3.05562 0.007,-0.3638 0.10043,-0.78052 0.20671,-0.92604 0.10628,-0.14553 0.21546,-0.61367 0.24236,-1.040251 0.0269,-0.426569 0.20857,-1.021887 0.40359,-1.322917 0.19502,-0.30104 0.43447,-1.421905 0.53227,-2.490803 0.0978,-1.068901 0.30405,-2.179201 0.45837,-2.467552 0.15435,-0.288335 0.2418,-1.408652 0.1943,-2.489253 -0.0475,-1.0806 0.0221,-2.000419 0.15503,-2.044319 0.13293,-0.04393 0.2772,-0.49027 0.3204,-0.991671 0.0432,-0.501388 0.13102,-1.50689 0.19482,-2.234489 0.0638,-0.727598 0.30665,-1.978297 0.5395,-2.779159 0.23286,-0.800859 0.40966,-2.170067 0.39326,-3.042708 -0.0164,-0.872631 0.17489,-3.908182 0.42529,-6.745841 0.56572,-6.411536 0.51732,-17.069649 -0.0997,-21.960416 -0.1377,-1.091406 -0.26176,-3.055938 -0.27595,-4.365625 -0.0391,-3.607162 -0.3678,-5.953125 -0.83406,-5.953125 -0.13395,0 -0.24928,-0.922734 -0.25528,-2.050521 -0.0116,-2.043292 -0.38089,-3.925488 -0.97979,-4.994526 -0.17341,-0.309533 -0.31361,-0.904846 -0.31161,-1.322917 0.006,-1.19725 -0.0764,-1.79733 -0.28473,-2.083077 -0.26783,-0.367332 -1.5011,-4.537374 -1.71721,-5.806364 -0.19661,-1.15452 -1.13878,-3.149838 -2.25826,-4.783172 -0.4012,-0.585361 -0.91559,-1.509667 -1.14309,-2.054137 -0.22749,-0.544468 -0.59732,-1.060421 -0.82217,-1.146699 -0.22486,-0.08629 -0.40876,-0.37338 -0.40876,-0.637688 0,-0.264308 -0.28139,-0.817002 -0.62528,-1.228349 -0.34389,-0.411348 -0.71691,-1.045414 -0.82889,-1.409216 -0.11198,-0.363802 -0.6045,-1.10804 -1.09451,-1.654163 -0.49011,-0.546169 -0.89092,-1.121671 -0.89092,-1.279 0,-0.368279 -4.51803,-5.2689285 -4.85758,-5.2689285 -0.0977,0 -0.97951,-0.583193 -1.95957,-1.2960451 -1.83496,-1.3346316 -6.079719,-3.20187154 -7.278628,-3.20187154 -0.372401,0 -0.725133,-0.14454161 -0.783932,-0.32091074 C 96.71643,0.12858833 95.617296,0.03638739 92.868564,0.03028742 Z M 83.883546,13.115773 c -0.656461,0 -1.002811,0.758582 -0.493509,1.081072 0.652399,0.413094 1.030944,0.259014 1.030944,-0.419613 0,-0.488477 -0.140526,-0.661459 -0.537435,-0.661459 z M 36.670923,27.697829 c -0.763799,-0.0045 -1.639572,0.245493 -2.166792,0.752924 -1.053438,1.0139 -0.811924,1.850435 0.862997,2.987416 0.803889,0.545703 1.560671,0.992188 1.681551,0.992188 0.120881,0 0.293323,0.190886 0.382921,0.424264 h -5.29e-4 c 0.09753,0.254162 0.329944,0.360262 0.579292,0.264584 0.228952,-0.08786 0.538634,-0.159682 0.687814,-0.159682 0.149161,0 0.202657,-0.178594 0.118856,-0.396875 -0.09788,-0.255061 0.0051,-0.396875 0.288872,-0.396875 0.343379,0 0.370964,-0.07035 0.124023,-0.317293 -0.437509,-0.437611 -0.396946,-0.74104 0.09872,-0.74104 0.400979,0 1.171504,-0.596487 1.171504,-0.90692 0,-0.08315 -0.155909,-0.151413 -0.34675,-0.151413 -0.190838,0 -0.634534,-0.267891 -0.985985,-0.595313 -0.351441,-0.327422 -0.70153,-0.560972 -0.77773,-0.518832 -0.07618,0.04215 -0.176226,-0.165939 -0.222726,-0.462502 -0.08008,-0.511016 -0.732232,-0.770123 -1.496034,-0.774631 z m 4.378029,3.45922 c -0.01638,-0.0026 -0.03025,-0.0021 -0.04134,0.0016 -0.591241,0.197077 -0.553921,0.668422 0.06563,0.83044 0.327019,0.08552 0.520131,0.229735 0.429429,0.320394 -0.09065,0.09066 -0.216035,0.125508 -0.278535,0.077 -0.06252,-0.04851 -0.303911,0.06956 -0.536403,0.262517 -0.332219,0.275717 -0.362879,0.481595 -0.143658,0.962732 0.228449,0.501406 0.178239,0.713182 -0.278022,1.16944 -0.557059,0.557067 -0.557339,0.556889 0.698151,2.167823 1.778749,2.282349 2.200188,2.973645 2.052587,3.36672 -0.07135,0.190019 -0.0075,0.269007 0.142627,0.176218 0.41344,-0.255521 2.55593,2.690852 3.558439,4.893757 0.22946,0.504224 0.502878,0.980474 0.607198,1.058333 0.317301,0.23681 1.64176,2.077884 1.64176,2.282032 0,0.105116 0.280549,0.559458 0.623219,1.009758 0.34281,0.450297 0.894691,1.354336 1.22628,2.00918 0.331591,0.654843 0.676246,1.250156 0.765847,1.322916 0.08959,0.07276 0.400907,0.602946 0.691946,1.178222 0.291039,0.575286 0.780775,1.349208 1.088305,1.719791 0.307541,0.370597 0.811496,1.171665 1.120347,1.780255 0.308848,0.608589 0.685263,1.183176 0.836123,1.276408 0.15086,0.09323 0.632992,0.879506 1.071253,1.747697 0.438269,0.868193 1.040511,1.782405 1.338418,2.031399 0.297903,0.248994 0.76725,0.8894 1.043348,1.42317 0.27609,0.533768 0.845232,1.486268 1.264523,2.116667 0.41928,0.630396 0.837443,1.459584 0.929142,1.84278 0.09168,0.383197 0.524682,1.080323 0.962732,1.54926 0.43806,0.46894 0.796851,1.031267 0.796851,1.249537 0,0.21826 0.308022,0.763098 0.684712,1.210779 0.520369,0.618389 0.651973,1.009041 0.547254,1.62574 -0.07567,0.446439 -0.07555,0.660789 5.29e-4,0.47594 0.168992,-0.41089 0.843886,0.418299 1.504302,1.847948 0.24969,0.540502 0.693703,1.150385 0.986504,1.355474 0.292809,0.205089 0.498536,0.477083 0.457335,0.604615 -0.09736,0.301728 1.010073,2.863191 1.440222,3.331062 0.452001,0.491651 0.904121,1.273492 2.261362,3.912423 0.636159,1.236919 1.315458,2.427552 1.509467,2.645833 0.381812,0.429569 3.243579,5.735807 4.138249,7.672916 0.302451,0.654842 0.834409,1.726401 1.181841,2.38125 0.347438,0.654842 1.078834,2.082075 1.625222,3.171385 0.54638,1.08931 1.136745,2.13402 1.312066,2.32182 0.175318,0.18781 0.861375,1.46419 1.524455,2.83652 0.66308,1.37234 1.359982,2.58981 1.548741,2.70526 0.188751,0.11546 0.849842,1.22184 1.469163,2.45877 0.61931,1.23692 1.286063,2.54662 1.481563,2.91042 0.57793,1.07548 1.670632,3.52654 1.848983,4.14703 0.09095,0.31642 0.475027,1.03079 0.853178,1.5875 0.37815,0.5567 0.967962,1.78625 1.310513,2.73213 0.34255,0.94589 0.773295,1.83885 0.957564,1.98438 0.439481,0.34706 0.990121,1.60754 0.990121,2.26653 0,0.28695 0.35719,1.19107 0.79375,2.00918 0.43656,0.8181 0.79375,1.7248 0.79375,2.01486 0,0.67994 0.553011,2.63056 0.838192,2.95641 0.120988,0.13825 0.225509,0.49544 0.23151,0.79375 0.0062,0.29832 0.307446,1.37604 0.669727,2.39468 0.904899,2.54444 1.533329,6.15203 1.566828,8.99584 0.02889,2.45095 0.279884,3.27404 1.194244,3.91449 0.53856,0.37726 1.783034,0.41228 2.829804,0.0796 0.33572,-0.1067 0.72105,-0.5668 0.90795,-1.08366 0.17858,-0.49388 0.44016,-0.82627 0.58136,-0.73897 0.32483,0.20075 -0.0189,-5.6485 -0.37052,-6.30556 -0.13619,-0.25447 -0.29116,-0.79783 -0.34417,-1.20716 -0.10093,-0.7792 -0.46832,-1.80603 -1.10949,-3.10007 -0.20936,-0.42253 -0.38085,-1.21243 -0.38085,-1.75545 0,-0.54301 -0.17297,-1.56634 -0.38447,-2.27428 -1.502726,-5.02931 -2.086071,-6.76279 -2.372469,-7.04918 -0.180462,-0.18044 -0.285578,-0.45591 -0.233577,-0.61185 0.05198,-0.15595 -0.365995,-1.22622 -0.928627,-2.37866 -0.56262,-1.15245 -1.575347,-3.22657 -2.250508,-4.60902 -0.675161,-1.38244 -1.348965,-2.69214 -1.497066,-2.91042 -0.148111,-0.21828 -0.695036,-1.28985 -1.215948,-2.38125 -0.520909,-1.09141 -1.150046,-2.34157 -1.397847,-2.77813 -1.410747,-2.4854 -2.684086,-5.08511 -2.684086,-5.48032 0,-0.24975 -0.248029,-0.58696 -0.551387,-0.74931 -0.30336,-0.16236 -0.720942,-0.70018 -0.927592,-1.19476 -0.20665,-0.49458 -0.910614,-1.80447 -1.564764,-2.91093 -0.654159,-1.106454 -1.189591,-2.0925 -1.189591,-2.1916 0,-0.09905 -0.41671,-0.79916 -0.926041,-1.555461 -0.509321,-0.756309 -0.926042,-1.47905 -0.926042,-1.606622 0,-0.127555 -0.455792,-0.876826 -1.012857,-1.664496 -0.557072,-0.78767 -1.218604,-1.957165 -1.470197,-2.599325 -0.537858,-1.372809 -2.000469,-4.171164 -2.734199,-5.231204 -0.283591,-0.40972 -0.896344,-1.519076 -1.361672,-2.464967 -0.465331,-0.94588 -1.138436,-2.196044 -1.495518,-2.778125 -0.357079,-0.582091 -0.894572,-1.534586 -1.194242,-2.116666 -0.299659,-0.582081 -0.872299,-1.653641 -1.272791,-2.38125 -0.400479,-0.727599 -1.19879,-2.215883 -1.774053,-3.307292 -0.575254,-1.091409 -1.373354,-2.448817 -1.773533,-3.016353 -0.40018,-0.567537 -0.727604,-1.183905 -0.727604,-1.369941 0,-0.186052 -0.151424,-0.49552 -0.336413,-0.687814 -0.184981,-0.192299 -1.226785,-1.837152 -2.315104,-3.655075 -1.088321,-1.817918 -2.187043,-3.514556 -2.441713,-3.770313 -0.254658,-0.255751 -0.46302,-0.572407 -0.46302,-0.703315 0,-0.130908 -0.476253,-0.871731 -1.058334,-1.646412 -0.58208,-0.774679 -1.058333,-1.487276 -1.058333,-1.583365 0,-0.09608 -0.246965,-0.238882 -0.548804,-0.31781 -0.30185,-0.07893 -0.609161,-0.375218 -0.683162,-0.65836 -0.07404,-0.283122 -0.604483,-1.393303 -1.178224,-2.46703 -0.573725,-1.073732 -1.307743,-2.488118 -1.631424,-3.142962 -0.32368,-0.654843 -0.650888,-1.250156 -0.727088,-1.322916 -0.07622,-0.07276 -0.957273,-1.382448 -1.957504,-2.910417 -2.471766,-3.775922 -3.399771,-5.135017 -3.613732,-5.291667 -0.302638,-0.221564 -2.624645,-3.694297 -2.624645,-3.925342 0,-0.118806 -0.409533,-0.557318 -0.910021,-0.974616 -0.500481,-0.417301 -0.863788,-0.833512 -0.807186,-0.925008 0.17603,-0.284829 -2.782612,-3.304899 -3.290239,-3.385841 z m -1.52187,1.592152 c -0.05454,-0.0069 -0.08527,0.03028 -0.08527,0.11317 0,0.150373 0.07922,0.353092 0.176217,0.450101 0.09701,0.09702 0.237959,0.114464 0.313159,0.03928 0.07519,-0.07518 -0.004,-0.277381 -0.176218,-0.449585 -0.09492,-0.09493 -0.17335,-0.146048 -0.227891,-0.152961 z m 26.704829,0.530198 c -0.09912,-0.0053 -0.0617,0.179933 0.09353,0.584462 0.08833,0.230185 0.266925,0.418579 0.396875,0.418579 0.36598,0 0.279128,-0.428718 -0.160713,-0.79375 -0.161547,-0.134072 -0.270222,-0.206081 -0.329695,-0.209291 z m 1.372526,0.473874 c -0.226872,0 -0.338981,0.119063 -0.249081,0.264584 0.08994,0.14552 0.275447,0.264583 0.412377,0.264583 0.13694,0 0.249081,-0.119063 0.249081,-0.264583 0,-0.145521 -0.185507,-0.264584 -0.412377,-0.264584 z M 2.1583033,40.226781 c -0.4359831,-0.01611 -1.31129086,0.463841 -1.49138215,0.904338 -0.0960596,0.23495 -0.21962003,1.012631 -0.27491795,1.728059 -0.0825103,1.067443 -0.006218,1.366748 0.42477795,1.668632 0.28887205,0.20233 0.52503385,0.539795 0.52503385,0.749824 0,0.210032 0.1056005,0.381889 0.2346114,0.381889 0.1290002,0 0.2986219,0.327422 0.3767216,0.727604 0.293968,1.505413 1.1936519,3.559913 1.8665508,4.262274 0.3835109,0.400277 0.6971162,0.824571 0.6971162,0.943094 0,0.118522 0.4167214,0.901509 0.9260416,1.739945 0.5093309,0.838435 0.9260417,1.780339 0.9260417,2.093412 0,0.343024 0.2365719,0.664538 0.5953125,0.808736 0.3274192,0.131606 0.5043567,0.247116 0.3932581,0.256315 -0.1110906,0.0092 -0.027808,0.433255 0.185002,0.942578 0.2128202,0.509323 0.3322981,0.926042 0.2650992,0.926042 -0.06717,0 0.1516433,0.446484 0.486791,0.992187 0.335161,0.545704 0.8356891,1.527969 1.1120782,2.182813 0.276389,0.654844 0.5971487,1.319392 0.7126177,1.476912 0.11547,0.15752 0.648632,1.169551 1.18494,2.248958 0.53631,1.079408 1.066453,2.024452 1.178223,2.10013 0.111779,0.07568 0.444146,0.670992 0.738455,1.322917 0.294312,0.651923 0.876896,1.780768 1.294495,2.508374 0.4176,0.727599 0.833692,1.69721 0.924492,2.154391 0.09083,0.45719 0.527663,1.403096 0.970999,2.102197 0.443352,0.69909 0.802918,1.396357 0.79892,1.549776 -0.0041,0.15341 0.341477,0.993433 0.768427,1.866553 0.42695,0.87313 1.031414,2.123284 1.34307,2.778125 0.311671,0.654841 0.845661,1.680686 1.186492,2.279446 0.340831,0.59876 0.70381,1.372672 0.80667,1.719792 0.10287,0.347131 0.591992,1.498954 1.08727,2.559534 0.495282,1.06058 0.900721,2.094944 0.900721,2.299086 0,0.20414 0.119063,0.44495 0.264584,0.53485 0.145521,0.08994 0.264583,0.394512 0.264583,0.67696 0,0.282462 0.103481,0.513665 0.22996,0.513665 0.126481,0 0.298506,0.422796 0.382405,0.939477 0.08385,0.516681 0.520009,1.537124 0.969452,2.267561 0.44944,0.73043 1.234408,2.33547 1.744078,3.566708 0.509669,1.231235 1.114877,2.458555 1.345139,2.727485 0.230258,0.26893 0.752258,1.2418 1.159618,2.16214 0.40736,0.92034 0.899097,1.79797 1.092957,1.95027 0.37406,0.29389 1.003609,1.52775 1.55856,3.05511 0.185052,0.50933 0.480372,1.10463 0.656291,1.32292 0.17591,0.21828 0.47077,0.87312 0.655256,1.4552 0.184502,0.58208 0.496845,1.15332 0.694531,1.26969 0.451332,0.26568 0.478621,0.80748 0.02894,0.57516 -0.181901,-0.094 -0.07577,0.0479 0.236162,0.31523 0.31192,0.26729 0.654386,0.78342 0.760677,1.14722 0.249479,0.85392 2.747537,5.77335 3.015838,5.93917 0.112559,0.0696 0.588385,0.9068 1.057814,1.86035 0.469432,0.95356 0.964385,1.66541 1.099675,1.58181 0.135289,-0.0836 0.24598,0.10076 0.24598,0.4098 0,0.77621 1.032396,3.1535 1.750798,4.03179 0.326679,0.3994 0.674378,0.99471 0.773078,1.32292 0.357942,1.19032 4.426943,9.26747 4.913913,9.75444 0.27494,0.27494 0.499711,0.80877 0.499711,1.18649 0,0.37773 0.250444,1.03823 0.556556,1.46813 0.338598,0.47555 0.499409,1.00125 0.410311,1.34204 -0.09395,0.35924 0.16751,1.09651 0.729671,2.05569 0.48211,0.8226 1.020963,1.93312 1.197342,2.46755 0.176379,0.53443 0.479798,1.06176 0.674378,1.17202 0.65908,0.37349 1.748274,5.96395 2.152322,11.04842 0.190722,2.40004 0.314386,2.75504 1.133266,3.25303 0.414848,0.25229 1.287862,0.47203 1.939933,0.48783 1.105231,0.0268 1.232318,-0.0432 1.873787,-1.0325 0.8915,-1.3749 1.144386,-3.10747 0.723987,-4.95732 -0.18189,-0.80037 -0.490079,-2.75236 -0.685231,-4.33772 -0.372729,-3.02793 -0.506145,-3.50232 -1.739945,-6.19135 -0.420298,-0.91604 -0.764294,-1.73461 -0.764294,-1.81901 0,-0.69449 -5.249135,-11.729 -5.579504,-11.729 -0.09299,0 -0.501428,-0.74415 -0.907439,-1.65365 -0.68988,-1.54542 -1.590048,-3.39392 -4.349088,-8.92968 -0.61649,-1.23693 -1.556925,-2.9038 -2.089796,-3.70417 -0.532868,-0.80036 -1.500732,-2.52678 -2.150771,-3.83646 -0.650042,-1.30969 -1.274146,-2.42112 -1.386996,-2.46962 -0.112879,-0.0485 -0.205155,-0.32771 -0.205155,-0.62063 0,-0.57601 -2.178958,-5.08282 -3.494876,-7.2285 -1.702933,-2.77673 -2.937791,-5.15625 -4.18786,-8.069791 -0.34341,-0.800359 -0.839083,-1.701009 -1.101225,-2.001427 -0.262138,-0.300421 -0.476456,-0.731502 -0.476456,-0.958083 0,-0.49394 -2.067729,-4.992571 -4.252971,-9.25318 -0.870169,-1.69658 -1.769615,-3.720648 -1.998845,-4.497917 -0.229229,-0.777279 -0.505841,-1.532414 -0.614947,-1.677934 -0.109122,-0.145521 -0.421616,-0.919422 -0.694531,-1.719792 -0.272942,-0.800359 -0.724863,-1.87193 -1.004075,-2.38125 -0.27922,-0.50932 -0.911551,-1.695852 -1.405081,-2.636531 -0.493522,-0.94067 -0.994508,-1.774084 -1.113628,-1.852083 -0.272111,-0.178112 -2.674255,-4.410006 -2.674255,-4.71134 0,-0.122301 -0.297659,-0.625689 -0.661459,-1.118796 -0.65261,-0.884557 -0.849981,-1.70234 -0.46302,-1.918745 0.10914,-0.06104 0.0453,-0.07333 -0.142111,-0.02687 -0.187409,0.04646 -0.417047,-0.121928 -0.510045,-0.374136 -0.093,-0.252209 -0.424783,-0.875089 -0.737423,-1.384411 -0.312639,-0.509323 -0.849463,-1.610651 -1.192694,-2.447396 -0.343238,-0.836745 -0.722717,-1.521354 -0.843359,-1.521354 -0.120629,0 -0.485788,-0.565547 -0.811318,-1.256771 -0.325531,-0.691224 -0.695945,-1.332884 -0.823722,-1.425752 -0.127802,-0.09287 -0.157531,-0.290487 -0.06563,-0.439251 0.09194,-0.148765 -0.13072,-0.864182 -0.49506,-1.589567 -0.364331,-0.725384 -0.6624924,-1.497181 -0.6624924,-1.71514 0,-0.217958 -0.1749266,-0.463187 -0.3886068,-0.545187 -0.2136907,-0.082 -0.575556,-0.596667 -0.8040846,-1.143601 C 8.3872696,48.639001 8.1020408,48.127935 7.9817189,48.050076 7.861389,47.972212 7.5166052,47.432231 7.2158745,46.850148 6.6203847,45.697546 5.439679,44.336606 5.0351284,44.336606 c -0.1396285,0 -0.2537301,-0.342447 -0.2537301,-0.761193 0,-0.943133 -0.4258971,-1.299501 -1.4552083,-1.21698 -0.4365599,0.035 -0.9473433,-0.10083 -1.1348138,-0.301791 -0.2864405,-0.307041 -0.1970484,-0.346864 0.5586227,-0.250114 0.7883181,0.100931 0.8958289,0.0441 0.8702305,-0.45992 C 3.60237,40.995234 3.3850175,40.733013 3.0616067,40.671715 2.7705676,40.616552 2.4622778,40.460066 2.3763782,40.32393 2.3364949,40.260764 2.2589138,40.230495 2.1583033,40.226781 Z m 72.9867587,2.257742 c -0.15408,0 -0.20669,0.119063 -0.11679,0.264583 0.08994,0.145521 0.215887,0.264584 0.280086,0.264584 0.06417,0 0.116789,-0.119063 0.116789,-0.264584 0,-0.14552 -0.125986,-0.264583 -0.280085,-0.264583 z m 1.462442,2.027783 c -0.305559,-0.0109 -0.388607,0.23391 -0.388607,0.794268 0,0.47815 0.145746,0.617532 0.645957,0.617532 0.355208,0 0.724204,0.126953 0.820105,0.282155 0.215799,0.349176 0.464188,0.12402 0.560689,-0.508498 0.04868,-0.319021 -0.222411,-0.618495 -0.817523,-0.902269 -0.373713,-0.178212 -0.637286,-0.276648 -0.820621,-0.283188 z m 66.603686,85.303314 c -0.478,-5.2e-4 -0.97346,0.21479 -1.36736,0.63408 -0.59106,0.62915 -0.6012,0.71113 -0.27233,2.26084 0.27074,1.27579 0.48273,1.68204 1.02526,1.96629 0.86884,0.45524 2.10766,0.35983 3.01015,-0.23151 0.38678,-0.25341 0.81638,-0.39071 0.95446,-0.30541 0.41576,0.25695 0.0274,-2.03408 -0.46302,-2.73162 -0.24662,-0.35081 -0.66204,-0.66956 -0.92346,-0.70796 -0.26142,-0.0384 -0.68251,-0.257 -0.93586,-0.48628 -0.29491,-0.26689 -0.65606,-0.39805 -1.02784,-0.39843 z m -1.01596,2.46446 c 0.0228,-0.009 0.0484,0.0165 0.0749,0.0816 0.0707,0.17372 0.3137,0.24525 0.5395,0.15865 0.34558,-0.13261 0.36239,-0.0679 0.10594,0.41135 -0.16757,0.3131 -0.34056,0.56947 -0.38396,0.56947 -0.23801,0 -0.42911,-0.42034 -0.41082,-0.90382 0.007,-0.18947 0.0365,-0.30203 0.0744,-0.31729 z M 38.128201,144.40957 c -0.851522,0.0107 -2.011403,0.6684 -2.343529,1.39733 -0.475168,1.04289 -0.361296,3.29947 0.220144,4.36304 0.27844,0.50933 0.701096,1.34276 0.939477,1.85208 0.23839,0.50932 0.592,1.10463 0.785482,1.32292 0.44962,0.50745 1.945008,0.50492 2.66237,-0.004 0.76844,-0.54535 1.068226,-1.22621 1.249534,-2.83755 0.305562,-2.7155 -1.182565,-5.55796 -3.170864,-6.057 -0.105754,-0.0265 -0.22097,-0.0382 -0.342614,-0.0367 z m 30.209008,5.80533 c -0.349782,-0.005 -0.527447,0.2017 -0.971,0.68006 -0.516281,0.55678 -0.67111,1.00166 -0.66611,1.91823 0.0054,1.07064 0.09381,1.24034 0.859896,1.65261 0.81611,0.43919 3.390125,0.5316 3.785815,0.13591 0.08517,-0.0852 0.218072,-0.6243 0.295073,-1.19838 0.189879,-1.41568 -0.421179,-2.29038 -1.969388,-2.81791 -0.685901,-0.23371 -1.062234,-0.36631 -1.334286,-0.37052 z" />
  </g>
</svg>
