<svg version="1.1" id="Layer_1" xmlns="http://www.w3.org/2000/svg" xmlns:xlink="http://www.w3.org/1999/xlink" x="0px" y="0px"
	 width="100%" viewBox="0 0 1022 1600" enable-background="new 0 0 1022 1600" xml:space="preserve">
<path fill="none" opacity="1.000000" stroke="#000000" stroke-linecap="round" stroke-linejoin="round" stroke-width="8.000000"
	d="
M729.500000,230.750000 
	C726.910400,231.709274 727.455444,229.730530 727.528809,228.501724 
	C727.788086,224.163971 727.991760,219.811203 728.536560,215.504623 
	C729.653442,206.675949 726.852417,198.199814 726.271790,189.515259 
	C725.565613,178.951050 722.932556,168.529022 721.625183,157.984482 
	C721.158569,154.220795 718.871704,151.634262 717.432007,148.531570 
	C712.240723,137.344376 708.378784,125.534927 702.808716,114.597427 
	C694.988831,99.242371 684.842163,85.711014 667.540649,79.388832 
	C661.298218,77.107803 655.229675,74.811722 648.510742,74.345497 
	C646.967834,74.238426 645.118835,74.290749 643.437683,73.087029 
	C638.763977,69.740578 633.117920,70.660454 628.017578,71.174347 
	C619.453369,72.037247 611.008240,74.049080 602.496826,75.481293 
	C597.514954,76.319595 592.956482,78.397263 588.549805,80.599625 
	C583.403748,83.171455 577.667847,83.458549 572.434448,85.857025 
	C561.854065,90.706078 551.306885,95.589897 540.989136,100.979149 
	C536.040833,103.563774 531.143250,106.252197 527.039734,110.043030 
	C522.992371,113.782051 517.266235,113.452606 512.877808,116.841797 
	C503.782684,123.866035 494.342255,130.589508 484.414703,136.353073 
	C471.564484,143.813370 460.149109,153.285599 447.576843,161.123245 
	C435.992218,168.345184 425.680023,177.362961 415.421722,186.411270 
	C408.838959,192.217621 401.492340,197.156693 394.507233,202.509460 
	C393.289429,203.442703 391.908142,204.315567 391.041901,205.529877 
	C385.374207,213.475143 376.553406,217.712891 369.549622,224.054810 
	C360.989777,231.805786 352.660583,239.822601 344.314880,247.806488 
	C335.033447,256.685516 326.111603,265.969543 316.474152,274.470673 
	C300.239319,288.791351 285.642700,304.677429 271.529236,321.025238 
	C264.734222,328.895996 257.345398,336.173340 249.984299,343.484192 
	C244.010712,349.416992 238.298370,355.599915 233.579498,362.553955 
	C230.478516,367.123718 226.368774,370.724304 222.865189,374.886505 
	C214.207047,385.172241 207.047501,396.449829 199.359650,407.401489 
	C192.179977,417.629211 185.716232,428.322723 178.783813,438.689789 
	C170.452316,451.149048 162.145035,463.714874 154.802444,476.889893 
	C149.383530,486.613251 144.315109,496.509827 136.912415,505.345520 
	C130.251602,513.295715 125.527870,523.290955 120.903198,532.953674 
	C117.430511,540.209534 114.092232,547.468384 109.402924,554.277466 
	C105.348999,560.163879 103.514725,567.892395 100.000595,574.500305 
	C93.044518,587.580750 88.524063,601.679199 83.783333,615.596497 
	C81.747757,621.572327 78.940720,627.343506 77.554283,633.512207 
	C74.086540,648.941101 67.902695,663.627502 65.766899,679.468567 
	C64.868637,686.130981 63.036781,692.765442 61.934204,699.489197 
	C60.788727,706.474670 59.777885,713.462036 58.840023,720.478638 
	C57.438213,730.966431 56.113686,741.464600 55.613667,752.005371 
	C55.100933,762.814392 55.408283,773.667664 55.524426,784.499756 
	C55.654411,796.622742 57.743969,808.552429 59.555344,820.491577 
	C60.499523,826.714966 61.519672,833.080933 65.100693,838.432617 
	C66.623177,840.708008 67.360931,843.039001 67.431938,845.501953 
	C67.653076,853.172546 69.508430,860.538635 70.924217,868.014343 
	C73.605629,882.173096 79.035950,895.248596 85.365288,908.066528 
	C85.862808,909.074097 86.530029,910.051697 87.086426,910.946228 
	C91.591919,918.190308 96.617767,924.921631 99.286903,933.409790 
	C101.778000,941.331848 106.171478,948.811768 110.641205,955.911133 
	C114.991196,962.820374 120.545044,968.965942 125.490364,975.507263 
	C134.868271,987.911682 144.771713,999.800720 157.488678,1009.015625 
	C158.242538,1009.561951 159.021225,1010.226135 159.471954,1011.015991 
	C166.834229,1023.917664 179.068680,1032.209595 189.774002,1041.690674 
	C196.885635,1047.989014 205.623169,1052.673218 213.042267,1058.950073 
	C220.004150,1064.839966 226.658112,1071.060547 232.358109,1078.114624 
	C234.974228,1081.352295 237.949341,1084.229370 240.584854,1087.430176 
	C243.806381,1091.342407 248.104080,1093.420776 253.507019,1093.130737 
	C255.270447,1093.036011 257.514862,1093.038818 259.033081,1094.973999 
	C263.133820,1100.200928 269.313477,1102.408936 275.068726,1104.837036 
	C280.185028,1106.995605 284.996521,1109.787109 289.844574,1112.299927 
	C294.305786,1114.612061 299.145538,1115.173584 303.622955,1117.232666 
	C309.200195,1119.797363 314.321808,1123.152100 319.935059,1125.646118 
	C327.098083,1128.828613 333.648254,1132.597900 341.966034,1133.367188 
	C349.271118,1134.042847 356.733948,1135.636597 364.010895,1137.456421 
	C371.224701,1139.260620 378.439301,1140.807251 385.991577,1141.173462 
	C394.528076,1141.587524 402.972382,1143.972534 411.506866,1144.341187 
	C422.620514,1144.821167 433.323700,1147.792236 444.481171,1148.365967 
	C456.795746,1148.999390 469.087372,1151.123657 481.498657,1151.539795 
	C485.943756,1151.688843 490.031219,1149.839111 494.500793,1149.865967 
	C499.181152,1149.894165 502.679260,1151.472290 505.500000,1155.000000 
"/>
<path fill="none" opacity="1.000000" stroke="#000000" stroke-linecap="round" stroke-linejoin="round" stroke-width="8.000000"
	d="
M728.000000,231.500000 
	C726.353027,235.438324 727.860107,239.532822 727.770508,243.506104 
	C727.585815,251.695251 727.143005,259.920227 726.242188,267.971161 
	C725.048584,278.638641 725.328796,289.500031 723.302368,299.961731 
	C719.800781,318.039246 718.139404,336.343658 715.846191,354.543610 
	C714.954651,361.619507 713.810852,368.785797 713.257812,375.981384 
	C712.662231,383.730377 710.136719,391.326996 708.510681,399.002258 
	C707.453918,403.990234 706.499939,409.000000 705.499939,414.000000 
	C703.166687,425.666656 701.109802,437.398560 698.379272,448.971527 
	C697.081848,454.470642 694.172729,459.570435 692.570312,465.020660 
	C689.525391,475.377350 687.815796,486.070221 685.270081,496.565521 
	C681.779114,510.958099 676.921875,525.015869 674.199280,539.537354 
	C672.307617,549.627197 669.116821,559.373718 667.428650,569.488098 
	C666.763123,573.474915 664.355286,576.934082 663.371277,580.968567 
	C661.111206,590.234436 657.829529,599.251709 655.585938,608.520813 
	C652.821045,619.943542 648.479858,630.827637 645.033936,642.010437 
	C641.710571,652.795471 638.751892,663.692749 635.448547,674.484253 
	C634.447998,677.752808 632.654297,680.771423 631.534302,684.011841 
	C628.435364,692.977661 625.713684,702.078369 622.448975,710.981323 
	C617.781921,723.708435 613.302246,736.491760 608.218445,749.088135 
	C600.580566,768.013123 593.534546,787.169556 584.460571,805.480469 
	C582.905640,808.618408 580.986816,811.609863 578.946289,814.461548 
	C577.576660,816.375610 577.210388,818.053528 577.297119,820.507141 
	C577.429932,824.263916 578.912720,826.039001 581.903137,828.138000 
	C589.910217,833.757874 595.453735,841.715393 600.508484,849.994812 
	C609.751465,865.134216 616.831787,881.359619 623.864502,897.558838 
	C628.129150,907.382141 629.818542,918.124146 632.515137,928.496033 
	C635.984863,941.841309 637.622009,955.546326 640.216431,969.054443 
	C642.075500,978.734192 643.930176,988.517273 644.887817,998.462646 
	C645.590332,1005.757202 646.296570,1013.191040 647.450989,1020.507751 
	C648.391052,1026.466064 647.798401,1032.614990 649.500000,1038.500000 
"/>
<path fill="none" opacity="1.000000" stroke="#000000" stroke-linecap="round" stroke-linejoin="round" stroke-width="8.000000"
	d="
M461.500000,1081.500000 
	C459.204071,1073.984009 464.470612,1068.349243 466.645874,1062.050415 
	C470.278229,1051.532471 474.661957,1041.258667 479.114319,1031.049927 
	C480.303040,1028.324341 479.757599,1025.648193 480.394073,1022.974792 
	C481.923706,1016.549927 483.883026,1010.581177 488.393738,1005.407349 
	C492.005737,1001.264404 493.830750,995.839722 494.910797,990.481995 
	C496.743896,981.388977 498.141449,972.219727 501.462250,963.485657 
	C502.185303,961.583862 502.455963,959.498535 501.499512,957.500244 
	C496.430450,946.909668 499.257324,936.174622 501.034882,925.505798 
	C502.705566,915.478699 504.364166,905.432678 506.572144,895.516052 
	C509.743652,881.272156 508.571045,866.863647 509.083191,852.502991 
	C509.612213,837.666931 511.418976,822.882935 511.010406,807.999695 
	C510.937256,805.335022 511.033081,802.666199 510.992828,800.000122 
	C510.917450,795.005981 503.150208,789.539124 498.530548,791.569519 
	C492.420715,794.254944 485.769257,794.420776 479.567657,796.231689 
	C473.397217,798.033447 467.078247,799.570679 460.908081,801.138123 
	C453.716888,802.964966 447.193176,806.431641 440.009888,808.044067 
	C436.938354,808.733521 434.410400,810.871582 431.612976,812.232300 
	C423.653046,816.104309 415.944214,820.562317 408.159515,824.793518 
	C401.766174,828.268372 395.789917,832.897766 388.943146,835.340637 
	C377.075256,839.575134 367.361053,847.870544 355.526825,852.075439 
	C351.305420,853.575317 348.207153,857.136230 344.065521,859.135681 
	C333.194000,864.384277 323.832977,872.147644 314.138062,879.190063 
	C302.947693,887.318787 290.808838,894.110046 280.380493,903.365356 
	C276.974091,906.388611 272.372406,908.836609 267.947510,909.744080 
	C262.510803,910.859009 257.816040,913.545349 253.134186,915.781006 
	C245.174957,919.581604 237.840790,921.000732 230.015717,916.472839 
	C226.650604,914.525696 223.991684,917.091858 221.000000,917.500000 
"/>
<path fill="none" opacity="1.000000" stroke="#000000" stroke-linecap="round" stroke-linejoin="round" stroke-width="11.000000"
	d="
M901.000000,1015.000000 
	C894.672363,1012.015869 890.984985,1016.996765 887.095337,1020.118774 
	C882.473022,1023.828735 876.660706,1025.046753 871.935547,1028.409424 
	C871.236877,1028.906616 869.878235,1028.770874 868.997253,1029.496704 
	C860.083435,1036.842041 849.832520,1042.159058 839.904480,1047.832886 
	C828.680237,1054.247192 817.491943,1060.726196 806.562439,1067.599243 
	C797.093628,1073.553711 786.405029,1076.877441 776.737549,1082.552856 
	C770.878113,1085.992798 763.701294,1088.955688 756.480286,1089.838745 
	C753.571106,1090.194458 751.343140,1091.681396 749.634827,1093.156128 
	C744.947815,1097.202637 739.364319,1099.728760 733.912109,1101.764648 
	C723.767273,1105.552979 714.127136,1110.676758 703.040344,1112.278931 
	C695.295654,1113.398193 687.841858,1116.810059 680.374146,1119.671509 
	C674.690552,1121.849365 668.725342,1124.066528 662.507690,1125.048584 
	C655.684998,1126.125977 655.416931,1126.341309 656.562073,1132.989258 
	C658.849243,1146.267212 658.127930,1159.646240 658.601990,1172.996338 
	C659.170593,1189.011719 660.386719,1205.008667 661.617554,1220.990967 
	C661.810608,1223.497925 661.953674,1226.003662 661.967896,1228.500244 
	C662.044128,1241.851562 662.246643,1255.176392 663.346191,1268.512695 
	C664.013794,1276.610474 662.954041,1284.835815 663.048950,1292.999390 
	C663.198120,1305.834961 664.362244,1318.696045 663.821716,1331.492432 
	C663.164856,1347.041138 663.434021,1362.565186 664.721436,1377.981445 
	C665.932678,1392.484009 665.113464,1407.201538 668.539307,1421.490601 
	C670.083740,1427.932373 670.294067,1434.569336 670.259399,1440.998657 
	C670.200073,1452.011841 673.186218,1462.376099 674.988953,1473.001831 
	C677.532532,1487.994507 679.924622,1503.013184 682.537903,1517.993408 
	C683.552185,1523.807861 685.086975,1529.400391 688.384277,1534.573730 
	C691.735107,1539.831055 695.782898,1544.915894 696.500000,1551.500000 
"/>
<path fill="none" opacity="1.000000" stroke="#000000" stroke-linecap="round" stroke-linejoin="round" stroke-width="6.000000"
	d="
M851.500000,959.000000 
	C841.423218,964.666077 831.244751,970.326599 820.827087,975.124573 
	C811.977356,979.200439 804.340637,985.452209 795.399170,988.724426 
	C786.078735,992.135315 777.658447,997.049255 769.095703,1001.677063 
	C761.421265,1005.824829 753.641479,1009.788513 745.964905,1013.934998 
	C737.115906,1018.714661 728.070923,1023.150146 718.975891,1027.448975 
	C712.566711,1030.478394 706.707703,1034.489502 700.038391,1037.098145 
	C689.670837,1041.153198 680.894897,1048.293701 670.608459,1052.750244 
	C665.133789,1055.122070 659.897583,1057.842529 654.000000,1059.000000 
"/>
<path fill="none" opacity="1.000000" stroke="#000000" stroke-linecap="round" stroke-linejoin="round" stroke-width="10.000000"
	d="
M655.000000,1128.500000 
	C639.701660,1130.834473 624.785583,1135.035034 609.529541,1137.671021 
	C598.042114,1139.655640 586.398804,1140.675049 575.031921,1143.146851 
	C568.156372,1144.641968 561.504883,1145.799072 554.483704,1144.595093 
	C552.253723,1144.212769 550.025330,1144.107056 548.000610,1142.998901 
	C545.498169,1141.629395 543.096741,1141.329712 540.481079,1142.969849 
	C533.824646,1147.143433 526.035706,1148.757202 518.846985,1151.615112 
	C511.388031,1154.580444 506.046112,1159.665527 500.686462,1164.698608 
	C496.210114,1168.902222 492.002258,1172.916992 486.662384,1176.259399 
	C478.380615,1181.443359 471.079071,1188.228516 463.530304,1194.536255 
	C458.371826,1198.846558 452.889465,1202.992188 448.632324,1208.110107 
	C440.763672,1217.569580 430.724976,1225.030273 423.921600,1235.448853 
	C422.812927,1237.146484 420.406555,1237.943726 419.041992,1239.536011 
	C409.960938,1250.133179 400.993958,1260.828369 392.017151,1271.514404 
	C391.550873,1272.069336 391.180511,1272.800903 391.030762,1273.506470 
	C390.683197,1275.144287 389.220917,1276.596313 390.467773,1278.520874 
	C391.933563,1280.783325 394.050507,1280.674438 395.956818,1279.894531 
	C397.221619,1279.377197 398.347565,1279.766235 399.500000,1279.500000 
"/>
<path fill="none" opacity="1.000000" stroke="#000000" stroke-linecap="round" stroke-linejoin="round" stroke-width="8.000000"
	d="
M362.000000,787.500000 
	C359.711578,787.770996 357.518005,788.163574 355.482819,789.473328 
	C336.622742,801.611145 320.083954,816.378601 304.309723,832.311646 
	C293.389191,843.342102 282.324890,854.360596 270.096893,864.121399 
	C262.105927,870.500183 254.723938,877.518433 250.223572,887.373779 
	C247.757767,892.773560 242.011185,896.510376 236.922089,899.882446 
	C231.290863,903.613708 228.327042,908.396240 228.000000,915.000000 
"/>
<path fill="none" opacity="1.000000" stroke="#000000" stroke-linecap="round" stroke-linejoin="round" stroke-width="8.000000"
	d="
M501.500000,790.500000 
	C500.333313,783.166687 498.952484,775.857666 498.114410,768.487000 
	C497.814789,765.851807 496.163483,765.357361 494.493622,764.512634 
	C486.696960,760.568176 479.759613,755.252441 472.590424,750.367310 
	C466.747284,746.385681 461.538208,741.515747 455.015594,738.466675 
	C446.062012,734.281189 438.290131,735.344910 431.500854,742.000854 
	C430.827667,742.660889 430.014008,743.237000 429.523193,744.014648 
	C423.465118,753.613770 412.741852,753.818054 403.499451,756.998413 
	C399.453918,758.390564 395.420776,759.622742 391.955353,762.445190 
	C385.191315,767.954163 376.518066,770.478455 369.932190,776.424866 
	C366.696442,779.346375 363.332489,782.218689 362.679199,786.527161 
	C362.249237,789.362976 363.930389,792.415161 363.500000,795.500000 
"/>
<path fill="none" opacity="1.000000" stroke="#000000" stroke-linecap="round" stroke-linejoin="round" stroke-width="8.000000"
	d="
M577.000000,827.500000 
	C569.443420,833.611694 565.928772,842.454163 563.303772,851.092285 
	C560.548645,860.158569 554.663574,867.596191 552.055542,876.516235 
	C549.172913,886.375427 542.013489,894.093567 538.651428,903.553833 
	C534.414673,915.475586 526.456055,925.410950 522.204773,937.395264 
	C518.829956,946.908752 512.462952,955.163269 502.500000,959.500000 
"/>
<path fill="none" opacity="1.000000" stroke="#000000" stroke-linecap="round" stroke-linejoin="round" stroke-width="8.000000"
	d="
M650.000000,1068.000000 
	C645.369385,1067.509644 641.369629,1069.569702 637.535461,1071.568115 
	C627.968384,1076.554565 618.506958,1081.609741 609.781677,1088.211426 
	C605.273438,1091.622437 600.053894,1094.920044 594.487000,1096.964600 
	C587.230591,1099.629517 582.585754,1105.781860 576.522766,1110.032471 
	C569.591064,1114.892090 562.869385,1120.050293 555.988708,1124.984253 
	C550.329590,1129.042603 545.521484,1133.645630 544.500000,1141.000000 
"/>
<path fill="none" opacity="1.000000" stroke="#000000" stroke-linecap="round" stroke-linejoin="round" stroke-width="8.000000"
	d="
M576.500000,817.500000 
	C572.166687,814.500000 567.823120,811.514648 563.502991,808.495728 
	C559.524841,805.715698 555.640869,803.171753 550.542480,802.262085 
	C547.053467,801.639526 543.435425,800.141663 540.087646,798.783936 
	C533.676880,796.183960 527.000000,796.650452 520.518127,795.405518 
	C517.088440,794.746826 514.093384,795.470398 511.000000,796.500000 
"/>
<path fill="none" opacity="1.000000" stroke="#000000" stroke-linecap="round" stroke-linejoin="round" stroke-width="10.000000"
	d="
M651.000000,1038.500000 
	C648.141663,1038.948975 649.272156,1041.462402 649.629395,1042.453369 
	C651.513000,1047.679565 649.150024,1053.895386 653.453308,1058.543213 
	C654.001465,1059.135254 653.537537,1060.177002 653.025391,1061.015503 
	C649.822754,1066.258545 651.542542,1071.410522 653.516479,1076.493652 
	C655.220642,1080.881958 654.987122,1085.568726 654.823914,1089.993530 
	C654.503540,1098.682251 654.374878,1107.326294 654.947510,1116.003418 
	C655.176086,1119.467285 657.412720,1122.450806 657.000000,1126.000000 
"/>
<path fill="none" opacity="1.000000" stroke="#000000" stroke-linecap="round" stroke-linejoin="round" stroke-width="8.000000"
	d="
M389.500000,1278.000000 
	C382.055450,1280.573975 376.200684,1285.555420 371.669281,1291.626343 
	C368.553192,1295.801025 369.618286,1301.144165 371.487000,1306.005005 
	C374.744110,1314.477295 380.610168,1320.881470 387.500000,1326.500000 
"/>
<path fill="none" opacity="1.000000" stroke="#000000" stroke-linecap="round" stroke-linejoin="round" stroke-width="5.000000"
	d="
M253.000000,1069.500000 
	C255.718887,1073.841064 258.603851,1077.957520 264.500000,1078.000000 
"/>
<path fill="none" opacity="1.000000" stroke="#000000" stroke-linecap="round" stroke-linejoin="round" stroke-width="3.000000"
	d="
M288.500000,331.000000 
	C286.282776,331.004730 284.023773,330.737915 282.000000,332.000000 
"/>
</svg>